<?xml version="1.0" encoding="UTF-8"?>
<svg width="293px" height="121px" viewBox="0 0 293 121" version="1.1" xmlns="http://www.w3.org/2000/svg" xmlns:xlink="http://www.w3.org/1999/xlink">
    <!-- Generator: Sketch 53.2 (72643) - https://sketchapp.com -->
    <title>Group 10</title>
    <desc>Created with Sketch.</desc>
    <defs>
        <linearGradient x1="-1.26857384%" y1="42.3079324%" x2="134.750118%" y2="61.0559408%" id="linearGradient-1">
            <stop stop-color="#1AAFA3" offset="0%"></stop>
            <stop stop-color="#00AB8D" offset="100%"></stop>
        </linearGradient>
        <rect id="path-2" x="0" y="0" width="283" height="111" rx="4"></rect>
        <filter x="-3.0%" y="-5.9%" width="106.0%" height="115.3%" filterUnits="objectBoundingBox" id="filter-4">
            <feMorphology radius="0.5" operator="dilate" in="SourceAlpha" result="shadowSpreadOuter1"></feMorphology>
            <feOffset dx="0" dy="2" in="shadowSpreadOuter1" result="shadowOffsetOuter1"></feOffset>
            <feGaussianBlur stdDeviation="2" in="shadowOffsetOuter1" result="shadowBlurOuter1"></feGaussianBlur>
            <feColorMatrix values="0 0 0 0 0   0 0 0 0 0   0 0 0 0 0  0 0 0 0.0757755888 0" type="matrix" in="shadowBlurOuter1"></feColorMatrix>
        </filter>
    </defs>
    <g id="Page-1" stroke="none" stroke-width="1" fill="none" fill-rule="evenodd">
        <g id="Group-10" transform="translate(5.000000, 3.000000)">
            <g id="Fill-1-Copy-4">
                <mask id="mask-3" fill="white">
                    <use xlink:href="#path-2"></use>
                </mask>
                <g id="Mask">
                    <use fill="black" fill-opacity="1" filter="url(#filter-4)" xlink:href="#path-2"></use>
                    <use fill="url(#linearGradient-1)" fill-rule="evenodd" xlink:href="#path-2"></use>
                </g>
                <path d="M204.592128,-5 L201.55127,-4.7166354 L201.55127,34.3488212 L201.829239,35.4515765 L202.102409,35.7189499 L202.102409,36.2923954 L202.659145,36.2923954 L202.948309,36.553852 L203.76734,36.8269822 L211.492236,36.8269822 L212.322142,36.553852 L212.589395,36.2923954 L212.868003,36.2923954 L213.145971,35.7245468 L213.419141,35.4627703 L213.419141,-4.71087855 L210.657051,-5 L204.592128,-5 Z M221.154753,38.2081448 L220.576106,39.0270557 L220.030085,39.300026 L219.211054,39.5893074 L218.114055,39.8672349 L210.657051,39.8672349 L210.105433,40.1402052 L209.832263,40.6755916 L209.559253,41.2378433 L209.559253,60.2215127 L209.838021,59.9379882 L210.099835,59.6701351 L226.368338,59.6701351 L227.487089,59.3922075 L228.044305,59.3922075 L228.589845,59.1190773 L228.862856,58.5732966 L229.147062,58.3001664 L229.420072,57.7543857 L229.420072,12.6138606 L232.728183,14.2625565 L236.031175,16.2003738 L239.071873,18.3890935 L241.823408,20.5941243 L244.585338,23.0833192 L247.0693,25.8181394 L249.558859,28.8526353 L251.764213,31.6093635 L253.418748,34.9056359 L255.351092,38.2081448 L256.715504,41.7837839 L257.277838,43.4428741 L257.834894,45.0912501 L258.932053,48.955371 L259.767237,52.7876694 L259.767237,54.7197299 L260.040248,56.6573873 L260.313258,60.5107941 L260.040248,65.456242 L259.76164,67.9286462 L259.205063,70.1287196 L258.932053,72.6124776 L258.113022,74.8011973 L256.710546,79.2168557 L255.891515,81.4220464 L254.794196,83.6270772 L253.680243,85.5484235 L252.588362,87.7429001 L251.485605,89.6805575 L250.099282,91.5963069 L248.723675,93.255557 L247.0693,95.1713064 L245.693533,96.8310362 L244.044755,98.4795721 L240.447481,101.514068 L238.520095,102.895231 L236.86604,104.259442 L234.933696,105.356761 L232.728183,106.464473 L230.795839,107.556354 L228.589845,108.664547 L226.368338,109.483458 L225.276137,110.045549 L224.184736,110.31868 L221.973784,110.863981 L219.76843,111.682891 L217.284308,111.955862 L214.794909,112.518113 L214.794909,81.6891 L226.368338,81.6891 L227.487089,81.4220464 L228.044305,81.1377223 L228.589845,81.1377223 L228.862856,80.5924214 L229.147062,80.3029801 L229.420072,79.7679135 L229.420072,60.2272696 L229.420072,60.2215127 L228.862856,60.7783274 L228.044305,61.3354618 L227.214078,61.6076326 L226.368338,61.8807628 L210.657051,61.8807628 L210.105433,62.1535732 L209.559253,63.2456143 L209.559253,81.4220464 L205.41036,81.4220464 L205.41036,62.6996737 L204.865139,62.1535732 L204.31336,61.8807628 L188.590878,61.8807628 L187.755694,61.6076326 L186.937143,61.3402592 L186.106916,60.7783274 L185.833906,60.5107941 L185.561536,60.2215127 L185.561536,78.9438854 L185.833906,79.7735105 L185.833906,80.3029801 L186.106916,80.5868244 L186.664133,81.1327651 L187.209513,81.1327651 L187.482524,81.4161297 L188.590878,81.6891 L200.186219,81.6891 L200.186219,112.518113 L197.696499,111.955862 L195.491305,111.688488 L193.285952,110.869577 L190.807428,110.313083 L188.590878,109.483458 L186.374969,108.664547 L184.453341,107.556354 L182.242229,106.459516 L178.38266,104.259442 L176.460713,102.895231 L174.522771,101.514068 L171.214661,98.4795721 L169.560285,96.8310362 L167.901112,95.1655495 L166.525345,93.255557 L165.149738,91.3175797 L162.387008,87.7429001 L160.187252,83.6270772 L159.351907,81.4220464 L158.532877,79.2168557 L157.970862,78.1144203 L157.686976,77.006228 L156.867946,74.8011973 L156.316327,72.6124776 L155.770946,70.1287196 L155.492338,67.6614327 L155.21357,65.456242 L154.94072,62.9784009 L154.94072,60.5107941 L155.219168,56.6573873 L155.219168,54.7197299 L155.498096,52.7876694 L156.316327,48.955371 L157.146554,45.3586235 L158.532877,41.7780271 L159.079057,39.8672349 L159.898088,38.2081448 L161.563179,34.9056359 L163.484647,31.8764171 L165.690001,28.8526353 L167.901112,25.8181394 L170.39563,23.0833192 L173.147164,20.5941243 L176.187702,18.3890935 L179.217685,16.2003738 L182.242229,14.2625565 L185.561536,12.6138606 L185.561536,56.9247607 L185.833906,57.7543857 L185.833906,58.3001664 L186.106916,58.5732966 L186.664133,59.1190773 L186.937143,59.3971648 L187.482524,59.3971648 L188.590878,59.6701351 L204.865139,59.6701351 L205.41036,60.2215127 L205.41036,40.6755916 L204.865139,40.1402052 L204.31336,39.8622777 L196.866913,39.8622777 L196.031568,39.5893074 L195.213337,39.300026 L194.382951,39.0270557 L194.1101,38.7542453 L193.83741,38.2081448 L193.83741,-3.62459427 L191.086196,-2.80568336 L188.31291,-1.97605832 L185.561536,-1.14643328 L183.08797,-0.327522372 L180.593452,0.769316125 L178.103892,2.16103291 L175.631126,3.24747711 L173.147164,4.63967363 L170.936213,6.29316686 L168.736456,7.93098869 L164.314553,11.2274209 L162.387008,13.1655581 L160.454664,15.0814674 L158.532877,17.0191248 L156.867946,18.9511852 L155.219168,21.134308 L153.554397,23.3506926 L151.900182,25.8181394 L150.524255,28.0231702 L149.148647,30.5011713 L148.035175,32.9679785 L146.943294,35.4571734 L145.840537,38.2025479 L144.180564,43.4428741 L143.635183,46.1880886 L143.077807,48.955371 L142.521231,51.6900314 L142.24838,54.7197299 L142,57.2685721 L142,64.0291846 L142.24838,67.1097352 L142.816152,70.4068071 L143.362173,73.7093161 L144.180564,76.7386947 L145.01079,80.0408838 L146.119145,83.0590687 L147.204948,85.8377049 L148.602467,88.8397386 L149.978234,91.5963069 L153.286985,97.1089638 L154.94072,99.5764106 L156.867946,102.054412 L159.079057,104.53801 L161.284411,106.737444 L163.484647,108.943114 L165.968129,110.869577 L168.452091,112.785327 L170.936213,114.717387 L173.698622,116.37152 L176.460713,118.03125 L179.217685,119.401059 L181.979775,120.765431 L185.00416,121.873463 L188.044858,122.965344 L191.086196,123.805683 L194.382951,124.635788 L197.696499,125.170375 L201.015806,125.454059 L204.31336,125.72703 L207.627069,126 L210.93502,125.722072 L214.24377,125.459656 L217.557479,125.170375 L220.865429,124.635788 L223.905968,123.805683 L226.93627,122.965344 L230.249818,121.873463 L233.001193,120.765431 L236.031175,119.401059 L238.793265,118.03125 L241.54464,116.37152 L244.30721,114.717387 L246.796289,112.77957 L249.269536,110.869577 L251.764213,108.943114 L253.969567,106.737444 L256.169963,104.53801 L258.113022,102.054412 L261.972591,97.1089638 L263.626966,94.3635893 L265.270146,91.5963069 L266.667665,88.8397386 L268.032076,85.8377049 L269.140431,83.0590687 L270.248786,80.0408838 L271.067816,76.7386947 L271.903001,73.7093161 L272.459737,70.4068071 L272.732747,67.1097352 L273,63.7917148 L273,54.7197299 L272.454139,51.685234 L272.170413,48.955371 L271.613677,46.1880886 L270.794646,43.4428741 L269.140431,38.2081448 L268.305087,35.4571734 L267.207927,32.9679785 L264.445997,28.0231702 L263.059195,25.8181394 L261.694623,23.3506926 L260.040248,21.139905 L258.375317,18.9566223 L254.794196,15.0814674 L252.850817,13.1655581 L250.655859,11.2274209 L248.723675,9.31151161 L246.518321,7.65801838 L244.30721,6.29316686 L241.823408,4.63967363 L239.618054,3.24747711 L237.133772,2.16103291 L234.655408,0.763719194 L231.892838,-0.327522372 L229.420072,-1.14643328 L226.657502,-1.97605832 L221.154753,-3.62459427 L221.154753,38.2081448 Z" id="Fill-1" fill="#FFFFFF" opacity="0.200000003" mask="url(#mask-3)"></path>
            </g>
            <circle id="Oval-Copy-5" fill="#FFFFFF" cx="34.5" cy="31.5" r="13.5"></circle>
            <path d="M33.5124522,21 L33,21.0474228 L33,27.5852647 L33.0468438,27.7698175 L33.0928791,27.814564 L33.0928791,27.9105336 L33.1867015,27.9105336 L33.2354321,27.95429 L33.373457,28 L34.6752736,28 L34.8151313,27.95429 L34.8601693,27.9105336 L34.9071209,27.9105336 L34.9539647,27.8155007 L35,27.7716908 L35,21.0483862 L34.5345264,21 L33.5124522,21 Z M36.6889299,27.777167 L36.5961696,27.9098357 L36.5086396,27.9540586 L36.3773446,28.000924 L36.2014897,28.04595 L35.0060922,28.04595 L34.9176648,28.0901729 L34.8738742,28.1769089 L34.8301092,28.2679972 L34.8301092,31.3434711 L34.8747972,31.2975384 L34.9167675,31.2541445 L37.5246954,31.2541445 L37.7040371,31.2091185 L37.7933618,31.2091185 L37.8808149,31.1648696 L37.9245799,31.0764497 L37.9701396,31.0322009 L38.0139046,30.943781 L38.0139046,23.6307319 L38.5442125,23.897831 L39.0736999,24.2117696 L39.56114,24.5663559 L40.0022257,24.9235848 L40.4449778,25.3268501 L40.8431702,25.7699081 L41.2422599,26.2615156 L41.5957899,26.7081229 L41.8610207,27.2421398 L42.1707857,27.777167 L42.3895082,28.356443 L42.4796534,28.6252261 L42.5689524,28.8922734 L42.7448329,29.5182853 L42.8787174,30.1391417 L42.8787174,30.4521477 L42.9224824,30.7660604 L42.9662475,31.3903365 L42.9224824,32.1915302 L42.8778201,32.5920752 L42.7885979,32.948501 L42.7448329,33.3508854 L42.6135379,33.7054718 L42.3887134,34.4208362 L42.2574184,34.778091 L42.0815123,35.1353199 L41.9029398,35.44659 L41.7279054,35.8021091 L41.5511275,36.1160218 L41.3288926,36.4263852 L41.1083754,36.6951942 L40.8431702,37.0055576 L40.6226274,37.2744443 L40.3583195,37.5415175 L39.7816572,38.0331249 L39.472687,38.256882 L39.2075331,38.4778929 L38.8977681,38.6556653 L38.5442125,38.8351217 L38.2344475,39.0120134 L37.8808149,39.1915475 L37.5246954,39.3242162 L37.3496097,39.4152786 L37.1746523,39.4595274 L36.8202249,39.5478696 L36.4666949,39.6805383 L36.0684769,39.7247612 L35.6694128,39.8158495 L35.6694128,34.8213553 L37.5246954,34.8213553 L37.7040371,34.778091 L37.7933618,34.7320287 L37.8808149,34.7320287 L37.9245799,34.6436865 L37.9701396,34.5967952 L38.0139046,34.5101111 L38.0139046,31.3444038 L38.0139046,31.3434711 L37.9245799,31.4336786 L37.7933618,31.5239379 L37.6602721,31.5680313 L37.5246954,31.6122801 L35.0060922,31.6122801 L34.9176648,31.6564771 L34.8301092,31.8333946 L34.8301092,34.778091 L34.1650195,34.778091 L34.1650195,31.7449488 L34.0776177,31.6564771 L33.9891647,31.6122801 L31.4687667,31.6122801 L31.3348822,31.5680313 L31.2036641,31.5247151 L31.0705744,31.4336786 L31.0268094,31.3903365 L30.9831469,31.3434711 L30.9831469,34.3766133 L31.0268094,34.5110178 L31.0268094,34.5967952 L31.0705744,34.6427798 L31.1598991,34.7312256 L31.2473266,34.7312256 L31.2910916,34.7771324 L31.4687667,34.8213553 L33.3275618,34.8213553 L33.3275618,39.8158495 L32.9284465,39.7247612 L32.5749421,39.6814451 L32.2214121,39.5487763 L31.8240914,39.4586207 L31.4687667,39.3242162 L31.1135446,39.1915475 L30.8054974,39.0120134 L30.4510444,38.8343186 L29.8323349,38.4778929 L29.5242364,38.256882 L29.213574,38.0331249 L28.6832662,37.5415175 L28.418061,37.2744443 L28.1520867,37.004625 L27.9315438,36.6951942 L27.7110267,36.3812297 L27.2681463,35.8021091 L26.9155136,35.1353199 L26.7816035,34.778091 L26.6503085,34.4208362 L26.5602146,34.2422347 L26.5147062,34.0627006 L26.3834111,33.7054718 L26.2949838,33.3508854 L26.2075563,32.948501 L26.1628939,32.548785 L26.1182059,32.1915302 L26.0744666,31.7901043 L26.0744666,31.3903365 L26.1191033,30.7660604 L26.1191033,30.4521477 L26.1638169,30.1391417 L26.2949838,29.5182853 L26.4280735,28.9355895 L26.6503085,28.3555104 L26.7378641,28.04595 L26.8691591,27.777167 L27.1360821,27.2421398 L27.4441037,26.7513872 L27.7976337,26.2615156 L28.1520867,25.7699081 L28.5519712,25.3268501 L28.9930568,24.9235848 L29.4804714,24.5663559 L29.9661937,24.2117696 L30.4510444,23.897831 L30.9831469,23.6307319 L30.9831469,30.8093765 L31.0268094,30.943781 L31.0268094,31.0322009 L31.0705744,31.0764497 L31.1598991,31.1648696 L31.2036641,31.2099216 L31.2910916,31.2099216 L31.4687667,31.2541445 L34.0776177,31.2541445 L34.1650195,31.3434711 L34.1650195,28.1769089 L34.0776177,28.0901729 L33.9891647,28.0451469 L32.7954593,28.0451469 L32.6615491,28.000924 L32.5303823,27.9540586 L32.3972669,27.9098357 L32.3535276,27.8656387 L32.3098138,27.777167 L32.3098138,21 L31.8687794,21.1326687 L31.4242069,21.2670732 L30.9831469,21.4014777 L30.5866211,21.5341464 L30.1867366,21.7118411 L29.7876469,21.937308 L29.3912492,22.1133188 L28.9930568,22.3388634 L28.6386295,22.6067397 L28.2859968,22.8720772 L27.5771421,23.4061199 L27.2681463,23.7201103 L26.9583813,24.0304997 L26.6503085,24.3444124 L26.3834111,24.6574184 L26.1191033,25.011098 L25.8522316,25.3701662 L25.587052,25.7699081 L25.3664836,26.127137 L25.1459664,26.5285888 L24.9674708,26.9282271 L24.7924364,27.3314923 L24.6156586,27.7762602 L24.349556,28.6252261 L24.2621286,29.0699681 L24.1727782,29.5182853 L24.083556,29.9613174 L24.0398167,30.4521477 L24,30.8650762 L24,31.9603379 L24.0398167,32.4594065 L24.1308335,32.9935529 L24.2183636,33.5285801 L24.349556,34.0193585 L24.4826458,34.554334 L24.6603209,35.0432989 L24.8343811,35.4934554 L25.0584107,35.9798038 L25.2789536,36.4263852 L25.8093639,37.3194703 L26.0744666,37.7192122 L26.3834111,38.120664 L26.7378641,38.5230225 L27.0913941,38.8793446 L27.4441037,39.2366771 L27.8422191,39.5487763 L28.2404115,39.8591398 L28.6386295,40.1721457 L29.0814586,40.4401257 L29.5242364,40.7090124 L29.9661937,40.93093 L30.4089715,41.1519668 L30.8937966,41.331475 L31.3812367,41.5083667 L31.8687794,41.6445069 L32.3972669,41.7789891 L32.9284465,41.8655955 L33.460549,41.9115542 L33.9891647,41.9557771 L34.5203698,42 L35.050652,41.954974 L35.5810624,41.9124609 L36.1122676,41.8655955 L36.6425497,41.7789891 L37.1299643,41.6445069 L37.6157379,41.5083667 L38.1469175,41.331475 L38.5879775,41.1519668 L39.0736999,40.93093 L39.5164777,40.7090124 L39.9575377,40.4401257 L40.4003924,40.1721457 L40.7994052,39.8582072 L41.1958798,39.5487763 L41.5957899,39.2366771 L41.9493199,38.8793446 L42.3020551,38.5230225 L42.6135379,38.120664 L43.2322474,37.3194703 L43.4974526,36.8747024 L43.7608631,36.4263852 L43.9848928,35.9798038 L44.2036153,35.4934554 L44.3812904,35.0432989 L44.5589656,34.554334 L44.6902606,34.0193585 L44.8241452,33.5285801 L44.913393,32.9935529 L44.957158,32.4594065 L45,31.9218663 L45,30.4521477 L44.9124956,29.9605402 L44.8670128,29.5182853 L44.777765,29.0699681 L44.64647,28.6252261 L44.3812904,27.777167 L44.2473803,27.3314923 L44.0714998,26.9282271 L43.6287477,26.127137 L43.4064358,25.7699081 L43.1876876,25.3701662 L42.9224824,25.0120047 L42.6555851,24.6582992 L42.0815123,24.0304997 L41.7699782,23.7201103 L41.4181147,23.4061199 L41.1083754,23.0957306 L40.7548454,22.8278543 L40.4003924,22.6067397 L40.0022257,22.3388634 L39.6486957,22.1133188 L39.250452,21.937308 L38.853157,21.7109344 L38.4103023,21.5341464 L38.0139046,21.4014777 L37.5710499,21.2670732 L36.6889299,21 L36.6889299,27.777167 Z" id="Fill-1" fill="#15AE9E"></path>
            <text id="农业银行" font-family="PingFangSC-Regular, PingFang SC" font-size="18" font-weight="normal" letter-spacing="-0.4341177" fill="#FFFFFF">
                <tspan x="52" y="38">农业银行</tspan>
            </text>
        </g>
    </g>
</svg>