<?xml version="1.0" encoding="UTF-8"?>
<svg width="293px" height="121px" viewBox="0 0 293 121" version="1.1" xmlns="http://www.w3.org/2000/svg" xmlns:xlink="http://www.w3.org/1999/xlink">
    <!-- Generator: Sketch 53.2 (72643) - https://sketchapp.com -->
    <title>Fill 1 Copy 10</title>
    <desc>Created with Sketch.</desc>
    <defs>
        <linearGradient x1="-1.26857384%" y1="42.3079324%" x2="134.750118%" y2="61.0559408%" id="linearGradient-1">
            <stop stop-color="#FE4444" offset="0%"></stop>
            <stop stop-color="#FA2D2D" offset="100%"></stop>
        </linearGradient>
        <rect id="path-2" x="0" y="0" width="283" height="111" rx="4"></rect>
        <filter x="-3.0%" y="-5.9%" width="106.0%" height="115.3%" filterUnits="objectBoundingBox" id="filter-4">
            <feMorphology radius="0.5" operator="dilate" in="SourceAlpha" result="shadowSpreadOuter1"></feMorphology>
            <feOffset dx="0" dy="2" in="shadowSpreadOuter1" result="shadowOffsetOuter1"></feOffset>
            <feGaussianBlur stdDeviation="2" in="shadowOffsetOuter1" result="shadowBlurOuter1"></feGaussianBlur>
            <feColorMatrix values="0 0 0 0 0   0 0 0 0 0   0 0 0 0 0  0 0 0 0.0757755888 0" type="matrix" in="shadowBlurOuter1"></feColorMatrix>
        </filter>
    </defs>
    <g id="Page-1" stroke="none" stroke-width="1" fill="none" fill-rule="evenodd">
        <g id="Fill-1-Copy-10" transform="translate(5.000000, 3.000000)">
            <mask id="mask-3" fill="white">
                <use xlink:href="#path-2"></use>
            </mask>
            <g id="Mask">
                <use fill="black" fill-opacity="1" filter="url(#filter-4)" xlink:href="#path-2"></use>
                <use fill="url(#linearGradient-1)" fill-rule="evenodd" xlink:href="#path-2"></use>
            </g>
            <circle id="Oval-Copy-10" fill="#FFFFFF" mask="url(#mask-3)" cx="34.5" cy="31.5" r="13.5"></circle>
            <g id="Group-7-Copy-2" mask="url(#mask-3)">
                <g transform="translate(24.000000, 21.000000)" id="Group-12">
                    <g>
                        <path d="M6.03084639,1.88448123 C7.7433567,2.47606485 9.38128454,4.17688567 9.38128454,6.09942491 L9.38128454,20.888872 C9.75369175,20.888872 10.2003567,20.9629096 10.5725835,20.9629096 C10.9449546,20.9629096 11.3916196,20.9629096 11.7638825,20.888872 L11.7638825,6.09942491 C11.7638825,4.17688567 13.4019546,2.47606485 14.9654804,1.88448123 C15.1889031,1.81058703 15.2633052,1.66261945 15.2633052,1.51479522 C15.2633052,1.29289761 15.1889031,1.14507338 14.9654804,0.997105802 C13.6253773,0.40555802 12.1362536,0.0358361775 10.5725835,0.0358361775 C8.93465567,0.0358361775 7.44553196,0.40555802 6.17983093,0.997105802 C5.95640825,1.07103584 5.88200619,1.21900341 5.88200619,1.51479522 C5.73302165,1.736657 5.80745979,1.81058703 6.03084639,1.88448123" id="Fill-1" fill="#FE3F3F"></path>
                        <path d="M20.2518515,11.0539234 C19.6562021,11.0539234 19.1349907,11.5716128 18.911568,12.1631606 C18.911568,12.2370906 18.837166,12.3850582 18.6883258,12.3850582 C18.5393412,12.3850582 18.6137794,12.3109848 18.4649392,12.3109848 C18.1671144,11.7934746 17.9436918,11.201891 17.9436918,10.5362698 C17.9436918,9.87079198 18.1671144,9.20527833 18.5393412,8.76155478 C18.5393412,8.76155478 18.6137794,8.68762474 18.7627278,8.68762474 C18.837166,8.68762474 18.9861505,8.76155478 18.9861505,8.90948652 C19.2093928,9.50107014 19.6562021,10.0187596 20.3262897,10.0187596 C20.6240784,10.0187596 20.9219031,9.79686195 20.9963412,9.50107014 C20.6985165,6.61711792 19.2093928,4.10295922 16.9758155,2.40217423 L16.9758155,18.8924063 C19.0605526,17.2654797 20.4752381,14.8991811 20.9219031,12.2370906 L20.9219031,11.8674046 C20.7730629,11.275821 20.5496763,11.0539234 20.2518515,11.0539234" id="Path" fill="#FE3F3F"></path>
                        <path d="M2.15916082,8.61373055 C2.23359897,8.61373055 2.38258351,8.68762474 2.38258351,8.83559232 C2.6059701,9.42717594 3.05263505,9.94468618 3.7226866,9.94468618 C3.94610928,9.94468618 4.09509381,9.87079198 4.24393402,9.72296775 L4.24393402,2.25420666 C1.63794948,4.17688925 -1.44329897e-05,7.1347715 -1.44329897e-05,10.5362698 C-1.44329897e-05,13.9379114 1.63794948,16.8957937 4.09509381,18.8183329 L4.09509381,11.3497152 C4.02051134,11.275821 3.79726907,11.1278534 3.57384639,11.1278534 C2.97819691,11.1278534 2.45698557,11.645507 2.23359897,12.2370906 C2.23359897,12.3109848 2.15916082,12.4589524 2.01032062,12.4589524 C1.86133608,12.4589524 1.93577423,12.3850582 1.78693402,12.3850582 C1.41467113,11.8674046 1.19128454,11.275821 1.19128454,10.6103073 C1.19128454,9.94468618 1.41467113,9.27920836 1.78693402,8.83559232 C2.01032062,8.68762474 2.08475876,8.61373055 2.15916082,8.61373055" id="Path" fill="#FE3F3F"></path>
                        <path d="M15.2633052,19.7797459 L15.2633052,3.80720324 C14.0720062,4.32471348 13.2529701,5.58191826 13.2529701,6.98680392 L13.2529701,20.593048 C13.923166,20.3713295 14.6676557,20.1494677 15.2633052,19.7797459" id="Path" fill="#FE3F3F"></path>
                        <path d="M7.7433567,20.593048 L7.7433567,6.98680392 C7.7433567,5.50788072 6.92432062,4.32471348 5.73302165,3.80720324 L5.73302165,19.7797459 C6.32867113,20.1494677 6.99872268,20.3713295 7.7433567,20.593048" id="Path" fill="#FE3F3F"></path>
                    </g>
                </g>
            </g>
            <text id="中信银行" mask="url(#mask-3)" font-family="PingFangSC-Regular, PingFang SC" font-size="18" font-weight="normal" letter-spacing="-0.4341177" fill="#FFFFFF">
                <tspan x="52" y="38">中信银行</tspan>
            </text>
            <g id="Group-7" mask="url(#mask-3)" opacity="0.225539435">
                <g transform="translate(142.000000, -10.000000)" id="Group-12">
                    <g>
                        <path d="M37.0466278,11.6658362 C47.566334,15.3280205 57.6278907,25.8569113 57.6278907,37.7583447 L57.6278907,129.312065 C59.9155351,129.312065 62.659334,129.770392 64.9458701,129.770392 C67.2332928,129.770392 69.9770918,129.770392 72.2638495,129.312065 L72.2638495,37.7583447 C72.2638495,25.8569113 82.3262928,15.3280205 91.9308082,11.6658362 C93.3032619,11.2083959 93.7603031,10.2924061 93.7603031,9.37730375 C93.7603031,8.00365188 93.3032619,7.08854949 91.9308082,6.17255973 C83.6987464,2.51059727 74.5512722,0.221843003 64.9458701,0.221843003 C54.8843134,0.221843003 45.7368392,2.51059727 37.9618186,6.17255973 C36.5893649,6.63022184 36.1323237,7.5462116 36.1323237,9.37730375 C35.217133,10.7507338 35.6743959,11.2083959 37.0466278,11.6658362" id="Fill-1" fill="#FFFFFF"></path>
                        <path d="M124.404231,68.4290495 C120.745241,68.4290495 117.543514,71.6337935 116.171061,75.295756 C116.171061,75.7534181 115.71402,76.6694078 114.799715,76.6694078 C113.884525,76.6694078 114.341788,76.2108584 113.427484,76.2108584 C111.597989,73.0072235 110.225535,69.3450392 110.225535,65.2245273 C110.225535,61.1049027 111.597989,56.9850563 113.884525,54.2381962 C113.884525,54.2381962 114.341788,53.7805341 115.256757,53.7805341 C115.71402,53.7805341 116.62921,54.2381962 116.62921,55.1539642 C118.000556,58.8161485 120.745241,62.0208925 124.861494,62.0208925 C126.690767,62.0208925 128.520262,60.6472406 128.977525,58.8161485 C127.14803,40.9631109 118.000556,25.3992713 104.280009,14.8706024 L104.280009,116.952991 C117.086252,106.881541 125.776463,92.2330256 128.520262,75.7534181 L128.520262,73.4648857 C127.605958,69.8027014 126.233726,68.4290495 124.404231,68.4290495" id="Path" fill="#FFFFFF"></path>
                        <path d="M13.2634165,53.3230939 C13.7206794,53.3230939 14.6358701,53.7805341 14.6358701,54.6965239 C16.0081021,58.3587082 18.751901,61.562343 22.867932,61.562343 C24.2403856,61.562343 25.1555763,61.1049027 26.0698804,60.1898003 L26.0698804,13.9546126 C10.0616897,25.8569334 -8.8659794e-05,44.1676331 -8.8659794e-05,65.2245273 C-8.8659794e-05,86.2823089 10.0616897,104.593009 25.1555763,116.494442 L25.1555763,70.2601416 C24.6974268,69.8027014 23.3260814,68.8867116 21.9536278,68.8867116 C18.2946381,68.8867116 15.0929113,72.0912338 13.7206794,75.7534181 C13.7206794,76.2108584 13.2634165,77.1268481 12.3491124,77.1268481 C11.4339216,77.1268481 11.8911845,76.6694078 10.9768804,76.6694078 C8.69012268,73.4648857 7.31789072,69.8027014 7.31789072,65.6828549 C7.31789072,61.562343 8.69012268,57.4427184 10.9768804,54.6965239 C12.3491124,53.7805341 12.8063753,53.3230939 13.2634165,53.3230939" id="Path" fill="#FFFFFF"></path>
                        <path d="M93.7603031,122.446046 L93.7603031,23.568401 C86.4423237,26.7720358 81.4111021,34.5547321 81.4111021,43.2516433 L81.4111021,127.480773 C85.5280196,126.10823 90.1013134,124.7348 93.7603031,122.446046" id="Path" fill="#FFFFFF"></path>
                        <path d="M47.566334,127.480773 L47.566334,43.2516433 C47.566334,34.0964044 42.5351124,26.7720358 35.217133,23.568401 L35.217133,122.446046 C38.8761227,124.7348 42.9921536,126.10823 47.566334,127.480773" id="Path" fill="#FFFFFF"></path>
                    </g>
                </g>
            </g>
        </g>
    </g>
</svg>