<?xml version="1.0" encoding="UTF-8"?>
<svg width="293px" height="121px" viewBox="0 0 293 121" version="1.1" xmlns="http://www.w3.org/2000/svg" xmlns:xlink="http://www.w3.org/1999/xlink">
    <!-- Generator: Sketch 53.2 (72643) - https://sketchapp.com -->
    <title>Group</title>
    <desc>Created with Sketch.</desc>
    <defs>
        <linearGradient x1="-1.26857384%" y1="42.3079324%" x2="134.750118%" y2="61.0559408%" id="linearGradient-1">
            <stop stop-color="#FF4545" offset="0%"></stop>
            <stop stop-color="#F72525" offset="100%"></stop>
        </linearGradient>
        <rect id="path-2" x="0" y="0" width="283" height="111" rx="4"></rect>
        <filter x="-3.0%" y="-5.9%" width="106.0%" height="115.3%" filterUnits="objectBoundingBox" id="filter-4">
            <feMorphology radius="0.5" operator="dilate" in="SourceAlpha" result="shadowSpreadOuter1"></feMorphology>
            <feOffset dx="0" dy="2" in="shadowSpreadOuter1" result="shadowOffsetOuter1"></feOffset>
            <feGaussianBlur stdDeviation="2" in="shadowOffsetOuter1" result="shadowBlurOuter1"></feGaussianBlur>
            <feColorMatrix values="0 0 0 0 0   0 0 0 0 0   0 0 0 0 0  0 0 0 0.0757755888 0" type="matrix" in="shadowBlurOuter1"></feColorMatrix>
        </filter>
    </defs>
    <g id="Page-1" stroke="none" stroke-width="1" fill="none" fill-rule="evenodd">
        <g id="Group" transform="translate(5.000000, 3.000000)">
            <g id="Fill-1-Copy-15">
                <g id="Fill-1-Copy-2">
                    <mask id="mask-3" fill="white">
                        <use xlink:href="#path-2"></use>
                    </mask>
                    <g id="Mask">
                        <use fill="black" fill-opacity="1" filter="url(#filter-4)" xlink:href="#path-2"></use>
                        <use fill="url(#linearGradient-1)" fill-rule="evenodd" xlink:href="#path-2"></use>
                    </g>
                    <path d="M241.902809,41 L269,41 C269,39.7143451 268.548486,39.2856549 268.548486,38 L241,38 L241.902809,41 Z" id="Fill-1" fill="#FFFFFF" opacity="0.200000003" mask="url(#mask-3)"></path>
                    <g id="Group-5" mask="url(#mask-3)" fill="#FFFFFF" opacity="0.200000003">
                        <g transform="translate(142.000000, -10.980932)" id="Fill-3">
                            <path d="M115.20678,92.1401996 L101.600132,111.29856 L25.4000879,111.29856 L11.7923406,91.2283494 L45.8105,7.29811764 L63.9533571,51.9997789 L83.0038077,7.29811764 L98.4247637,46.5258039 L127,46.5258039 C118.835396,19.6143958 94.3429011,0 65.3144176,0 C29.0284835,0.456035641 0,29.1931337 0,65.2283494 C0,101.262902 29.0284835,130 64.4068241,130 C92.0753462,130 116.114374,111.754153 125.185692,87.1231444 L113.846819,87.1231444 L115.20678,92.1401996 Z"></path>
                        </g>
                    </g>
                    <g id="Group-8" mask="url(#mask-3)" fill="#FFFFFF" opacity="0.200000003">
                        <g transform="translate(163.922680, 33.722458)" id="Fill-6">
                            <path d="M87.4274105,30.5998604 L104.641555,30.5998604 C104.641555,29.2506106 105.094443,28.799843 105.094443,27.4505932 L86.0683066,27.4505932 L87.4274105,30.5998604 Z M90.1458376,36.9003576 L103.73512,36.9003576 C103.73512,35.5502355 104.188008,35.1003402 104.188008,33.7502181 L88.7865143,33.7502181 L90.1458376,36.9003576 Z M106,16.1999389 L81.0858772,16.1999389 L82.4443225,19.3500785 L106,19.3500785 L106,16.1999389 Z M85.1627497,25.2000262 L106,25.2000262 L106,22.0505408 L83.8034263,22.0505408 L85.1627497,25.2000262 Z M80.1794421,13.0506717 L106,13.0506717 C106,11.7003315 106,11.2506542 105.547112,9.90031403 L78.8203383,9.90031403 L80.1794421,13.0506717 Z M36.2394025,43.6505321 L17.6670325,0 L0,44.1004274 L71.57237,45 L53.4526687,0 L36.2394025,43.6505321 Z"></path>
                        </g>
                    </g>
                </g>
            </g>
            <circle id="Oval-Copy-4" fill="#FFFFFF" cx="34.5" cy="31.5" r="13.5"></circle>
            <path d="M35.7712857,39.5219044 L35.7712857,36.7099051 C35.7712857,36.3724415 35.5836442,35.7724579 36.0340398,35.7349861 C36.5969954,35.6975455 37.1974295,35.810023 37.7604474,35.6599804 C38.961409,35.3600819 39.4869173,34.2727166 39.4869173,33.1479417 L39.4869173,30.4109481 C39.4869173,29.6985492 39.56203,29.0237155 39.1866847,28.3862912 C38.586126,27.4113722 37.5727436,27.2239201 36.5219451,27.2239201 C36.3717197,27.2239201 35.9589271,27.298957 35.8463672,27.1864795 C35.6962041,27.0740331 35.8087641,26.773979 35.8087641,26.6240921 L35.8087641,23.3996234 C39.7120372,24.0370166 42.6395622,27.5614148 42.6395622,31.498189 C42.6021149,35.4351188 39.6745588,38.8845113 35.7712857,39.5219044 M32.1307667,33.4478402 C31.7554837,33.4478402 31.8680126,32.5855232 31.8680126,32.3230654 L31.8680126,30.1859309 C31.8680126,29.9984477 31.7929622,29.6985492 31.905491,29.5485066 C32.0931325,29.2860177 32.9564453,29.4360914 33.2566779,29.4360914 L35.9214487,29.4360914 C36.1840782,29.4360914 37.1224726,29.2486082 37.1974295,29.6235435 C37.3101452,30.0360128 37.1974295,30.5608662 37.1974295,31.0107762 L37.1974295,32.8480433 C37.1974295,33.1479417 37.2350326,33.4478402 36.8597496,33.4478402 L32.1307667,33.4478402 M26.3507984,31.498189 C26.3507984,27.5614148 29.2783233,24.0370166 33.1815964,23.3996234 L33.1815964,26.2115916 C33.1815964,26.4740806 33.2941564,26.9240216 33.144118,27.1114737 C33.0314645,27.298957 32.2058794,27.1864795 31.9805725,27.1864795 C30.8546613,27.1864795 29.7661974,27.8613133 29.5034744,29.0237155 C29.3908833,29.5110971 29.4659648,30.1109252 29.4659648,30.635872 C29.4659648,31.5357541 29.4284863,32.5105486 29.4659648,33.4478402 C29.4659648,34.2727166 29.9163604,35.0226183 30.6295102,35.4351188 C31.1173843,35.6975455 31.6803711,35.7349861 32.2433578,35.7349861 C32.5060497,35.7349861 33.1065149,35.5850058 33.1815964,35.9225005 C33.2566779,36.1849272 33.1815964,36.5973031 33.1815964,36.8223826 L33.1815964,39.5219044 C29.3158017,38.8845113 26.3507984,35.4351188 26.3507984,31.498189 M34.4951803,21 C29.0155691,21 24.3616989,25.3867152 24.0238944,30.8233241 C23.6485491,36.2974358 27.7394637,41.2090978 33.1815964,41.9215278 C38.6237291,42.5963305 43.8031076,38.8470395 44.8164588,33.4478402 C45.3043329,30.8233241 44.8164588,27.9737596 43.3902216,25.7241788 C41.9640154,23.5496038 39.7496403,21.9748567 37.2350326,21.3374636 C36.3342413,21.1124152 35.3959715,21 34.4951803,21" id="Fill-1-Copy-3" fill="#FE3F3F"></path>
            <text id="招商银行" font-family="PingFangSC-Regular, PingFang SC" font-size="18" font-weight="normal" letter-spacing="-0.4341177" fill="#FFFFFF">
                <tspan x="52" y="38">招商银行</tspan>
            </text>
        </g>
    </g>
</svg>