<?xml version="1.0" encoding="UTF-8"?>
<svg width="294px" height="121px" viewBox="0 0 294 121" version="1.1" xmlns="http://www.w3.org/2000/svg" xmlns:xlink="http://www.w3.org/1999/xlink">
    <!-- Generator: Sketch 53.2 (72643) - https://sketchapp.com -->
    <title>中国工商银行 copy 7</title>
    <desc>Created with Sketch.</desc>
    <defs>
        <linearGradient x1="-1.26857384%" y1="42.3079324%" x2="134.750118%" y2="61.0559408%" id="linearGradient-1">
            <stop stop-color="#FF4545" offset="0%"></stop>
            <stop stop-color="#F72525" offset="100%"></stop>
        </linearGradient>
        <rect id="path-2" x="0" y="0" width="283" height="111" rx="4"></rect>
        <filter x="-3.0%" y="-5.9%" width="106.0%" height="115.3%" filterUnits="objectBoundingBox" id="filter-4">
            <feMorphology radius="0.5" operator="dilate" in="SourceAlpha" result="shadowSpreadOuter1"></feMorphology>
            <feOffset dx="0" dy="2" in="shadowSpreadOuter1" result="shadowOffsetOuter1"></feOffset>
            <feGaussianBlur stdDeviation="2" in="shadowOffsetOuter1" result="shadowBlurOuter1"></feGaussianBlur>
            <feColorMatrix values="0 0 0 0 0   0 0 0 0 0   0 0 0 0 0  0 0 0 0.0757755888 0" type="matrix" in="shadowBlurOuter1"></feColorMatrix>
        </filter>
        <polygon id="path-5" points="0.0667244047 0.0353390131 95.1900814 0.0353390131 95.1900814 36.3862265 0.0667244047 36.3862265"></polygon>
        <polygon id="path-7" points="0 0.108093717 45.4191707 0.108093717 45.4191707 35.8177139 0 35.8177139"></polygon>
        <polygon id="path-9" points="0.14858273 0.00353212638 45.5678601 0.00353212638 45.5678601 35.4987398 0.14858273 35.4987398"></polygon>
        <polygon id="path-11" points="0.000382017981 0.00638428243 0.981531532 0.00638428243 0.981531532 1.06404042 0.000382017981 1.06404042"></polygon>
        <filter x="-222.9%" y="-221.1%" width="545.7%" height="619.0%" filterUnits="objectBoundingBox" id="filter-13">
            <feOffset dx="0" dy="0" in="SourceAlpha" result="shadowOffsetOuter1"></feOffset>
            <feGaussianBlur stdDeviation="0.5" in="shadowOffsetOuter1" result="shadowBlurOuter1"></feGaussianBlur>
            <feColorMatrix values="0 0 0 0 0   0 0 0 0 0   0 0 0 0 0  0 0 0 0.227043705 0" type="matrix" in="shadowBlurOuter1" result="shadowMatrixOuter1"></feColorMatrix>
            <feMerge>
                <feMergeNode in="shadowMatrixOuter1"></feMergeNode>
                <feMergeNode in="SourceGraphic"></feMergeNode>
            </feMerge>
        </filter>
        <polygon id="path-14" points="0.000382017981 0.00638428243 0.981531532 0.00638428243 0.981531532 1.06404042 0.000382017981 1.06404042"></polygon>
        <polygon id="path-16" points="0.000382017981 0.00638428243 0.981531532 0.00638428243 0.981531532 1.06404042 0.000382017981 1.06404042"></polygon>
        <polygon id="path-18" points="0.0118445689 0.00632024658 16.8976476 0.00632024658 16.8976476 6.50753666 0.0118445689 6.50753666"></polygon>
        <polygon id="path-20" points="0 0.0193321455 8.06257468 0.0193321455 8.06257468 6.40586037 0 6.40586037"></polygon>
        <polygon id="path-22" points="0.0263756325 0.000631707217 8.08896925 0.000631707217 8.08896925 6.34881308 0.0263756325 6.34881308"></polygon>
    </defs>
    <g id="Page-1" stroke="none" stroke-width="1" fill="none" fill-rule="evenodd">
        <g id="中国工商银行-copy-7" transform="translate(5.000000, 2.000000)">
            <g id="分组-24" transform="translate(0.500000, 0.007886)">
                <g id="分组-11" transform="translate(0.042398, 0.914062)">
                    <mask id="mask-3" fill="white">
                        <use xlink:href="#path-2"></use>
                    </mask>
                    <g id="Mask">
                        <use fill="black" fill-opacity="1" filter="url(#filter-4)" xlink:href="#path-2"></use>
                        <use fill="url(#linearGradient-1)" fill-rule="evenodd" xlink:href="#path-2"></use>
                    </g>
                    <circle id="Oval" fill="#FFFFFF" mask="url(#mask-3)" cx="34.5" cy="31.5" r="13.5"></circle>
                    <g id="Group-16" mask="url(#mask-3)">
                        <g transform="translate(142.000000, 1.000000)">
                            <path d="M64.7006563,42.5520057 C62.1296683,37.8477103 59.9872672,32.715655 57.8450439,28.0113596 C54.2027663,18.8170039 50.5612001,9.62211573 47.5616252,0.213525027 C37.0637351,30.1496273 20.3525795,58.1609869 3.55673799e-05,81.8959886 C15.2113148,78.2609159 30.4218826,76.1226482 45.419224,75.2669507 C52.7036013,64.7900248 58.9161555,54.0981541 64.7006563,42.5520057" id="Fill-1" fill="#FFFFFF" opacity="0.200000003"></path>
                            <g id="Group-5" stroke-width="1" fill="none" transform="translate(17.072342, 74.590344)">
                                <mask id="mask-6" fill="white">
                                    <use xlink:href="#path-5"></use>
                                </mask>
                                <g id="Clip-4"></g>
                                <path d="M47.628314,0.0353390131 C41.4150484,0.0353390131 34.9880228,0.0353390131 28.7756464,0.463099042 C20.4199797,13.0790025 10.5646144,24.8393859 0.0667244047,36.3862442 C15.7065905,33.178754 31.3457453,32.3232339 47.628314,32.3232339 C63.9108827,32.3232339 79.9786244,33.8202165 95.1900814,36.3862442 C84.6920136,25.0536209 74.8373596,13.0790025 66.4818707,0.676624068 C60.2686051,0.0353390131 53.8415796,0.0353390131 47.628314,0.0353390131" id="Fill-3" fill="#FFFFFF" opacity="0.200000003" mask="url(#mask-6)"></path>
                            </g>
                            <g id="Group-8" stroke-width="1" fill="none" transform="translate(0.000000, 74.945332)">
                                <mask id="mask-8" fill="white">
                                    <use xlink:href="#path-7"></use>
                                </mask>
                                <g id="Clip-7"></g>
                                <path d="M-1.778369e-05,6.95065673 L16.7111378,35.8177139 C27.2083165,24.4843805 37.0636818,12.5104721 45.4191707,0.108093717 C30.2078915,1.39084132 14.9966123,3.31558395 -1.778369e-05,6.95065673" id="Fill-6" fill="#FFFFFF" opacity="0.100000001" mask="url(#mask-8)"></path>
                            </g>
                            <path d="M72.1952445,27.6188857 C70.0528434,32.750941 67.3907713,38.4736251 64.8197832,43.1779204 C70.6042841,54.5105438 76.0558447,65.0035144 82.911635,75.2670927 C98.5507898,76.3361377 113.762069,78.4751154 128.330112,81.8959531 C108.620093,58.1611289 92.337702,30.1495918 81.4117586,0.213489528 C79.6010061,8.92211147 76.4800468,18.2111824 72.1952445,27.6188857 Z" id="Fill-9" fill="#FFFFFF" opacity="0.200000003"></path>
                            <path d="M64.7006563,42.5520057 C67.2716444,37.8477103 69.4140455,32.715655 71.5564467,28.0113596 C75.1987242,18.6027689 78.8408239,9.4085907 82.0543367,0 L47.9902121,0 C51.2037249,9.4085907 54.2027663,18.6027689 58.4873908,28.0113596 C59.9872672,32.715655 62.1296683,38.0612354 64.7006563,42.5520057" id="Fill-11" fill="#FFFFFF" opacity="0.100000001"></path>
                            <g id="Group-15" stroke-width="1" fill="none" transform="translate(83.405506, 75.477813)">
                                <mask id="mask-10" fill="white">
                                    <use xlink:href="#path-9"></use>
                                </mask>
                                <g id="Clip-14"></g>
                                <path d="M28.8569713,35.4987398 L45.567949,6.63168264 C30.9991945,2.99731984 15.7879153,0.858342208 0.14858273,0.00353212638 C8.93230287,12.1916755 18.3589034,23.9518814 28.8569713,35.4987398" id="Fill-13" fill="#FFFFFF" opacity="0.100000001" mask="url(#mask-10)"></path>
                            </g>
                        </g>
                    </g>
                </g>
                <text id="广发银行" font-family="PingFangSC-Regular, PingFang SC" font-size="18" font-weight="normal" letter-spacing="-0.4341177" fill="#FFFFFF">
                    <tspan x="52.0097295" y="39">广发银行</tspan>
                </text>
                <g id="卡号" transform="translate(23.000000, 22.000000)" opacity="0.686081659">
                    <g id="Group-4">
                        <g id="星号-3" transform="translate(4.326923, 10.661538)">
                            <g id="Group-3">
                                <mask id="mask-12" fill="white">
                                    <use xlink:href="#path-11"></use>
                                </mask>
                                <g id="Clip-2"></g>
                                <polygon id="Fill-1" fill="#FFFFFF" mask="url(#mask-12)" points="0.0932187542 0.882640347 0.440587704 0.625666329 0.397285966 1.06404042 0.58270476 1.06404042 0.538906398 0.625666329 0.888841236 0.882640347 0.981531532 0.716642353 0.590860844 0.532016886 0.981531532 0.347418019 0.888841236 0.184073493 0.538906398 0.444784977 0.582201769 0.00638428243 0.396789343 0.00638428243 0.440091081 0.444784977 0.092696663 0.184618817 0 0.347936742 0.396267251 0.53256221 0 0.717161076"></polygon>
                            </g>
                            <polygon id="Fill-4" fill="#FFFFFF" points="1.45063017 0.88155088 1.79971261 0.623024085 1.75619807 1.06404707 1.94252168 1.06404707 1.89900714 0.623024085 2.25066168 0.88155088 2.34383949 0.714549836 1.95122331 0.528808761 2.34331483 0.343616305 2.25016262 0.179311525 1.89850808 0.441049749 1.94202262 0 1.75569901 0 1.79921355 0.441049749 1.45010551 0.179311525 1.3569597 0.343616305 1.75519994 0.52935738 1.3569597 0.715071693"></polygon>
                            <polygon id="Fill-5" fill="#FFFFFF" points="2.93047473 0.88155088 3.27976846 0.623024085 3.23623078 1.06404707 3.4226535 1.06404707 3.37911581 0.623024085 3.7309574 0.88155088 3.82415916 0.714549836 3.43135335 0.528808761 3.82415916 0.343094448 3.73043247 0.179311525 3.37859088 0.441049749 3.42212856 0 3.23573145 0 3.27976846 0.441049749 2.93047473 0.179311525 2.83727938 0.343616305 3.23573145 0.52935738 2.83727938 0.715071693"></polygon>
                            <polygon id="Fill-6" fill="#FFFFFF" points="4.28791837 0.88155088 4.63700347 0.623024085 4.5934942 1.06404707 4.77982264 1.06404707 4.73630698 0.623024085 5.08797064 0.88155088 5.18111886 0.714549836 4.7885181 0.528808761 5.18111886 0.343094448 5.08797064 0.178762905 4.7358079 0.441049749 4.77929797 0 4.59298873 0 4.6364788 0.441049749 4.2873937 0.179311525 4.19423908 0.343616305 4.59246406 0.52935738 4.19423908 0.715071693"></polygon>
                        </g>
                        <g id="星号-3-copy" transform="translate(11.975241, 10.661538)">
                            <g id="Group-3" filter="url(#filter-13)">
                                <mask id="mask-15" fill="white">
                                    <use xlink:href="#path-14"></use>
                                </mask>
                                <g id="Clip-2"></g>
                                <polygon id="Fill-1" mask="url(#mask-15)" points="0.0932187542 0.882640347 0.440587704 0.625666329 0.397285966 1.06404042 0.58270476 1.06404042 0.538906398 0.625666329 0.888841236 0.882640347 0.981531532 0.716642353 0.590860844 0.532016886 0.981531532 0.347418019 0.888841236 0.184073493 0.538906398 0.444784977 0.582201769 0.00638428243 0.396789343 0.00638428243 0.440091081 0.444784977 0.092696663 0.184618817 0 0.347936742 0.396267251 0.53256221 0 0.717161076"></polygon>
                            </g>
                            <polygon id="Fill-4" fill="#FFFFFF" points="1.45063017 0.88155088 1.79971261 0.623024085 1.75619807 1.06404707 1.94252168 1.06404707 1.89900714 0.623024085 2.25066168 0.88155088 2.34383949 0.714549836 1.95122331 0.528808761 2.34331483 0.343616305 2.25016262 0.179311525 1.89850808 0.441049749 1.94202262 0 1.75569901 0 1.79921355 0.441049749 1.45010551 0.179311525 1.3569597 0.343616305 1.75519994 0.52935738 1.3569597 0.715071693"></polygon>
                            <polygon id="Fill-4-Copy" fill="#FFFFFF" points="0.0936704661 0.88155088 0.442752909 0.623024085 0.39923837 1.06404707 0.58556198 1.06404707 0.542047442 0.623024085 0.893701983 0.88155088 0.986879783 0.714549836 0.594263608 0.528808761 0.986355126 0.343616305 0.893202919 0.179311525 0.541548378 0.441049749 0.585062916 0 0.398739306 0 0.442253845 0.441049749 0.0931458091 0.179311525 7.10542736e-15 0.343616305 0.398240242 0.52935738 7.10542736e-15 0.715071693"></polygon>
                            <polygon id="Fill-5" fill="#FFFFFF" points="2.93047473 0.88155088 3.27976846 0.623024085 3.23623078 1.06404707 3.4226535 1.06404707 3.37911581 0.623024085 3.7309574 0.88155088 3.82415916 0.714549836 3.43135335 0.528808761 3.82415916 0.343094448 3.73043247 0.179311525 3.37859088 0.441049749 3.42212856 0 3.23573145 0 3.27976846 0.441049749 2.93047473 0.179311525 2.83727938 0.343616305 3.23573145 0.52935738 2.83727938 0.715071693"></polygon>
                            <polygon id="Fill-6" fill="#FFFFFF" points="4.28791837 0.88155088 4.63700347 0.623024085 4.5934942 1.06404707 4.77982264 1.06404707 4.73630698 0.623024085 5.08797064 0.88155088 5.18111886 0.714549836 4.7885181 0.528808761 5.18111886 0.343094448 5.08797064 0.178762905 4.7358079 0.441049749 4.77929797 0 4.59298873 0 4.6364788 0.441049749 4.2873937 0.179311525 4.19423908 0.343616305 4.59246406 0.52935738 4.19423908 0.715071693"></polygon>
                        </g>
                        <g id="星号-3-copy-2" transform="translate(19.623560, 10.661538)">
                            <g id="Group-3">
                                <mask id="mask-17" fill="white">
                                    <use xlink:href="#path-16"></use>
                                </mask>
                                <g id="Clip-2"></g>
                                <polygon id="Fill-1" fill="#FFFFFF" mask="url(#mask-17)" points="0.0932187542 0.882640347 0.440587704 0.625666329 0.397285966 1.06404042 0.58270476 1.06404042 0.538906398 0.625666329 0.888841236 0.882640347 0.981531532 0.716642353 0.590860844 0.532016886 0.981531532 0.347418019 0.888841236 0.184073493 0.538906398 0.444784977 0.582201769 0.00638428243 0.396789343 0.00638428243 0.440091081 0.444784977 0.092696663 0.184618817 0 0.347936742 0.396267251 0.53256221 0 0.717161076"></polygon>
                            </g>
                            <polygon id="Fill-4" fill="#FFFFFF" points="1.45063017 0.88155088 1.79971261 0.623024085 1.75619807 1.06404707 1.94252168 1.06404707 1.89900714 0.623024085 2.25066168 0.88155088 2.34383949 0.714549836 1.95122331 0.528808761 2.34331483 0.343616305 2.25016262 0.179311525 1.89850808 0.441049749 1.94202262 0 1.75569901 0 1.79921355 0.441049749 1.45010551 0.179311525 1.3569597 0.343616305 1.75519994 0.52935738 1.3569597 0.715071693"></polygon>
                            <polygon id="Fill-5" fill="#FFFFFF" points="2.93047473 0.88155088 3.27976846 0.623024085 3.23623078 1.06404707 3.4226535 1.06404707 3.37911581 0.623024085 3.7309574 0.88155088 3.82415916 0.714549836 3.43135335 0.528808761 3.82415916 0.343094448 3.73043247 0.179311525 3.37859088 0.441049749 3.42212856 0 3.23573145 0 3.27976846 0.441049749 2.93047473 0.179311525 2.83727938 0.343616305 3.23573145 0.52935738 2.83727938 0.715071693"></polygon>
                            <polygon id="Fill-6" fill="#FFFFFF" points="4.28791837 0.88155088 4.63700347 0.623024085 4.5934942 1.06404707 4.77982264 1.06404707 4.73630698 0.623024085 5.08797064 0.88155088 5.18111886 0.714549836 4.7885181 0.528808761 5.18111886 0.343094448 5.08797064 0.178762905 4.7358079 0.441049749 4.77929797 0 4.59298873 0 4.6364788 0.441049749 4.2873937 0.179311525 4.19423908 0.343616305 4.59246406 0.52935738 4.19423908 0.715071693"></polygon>
                        </g>
                        <g id="Group-16" transform="translate(0.005235, 0.059911)">
                            <path d="M11.4853236,7.61026255 C11.0289352,6.76891742 10.6486273,5.85106906 10.268351,5.00972393 C9.62179284,3.36534878 8.97536097,1.72087839 8.44289204,0.0381881298 C6.57936127,5.39214488 3.61288394,10.4018688 6.31373608e-06,14.6467826 C2.70023339,13.9966638 5.40033419,13.6142429 8.06258415,13.4612046 C9.35566886,11.5874468 10.4584891,9.67524678 11.4853236,7.61026255" id="Fill-1" fill="#FF0000"></path>
                            <g id="Group-5" transform="translate(3.030593, 13.340196)">
                                <mask id="mask-19" fill="white">
                                    <use xlink:href="#path-18"></use>
                                </mask>
                                <g id="Clip-4"></g>
                                <path d="M8.45473029,0.00632024658 C7.35178374,0.00632024658 6.21089163,0.00632024658 5.10810292,0.0828234824 C3.62484847,2.33912929 1.87537534,4.44242863 0.0118445689,6.50753983 C2.78815217,5.93389254 5.56433349,5.78088607 8.45473029,5.78088607 C11.3451271,5.78088607 14.1973889,6.04861565 16.8976476,6.50753983 C15.0340852,4.48074373 13.2847384,2.33912929 11.8015155,0.121011612 C10.698569,0.00632024658 9.55767685,0.00632024658 8.45473029,0.00632024658" id="Fill-3" fill="#FF0000" mask="url(#mask-19)"></path>
                            </g>
                            <g id="Group-8" transform="translate(0.000000, 13.403684)">
                                <mask id="mask-21" fill="white">
                                    <use xlink:href="#path-20"></use>
                                </mask>
                                <g id="Clip-7"></g>
                                <path d="M-3.15686804e-06,1.24309822 L2.96647417,6.40586037 C4.82987867,4.37893729 6.5793518,2.23744982 8.06257468,0.0193321455 C5.3623476,0.248746621 2.66212052,0.592979438 -3.15686804e-06,1.24309822" id="Fill-6" fill="#FF0000" mask="url(#mask-21)"></path>
                            </g>
                            <path d="M12.8157239,4.93953147 C12.435416,5.85737984 11.9628588,6.88085987 11.5064704,7.722205 C12.5333049,9.7490011 13.5010375,11.6256285 14.7180417,13.46123 C17.494223,13.6524246 20.1944501,14.0349726 22.7804933,14.6467762 C19.2816733,10.4018942 16.3913081,5.39213853 14.4517915,0.0381817809 C14.1303561,1.59568532 13.5763397,3.25699994 12.8157239,4.93953147 Z" id="Fill-9" fill="#FF0000"></path>
                            <path d="M11.4853236,7.61026255 C11.941712,6.76891742 12.3220199,5.85106906 12.7023278,5.00972393 C13.348886,3.32703367 13.9954125,1.68269026 14.5658586,0 L8.51897256,0 C9.08941861,1.68269026 9.62179284,3.32703367 10.3823771,5.00972393 C10.6486273,5.85106906 11.0289352,6.80710555 11.4853236,7.61026255" id="Fill-11" fill="#FF0000"></path>
                            <g id="Group-15" transform="translate(14.805711, 13.498917)">
                                <mask id="mask-23" fill="white">
                                    <use xlink:href="#path-22"></use>
                                </mask>
                                <g id="Clip-14"></g>
                                <path d="M5.12253928,6.34881308 L8.08898503,1.18605093 C5.5028156,0.536059126 2.80258852,0.153511203 0.0263756325,0.000631707217 C1.58561589,2.18043428 3.25897694,4.28370187 5.12253928,6.34881308" id="Fill-13" fill="#FF0000" mask="url(#mask-23)"></path>
                            </g>
                        </g>
                    </g>
                </g>
            </g>
        </g>
    </g>
</svg>