<?xml version="1.0" encoding="UTF-8"?>
<svg width="293px" height="121px" viewBox="0 0 293 121" version="1.1" xmlns="http://www.w3.org/2000/svg" xmlns:xlink="http://www.w3.org/1999/xlink">
    <!-- Generator: Sketch 53.2 (72643) - https://sketchapp.com -->
    <title>Fill 1 Copy 12</title>
    <desc>Created with Sketch.</desc>
    <defs>
        <linearGradient x1="-1.26857384%" y1="42.3079324%" x2="134.750118%" y2="61.0559408%" id="linearGradient-1">
            <stop stop-color="#FE4444" offset="0%"></stop>
            <stop stop-color="#FA2D2D" offset="100%"></stop>
        </linearGradient>
        <rect id="path-2" x="0" y="0" width="283" height="111" rx="4"></rect>
        <filter x="-3.0%" y="-5.9%" width="106.0%" height="115.3%" filterUnits="objectBoundingBox" id="filter-4">
            <feMorphology radius="0.5" operator="dilate" in="SourceAlpha" result="shadowSpreadOuter1"></feMorphology>
            <feOffset dx="0" dy="2" in="shadowSpreadOuter1" result="shadowOffsetOuter1"></feOffset>
            <feGaussianBlur stdDeviation="2" in="shadowOffsetOuter1" result="shadowBlurOuter1"></feGaussianBlur>
            <feColorMatrix values="0 0 0 0 0   0 0 0 0 0   0 0 0 0 0  0 0 0 0.0757755888 0" type="matrix" in="shadowBlurOuter1"></feColorMatrix>
        </filter>
    </defs>
    <g id="Page-1" stroke="none" stroke-width="1" fill="none" fill-rule="evenodd">
        <g id="Fill-1-Copy-12" transform="translate(5.000000, 3.000000)">
            <mask id="mask-3" fill="white">
                <use xlink:href="#path-2"></use>
            </mask>
            <g id="Mask">
                <use fill="black" fill-opacity="1" filter="url(#filter-4)" xlink:href="#path-2"></use>
                <use fill="url(#linearGradient-1)" fill-rule="evenodd" xlink:href="#path-2"></use>
            </g>
            <circle id="Oval-Copy-10" fill="#FFFFFF" mask="url(#mask-3)" cx="34.5" cy="31.5" r="13.5"></circle>
            <path d="M33.1247564,29.92075 L37.9118527,29.92075 C38.4708844,29.92075 38.8902016,30.3265175 38.8902016,30.8677187 L38.8902016,33.7425677 C38.8902016,34.2837689 38.4708844,34.6896487 37.9118527,34.6896487 L33.1247564,34.6896487 C32.5657538,34.6896487 32.1464365,34.2837689 32.1464365,33.7425677 L32.1464365,30.8677187 C32.1464365,30.360404 32.6356545,29.92075 33.1247564,29.92075 L33.1247564,29.92075 Z M28.3377761,24.2047421 C29.3860257,23.3592082 30.608969,22.6827699 32.1464365,22.3106923 C33.0549717,22.0740203 33.9983992,21.9724731 34.9068184,22.0063596 C34.9767481,22.0740203 35.1863342,22.8181193 35.5008584,22.9533284 C35.8153826,23.0886497 36.9335329,22.7504586 37.4925355,23.4945296 C37.73713,23.9679859 37.3877424,24.1370814 37.7021506,24.4753006 C39.7987368,25.6252795 40.1830457,24.2047421 41.0216801,25.5238446 C41.3710677,26.639937 39.5890057,26.4370392 39.1347961,27.7222271 C38.9949947,27.5193574 38.5058927,27.2487989 38.3660623,27.1472517 C36.8985245,26.2679436 35.1863342,25.9297244 33.3693799,26.4031527 C29.9101359,27.2825731 27.8485581,30.6647367 28.7919857,33.9793239 C29.7005498,37.2939392 33.2296655,39.2217913 36.6889094,38.3423709 C37.7021506,38.1055866 38.9600733,37.395374 39.6939437,36.7866244 C40.3228471,36.3468581 40.8469574,35.6028714 41.3710677,35.3322006 C41.3710677,35.3322006 40.9866718,35.7719669 40.9168871,36.0762996 C40.9168871,36.0762996 41.0915808,36.1439603 41.405989,35.8395153 C41.7205132,35.5351826 41.9651077,34.9602072 41.9651077,34.9602072 C41.9300993,35.1631331 42.0699297,35.6704198 41.4758897,36.4145188 C41.1264732,36.8880593 40.7770567,37.2262785 40.7770567,37.2262785 C40.8818787,37.1925043 41.0915808,37.0233807 41.405989,36.8541728 C41.6505835,36.651275 42,36.0762996 42,36.0762996 C41.9651077,36.3468581 41.5806828,37.4968651 41.0915808,38.0380382 C40.3228471,39.0864699 39.3794196,39.729106 39.3794196,39.729106 C38.8902016,40.1010993 38.4010707,40.4055443 37.4576432,40.6761028 C32.1814449,42.0289514 26.7654162,39.0187811 25.3327707,33.9793239 C24.9833542,32.7955708 24.9833542,31.4427222 25.0881473,30.157422 C25.0881473,30.157422 24.1447197,30.7323974 22.9916771,30.7323974 C21.8036261,30.7323974 21,29.7854286 21,28.7707711 C21,27.7899159 22.188051,26.4708134 22.188051,26.5046998 C22.188051,26.5722482 22.1181503,27.6207922 23.2012922,27.6545664 C25.4026714,27.4516967 26.4859294,25.794375 28.1979747,24.4077522 L28.3377761,24.2047421 Z" id="Fill-1" fill="#FE3F3F" mask="url(#mask-3)"></path>
            <text id="华夏银行" mask="url(#mask-3)" font-family="PingFangSC-Regular, PingFang SC" font-size="18" font-weight="normal" letter-spacing="-0.4341177" fill="#FFFFFF">
                <tspan x="52" y="38">华夏银行</tspan>
            </text>
            <g id="Group-3" opacity="0.200000003" mask="url(#mask-3)" fill="#FFFFFF">
                <g transform="translate(135.000000, -4.000000)" id="Fill-1">
                    <path d="M77.8402738,52.9325307 L108.573163,52.9325307 C112.162115,52.9325307 114.854108,55.6438025 114.854108,59.2600196 L114.854108,78.4692855 C114.854108,82.0855027 112.162115,84.7975248 108.573163,84.7975248 L77.8402738,84.7975248 C74.2515083,84.7975248 71.5595152,82.0855027 71.5595152,78.4692855 L71.5595152,59.2600196 C71.5595152,55.8702264 74.7002669,52.9325307 77.8402738,52.9325307 L77.8402738,52.9325307 Z M47.108129,14.7391097 C53.8378324,9.08939188 61.68906,4.56954254 71.5595152,2.08338154 C77.39226,0.501978287 83.4490117,-0.176543131 89.2810117,0.0498807976 C89.7299566,0.501978287 91.0754876,5.47392511 93.0947152,6.37736972 C95.1139428,7.2815647 102.292405,5.02182762 105.88117,9.99358685 C107.451453,13.1571437 105.208405,14.2870123 107.226888,16.5469369 C120.686853,24.2309059 123.154094,14.7391097 128.538081,23.5531349 C130.781129,31.0106799 119.340391,29.6549502 116.424391,38.2423638 C115.526874,36.8868217 112.386867,35.0789945 111.489163,34.4004731 C102.067653,28.5250817 91.0754876,26.265157 79.4107428,29.4285263 C57.202591,35.3046681 43.9673772,57.9037272 50.024129,80.0512516 C55.85706,102.198964 78.5137841,115.080553 100.721936,109.204411 C107.226888,107.622257 115.302681,102.876735 120.014088,98.8091703 C124.051612,95.8707242 127.41637,90.8995278 130.781129,89.0909502 C130.781129,89.0909502 128.313329,92.0293963 127.865315,94.062897 C127.865315,94.062897 128.986839,94.5149945 131.005322,92.4807434 C133.02455,90.4472427 134.594832,86.605352 134.594832,86.605352 C134.370081,87.9612693 135.267784,91.3508749 131.454081,96.3228217 C129.210846,99.4869414 126.967612,101.746866 126.967612,101.746866 C127.640563,101.521192 128.986839,100.391136 131.005322,99.2605174 C132.575605,97.9047877 134.818839,94.062897 134.818839,94.062897 C134.594832,95.8707242 132.126846,103.554881 128.986839,107.17091 C124.051612,114.176358 117.99486,118.470346 117.99486,118.470346 C114.854108,120.955944 111.713915,122.990195 105.657163,124.798023 C71.7842669,133.837534 37.0136669,113.724073 27.8161634,80.0512516 C25.572929,72.141609 25.572929,63.1020979 26.2456945,54.513934 C26.2456945,54.513934 20.1889428,58.3558247 12.7864738,58.3558247 C5.1592531,58.3558247 1.86206897e-05,52.0283357 1.86206897e-05,45.2485617 C1.86206897e-05,38.6946489 7.62723931,29.8806238 7.62723931,30.1070477 C7.62723931,30.5583948 7.17848069,37.5645928 14.132191,37.7902663 C28.2649221,36.4347242 35.2193772,25.3607744 46.2106117,16.0955898 L47.108129,14.7391097 Z"></path>
                </g>
            </g>
        </g>
    </g>
</svg>