<?xml version="1.0" encoding="UTF-8"?>
<svg width="294px" height="121px" viewBox="0 0 294 121" version="1.1" xmlns="http://www.w3.org/2000/svg" xmlns:xlink="http://www.w3.org/1999/xlink">
    <!-- Generator: Sketch 53.2 (72643) - https://sketchapp.com -->
    <title>中国工商银行 copy 6</title>
    <desc>Created with Sketch.</desc>
    <defs>
        <linearGradient x1="-1.26857384%" y1="42.3079324%" x2="134.750118%" y2="61.0559408%" id="linearGradient-1">
            <stop stop-color="#FF4545" offset="0%"></stop>
            <stop stop-color="#F72525" offset="100%"></stop>
        </linearGradient>
        <rect id="path-2" x="0" y="0" width="283" height="111" rx="4"></rect>
        <filter x="-3.0%" y="-5.9%" width="106.0%" height="115.3%" filterUnits="objectBoundingBox" id="filter-4">
            <feMorphology radius="0.5" operator="dilate" in="SourceAlpha" result="shadowSpreadOuter1"></feMorphology>
            <feOffset dx="0" dy="2" in="shadowSpreadOuter1" result="shadowOffsetOuter1"></feOffset>
            <feGaussianBlur stdDeviation="2" in="shadowOffsetOuter1" result="shadowBlurOuter1"></feGaussianBlur>
            <feColorMatrix values="0 0 0 0 0   0 0 0 0 0   0 0 0 0 0  0 0 0 0.0757755888 0" type="matrix" in="shadowBlurOuter1"></feColorMatrix>
        </filter>
    </defs>
    <g id="Page-1" stroke="none" stroke-width="1" fill="none" fill-rule="evenodd">
        <g id="中国工商银行-copy-6" transform="translate(5.000000, 2.000000)">
            <g id="分组-24" transform="translate(0.500000, 0.007886)">
                <g id="分组-11" transform="translate(0.042398, 0.914062)">
                    <mask id="mask-3" fill="white">
                        <use xlink:href="#path-2"></use>
                    </mask>
                    <g id="Mask">
                        <use fill="black" fill-opacity="1" filter="url(#filter-4)" xlink:href="#path-2"></use>
                        <use fill="url(#linearGradient-1)" fill-rule="evenodd" xlink:href="#path-2"></use>
                    </g>
                    <circle id="Oval" fill="#FFFFFF" mask="url(#mask-3)" cx="34.5" cy="31.5" r="13.5"></circle>
                    <path d="M170.376427,61.7975635 L170.376427,61.3388345 L192.1048,61.3388345 L192.1048,51.5714353 L170.376427,51.5714353 L170.376427,22.7628919 L202.295099,22.7628919 L202.295099,32.0900197 L180.566725,32.0900197 L180.566725,41.8617619 L202.295099,41.8617619 L202.295099,70.6708482 L180.566725,70.6708482 L180.566725,81.3120944 L202.295099,81.3120944 L202.295099,90.6357841 L170.376427,90.6357841 L170.376427,61.7975635 Z M243.56768,61.7975635 L243.56768,90.6357841 L211.64557,90.6357841 L211.64557,81.3120944 L233.37322,81.3120944 L233.37322,70.6708482 L211.64557,70.6708482 L211.64557,41.8617619 L233.37322,41.8617619 L233.37322,32.0900197 L211.64557,32.0900197 L211.64557,22.7628919 L243.56768,22.7628919 L243.56768,51.5714353 L221.840031,51.5714353 L221.840031,61.3388345 L243.56768,61.3388345 L243.56768,61.7975635 Z M207,109.108901 L207,109.107453 C235.777962,109.107453 259.107453,85.7871904 259.107453,57.0014477 C259.107453,28.2166097 235.777962,4.88548966 207,4.88548966 C178.222038,4.88548966 154.892547,28.2236671 154.892547,57.0014477 C154.892547,85.7794092 178.220591,109.108901 207,109.108901 Z M207,-8 C242.902466,-8 272,21.0984385 272,57 C272,92.9026473 242.902466,122 207,122 C171.098258,122 142,92.9026473 142,57 C142,21.0984385 171.098258,-8 207,-8 Z" id="Combined-Shape" fill="#FFFFFF" opacity="0.200000003" mask="url(#mask-3)"></path>
                    <path d="M28.5838844,32.274991 L28.5838844,32.2008886 L32.0938524,32.2008886 L32.0938524,30.623078 L28.5838844,30.623078 L28.5838844,25.9693902 L33.7399775,25.9693902 L33.7399775,27.4760801 L30.2300095,27.4760801 L30.2300095,29.0545923 L33.7399775,29.0545923 L33.7399775,33.7083678 L30.2300095,33.7083678 L30.2300095,35.4273383 L33.7399775,35.4273383 L33.7399775,36.9334728 L28.5838844,36.9334728 L28.5838844,32.274991 Z M40.4070868,32.274991 L40.4070868,36.9334728 L35.2504383,36.9334728 L35.2504383,35.4273383 L38.7602894,35.4273383 L38.7602894,33.7083678 L35.2504383,33.7083678 L35.2504383,29.0545923 L38.7602894,29.0545923 L38.7602894,27.4760801 L35.2504383,27.4760801 L35.2504383,25.9693902 L40.4070868,25.9693902 L40.4070868,30.623078 L36.8972357,30.623078 L36.8972357,32.2008886 L40.4070868,32.2008886 L40.4070868,32.274991 Z M34.5,39.9175916 L34.5,39.9173578 C39.1487476,39.9173578 42.9173578,36.1502384 42.9173578,31.5002339 C42.9173578,26.8503754 39.1487476,23.0815022 34.5,23.0815022 C29.8512524,23.0815022 26.0826422,26.8515155 26.0826422,31.5002339 C26.0826422,36.1489815 29.8510185,39.9175916 34.5,39.9175916 Z M34.5,21 C40.2996292,21 45,25.700517 45,31.5 C45,37.2996584 40.2996292,42 34.5,42 C28.7004878,42 24,37.2996584 24,31.5 C24,25.700517 28.7004878,21 34.5,21 Z" id="Combined-Shape-Copy" fill="#FE3F3F" mask="url(#mask-3)"></path>
                </g>
                <text id="工商银行" font-family="PingFangSC-Regular, PingFang SC" font-size="18" font-weight="normal" letter-spacing="-0.4341177" fill="#FFFFFF">
                    <tspan x="52.0097295" y="39">工商银行</tspan>
                </text>
            </g>
        </g>
    </g>
</svg>