<?xml version="1.0" encoding="UTF-8"?>
<svg width="293px" height="121px" viewBox="0 0 293 121" version="1.1" xmlns="http://www.w3.org/2000/svg" xmlns:xlink="http://www.w3.org/1999/xlink">
    <!-- Generator: Sketch 53.2 (72643) - https://sketchapp.com -->
    <title>Group 18</title>
    <desc>Created with Sketch.</desc>
    <defs>
        <linearGradient x1="-1.26857384%" y1="42.3079324%" x2="134.750118%" y2="61.0559408%" id="linearGradient-1">
            <stop stop-color="#3F82F5" offset="0%"></stop>
            <stop stop-color="#2538F7" offset="100%"></stop>
        </linearGradient>
        <rect id="path-2" x="0" y="0" width="283" height="111" rx="4"></rect>
        <filter x="-3.0%" y="-5.9%" width="106.0%" height="115.3%" filterUnits="objectBoundingBox" id="filter-4">
            <feMorphology radius="0.5" operator="dilate" in="SourceAlpha" result="shadowSpreadOuter1"></feMorphology>
            <feOffset dx="0" dy="2" in="shadowSpreadOuter1" result="shadowOffsetOuter1"></feOffset>
            <feGaussianBlur stdDeviation="2" in="shadowOffsetOuter1" result="shadowBlurOuter1"></feGaussianBlur>
            <feColorMatrix values="0 0 0 0 0   0 0 0 0 0   0 0 0 0 0  0 0 0 0.0757755888 0" type="matrix" in="shadowBlurOuter1"></feColorMatrix>
        </filter>
    </defs>
    <g id="Page-1" stroke="none" stroke-width="1" fill="none" fill-rule="evenodd">
        <g id="Group-18" transform="translate(5.000000, 3.000000)">
            <g id="Fill-1-Copy-9">
                <mask id="mask-3" fill="white">
                    <use xlink:href="#path-2"></use>
                </mask>
                <g id="Mask">
                    <use fill="black" fill-opacity="1" filter="url(#filter-4)" xlink:href="#path-2"></use>
                    <use fill="url(#linearGradient-1)" fill-rule="evenodd" xlink:href="#path-2"></use>
                </g>
                <g id="Group-3" mask="url(#mask-3)" fill="#FFFFFF" opacity="0.200000003">
                    <g transform="translate(141.000000, 1.000000)" id="Fill-1">
                        <path d="M28.2666884,42.4848989 C35.136935,36.561141 44.1668025,33.7965239 53,35.1789144 C51.0368862,31.0325625 43.3812636,18 26.3035746,18 C10.6001304,18 0,32.0197735 0,45.0516804 L0,93.4291189 C0,95.4043605 0.785538828,97.1811109 2.35563884,98.3663214 L16.2929649,109.226298 C16.2929649,109.226298 19.04064,111.5959 19.04064,108.041252 L19.04064,62.823446 C19.04064,54.925102 22.3776728,47.6191175 28.2666884,42.4848989 M130,16.5323658 C130,14.5623329 129.01844,12.7891889 127.644354,11.6073654 L113.7078,0.7716124 C113.7078,0.7716124 110.959302,-1.59187102 110.959302,1.95408999 L110.959302,46.2799109 C110.959302,53.963317 107.622421,61.4491802 101.733388,66.57156 C94.8631199,72.4816585 85.8332247,75.2392466 77,73.8608614 C78.9629569,77.9974888 86.6187659,91 103.696345,91 C119.399837,91 130,77.0125542 130,64.010043 L130,16.5323658 M84.7662105,41.2073873 L85.159661,40.8137872 C93.6202343,33.9304379 103.654936,34.52043 107,35.1102588 C105.622515,31.1768697 99.5228079,18 81.6176268,18 C73.550994,18 66.0736385,21.7369971 60.9582925,28.0305176 C57.6133919,32.3573435 55.4493327,37.4703901 55.0555556,42.9775266 C53.6780706,58.7109196 45.2171707,66.1842609 44.2332995,66.9711346 C38.1340823,72.2812262 29.8703159,74.4443127 22,72.8712182 C23.5741285,77.001489 30.2639297,90.5717955 48.1691108,89.9813137 C55.2521991,89.7849218 61.9421637,86.8349616 66.8608661,81.721262 C72.7636031,75.8211784 73.9444444,66.7747427 74.1409247,64.0211745 C75.5184096,50.6472598 82.0112406,43.7639106 84.7662105,41.2073873"></path>
                    </g>
                </g>
            </g>
            <circle id="Oval-Copy-9" fill="#FFFFFF" cx="34.5" cy="31.5" r="13.5"></circle>
            <path d="M29.2666699,29.4598227 C30.3036883,28.6227699 31.6666872,28.2321175 33,28.4274553 C32.7036809,27.8415577 31.5481153,26 28.9703509,26 C26.6000197,26 25,27.981055 25,29.8225201 L25,36.6584624 C25,36.9375727 25.1185719,37.1886352 25.3555681,37.3561106 L27.4593155,38.8906726 C27.4593155,38.8906726 27.8740589,39.2255076 27.8740589,38.7232204 L27.8740589,32.3337478 C27.8740589,31.2176775 28.3777619,30.1853101 29.2666699,29.4598227 M44,26.3617665 C44,26.0803333 43.85184,25.827027 43.6444308,25.6581951 L41.5408,24.1102303 C41.5408,24.1102303 41.1259323,23.7725899 41.1259323,24.2791557 L41.1259323,30.6114158 C41.1259323,31.7090453 40.6222523,32.7784543 39.7333415,33.5102229 C38.69632,34.3545226 37.3333169,34.7484638 36,34.5515516 C36.2962954,35.1424984 37.4518892,37 40.0296369,37 C42.3999754,37 44,35.0017935 44,33.1442919 L44,26.3617665 M37.5995381,30.2232482 L37.6597129,30.1685816 C38.9536829,29.2125608 40.488402,29.2945042 41,29.3764248 C40.7893258,28.8301208 39.8564294,27 37.11799,27 C35.8842697,27 34.7406741,27.5190274 33.9583271,28.3931274 C33.4467541,28.9940755 33.1157803,29.7042209 33.0555556,30.4691009 C32.8448814,32.6542944 31.5508614,33.6922585 31.400387,33.8015465 C30.4675655,34.5390592 29.2036954,34.8394879 28,34.6210025 C28.2407491,35.1946512 29.2638951,37.079416 32.0023346,36.9974047 C33.0856305,36.970128 34.1088015,36.5604113 34.8610736,35.8501753 C35.7638452,35.0307192 35.9444444,33.7742698 35.9744944,33.3918298 C36.1851685,31.5343416 37.1781897,30.5783209 37.5995381,30.2232482" id="Fill-1-Copy-5" fill="#2D4EF7"></path>
            <text id="浦发银行" font-family="PingFangSC-Regular, PingFang SC" font-size="18" font-weight="normal" letter-spacing="-0.4341177" fill="#FFFFFF">
                <tspan x="52" y="38">浦发银行</tspan>
            </text>
        </g>
    </g>
</svg>