<?xml version="1.0" encoding="utf-8"?>
<!-- Generator: Adobe Illustrator 21.0.0, SVG Export Plug-In . SVG Version: 6.00 Build 0)  -->
<svg version="1.1" id="图层_1" xmlns="http://www.w3.org/2000/svg" xmlns:xlink="http://www.w3.org/1999/xlink" x="0px" y="0px"
	 viewBox="0 0 32 32" style="enable-background:new 0 0 32 32;" xml:space="preserve">
<g>
	<g>
		<path style="fill:#09AAF0;" d="M31,21.569V6.792C31,3.584,28.431,1,25.208,1H6.792C3.569,1,1,3.569,1,6.792v18.475
			C1,28.431,3.569,31,6.792,31h18.475c2.822,0,5.228-2.064,5.703-4.752c-1.545-0.639-8.183-3.52-11.614-5.183
			c-2.614,3.208-5.406,5.139-9.564,5.139s-6.98-2.569-6.639-5.703c0.208-2.064,1.634-5.436,7.753-4.797
			c3.208,0.297,4.678,0.906,7.322,1.753c0.683-1.248,1.247-2.614,1.678-4.069H8.248v-1.203h5.822v-2.05H7V8.842h7.069v-3
			c0,0,0.089-0.475,0.594-0.475h2.866v3.475h7.455v1.292h-7.5v2.064h6.134c-0.564,2.272-1.411,4.366-2.48,6.253
			C22.906,19.089,31,21.569,31,21.569 M9.317,24.183c-4.366,0-5.094-2.747-4.842-3.906c0.208-1.158,1.5-2.658,3.936-2.658
			c2.792,0,5.317,0.728,8.361,2.183C14.589,22.564,11.975,24.183,9.317,24.183"/>
	</g>
</g>
</svg>
