<?xml version="1.0" encoding="UTF-8"?>
<svg width="20px" height="19px" viewBox="0 0 20 19" version="1.1" xmlns="http://www.w3.org/2000/svg" xmlns:xlink="http://www.w3.org/1999/xlink">
    <!-- Generator: Sketch 54.1 (76490) - https://sketchapp.com -->
    <title>goumai</title>
    <desc>Created with Sketch.</desc>
    <g id="页面1" stroke="none" stroke-width="1" fill="none" fill-rule="evenodd">
        <g id="iPhone-XS复制-2" transform="translate(-105.000000, -1219.000000)" fill="#4B16FF">
            <g id="编组-18" transform="translate(0.000000, 1197.000000)">
                <g id="goumai" transform="translate(105.000000, 22.000000)">
                    <path d="M17.3053986,18.9999448 L2.68727273,18.9999448 C1.88844755,18.9999448 1.22551049,18.4095385 1.1448951,17.626209 L0.00808391608,6.619418 C-0.0366153846,6.1900566 0.106433566,5.76014369 0.399916084,5.4396807 C0.693286713,5.11954862 1.11275524,4.93589115 1.55037762,4.93589115 L18.4418741,4.93589115 C18.8798042,4.93589115 19.2992727,5.11965893 19.5927552,5.43990131 C19.8861538,5.76025399 20.0292867,6.19027721 19.9845874,6.619418 L18.8476923,17.626209 C18.7673846,18.4092075 18.1041399,18.9999448 17.3053986,18.9999448 Z M1.55037762,6.4646328 L2.68727273,17.4716168 L2.68760839,17.4716168 L2.68760839,17.472389 L17.3053986,17.4713135 L18.4422098,6.4646328 L1.55037762,6.4646328 Z" id="Fill-1"></path>
                    <path d="M13.7178741,8.181582 C13.2897622,8.181582 12.9426294,7.83936139 12.9426294,7.41719739 L12.9426294,2.30170247 C12.9426294,1.88008999 12.5946294,1.53731785 12.1672727,1.53731785 L7.82528671,1.53731785 C7.39795804,1.53731785 7.05004196,1.88008999 7.05004196,2.30170247 L7.05004196,7.41719739 C7.05004196,7.83936139 6.70290909,8.181582 6.27468531,8.181582 C5.84648951,8.181582 5.49935664,7.83936139 5.49935664,7.41719739 L5.49935664,2.30170247 C5.49935664,1.03719594 6.54271329,0.00857619739 7.8253986,0.00857619739 L12.1672727,0.00857619739 C13.4498462,0.00857619739 14.4932308,1.03719594 14.4932308,2.30170247 L14.4932308,7.41719739 C14.4932308,7.83936139 14.1460979,8.181582 13.7178741,8.181582 Z" id="Fill-3"></path>
                </g>
            </g>
        </g>
    </g>
</svg>