<?xml version="1.0" encoding="UTF-8"?>
<svg width="18px" height="20px" viewBox="0 0 18 20" version="1.1" xmlns="http://www.w3.org/2000/svg" xmlns:xlink="http://www.w3.org/1999/xlink">
    <!-- Generator: Sketch 54.1 (76490) - https://sketchapp.com -->
    <title>wode (5)</title>
    <desc>Created with Sketch.</desc>
    <defs>
        <polygon id="path-1" points="0.00170616114 0.00741258741 17.979128 0.00741258741 17.979128 19.999972 0.00170616114 19.999972"></polygon>
    </defs>
    <g id="页面1" stroke="none" stroke-width="1" fill="none" fill-rule="evenodd">
        <g id="iPhone-XS复制-2" transform="translate(-326.000000, -1221.000000)">
            <g id="编组-18" transform="translate(0.000000, 1197.000000)">
                <g id="wode-(5)" transform="translate(326.000000, 24.000000)">
                    <g id="编组">
                        <mask id="mask-2" fill="white">
                            <use xlink:href="#path-1"></use>
                        </mask>
                        <g id="Clip-2"></g>
                        <path d="M16.4084645,19.999972 L1.5709763,19.999972 C0.704559242,19.999972 0,19.3100699 0,18.4620699 L0,15.3084476 C0.000113744076,14.8675524 0.192398104,14.4478601 0.52828436,14.1558881 L4.85778199,10.3923636 C3.81921327,9.21468531 3.29547867,7.59362238 3.20428436,6.70693706 C3.1058673,5.74855944 3.04165877,3.33848951 4.57953555,1.66453147 C5.58989573,0.564979021 7.06925118,0.00741258741 8.97656872,0.00741258741 C10.9941896,0.00741258741 12.5411659,0.597118881 13.5747583,1.76002797 C15.1541801,3.5366993 14.956891,6.01493706 14.8588152,6.73205594 C14.6625498,8.16509091 14.0472796,9.49516084 13.1641137,10.4483077 L17.4481706,14.1546014 L17.4484834,14.1547972 C17.7857346,14.446993 17.9790142,14.8675524 17.979128,15.3095385 L17.979128,18.4620699 C17.979128,19.3100699 17.2745403,19.999972 16.4084645,19.999972 Z M8.97656872,1.54531469 C7.53,1.54531469 6.44098578,1.93244755 5.73941232,2.69566434 C4.62184834,3.91222378 4.68216114,5.79773427 4.76004739,6.55208392 C4.84666351,7.39541259 5.45661611,9.01451748 6.49140284,9.81303497 C6.67390521,9.95398601 6.78332701,10.1673846 6.79020853,10.3955245 C6.79720379,10.6237762 6.7005782,10.8430769 6.52652133,10.9941818 L1.56341232,15.3082238 L1.56341232,18.4620699 L16.4084645,18.4620699 L16.4156872,15.3093147 L11.4816114,11.0407273 C11.3055355,10.8885315 11.2081137,10.6664895 11.2163318,10.4360559 C11.2246635,10.2056224 11.3377536,9.99102098 11.5243507,9.8514965 C12.6168057,9.03351049 13.1626635,7.59776224 13.3091659,6.52707692 C13.3633649,6.13197203 13.5733081,4.09471329 12.3981043,2.77227972 C11.6743223,1.95812587 10.5232038,1.54531469 8.97656872,1.54531469 Z" id="Fill-1" fill="#4B16FF" mask="url(#mask-2)"></path>
                    </g>
                </g>
            </g>
        </g>
    </g>
</svg>