<svg width="20" height="19" xmlns="http://www.w3.org/2000/svg"><g fill="none" fill-rule="evenodd"><path d="M17.305 19H2.687c-.799 0-1.461-.59-1.542-1.374L.008 6.62C-.037 6.19.106 5.76.4 5.44c.293-.32.713-.503 1.15-.503h16.892c.438 0 .857.184 1.15.504.294.32.437.75.393 1.18l-1.137 11.006A1.537 1.537 0 0117.305 19zM1.55 6.465l1.137 11.007h14.618l1.137-11.007H1.55z" fill="#565656"/><path d="M13.718 8.182a.77.77 0 01-.775-.765V2.302a.77.77 0 00-.776-.765H7.825a.77.77 0 00-.775.765v5.115a.77.77 0 01-.775.765.77.77 0 01-.776-.765V2.302C5.5 1.037 6.543.009 7.825.009h4.342c1.283 0 2.326 1.028 2.326 2.293v5.115a.77.77 0 01-.775.765z" fill="#565656"/><path d="M14.648 14.032H5.344v1.146a.77.77 0 00.776.765h7.753a.77.77 0 00.776-.765v-1.146z" fill="#4B16FF"/></g></svg>