<svg width="20" height="19" xmlns="http://www.w3.org/2000/svg" xmlns:xlink="http://www.w3.org/1999/xlink"><defs><path id="a" d="M0 .025h19.993v18.52H0z"/></defs><g fill="none" fill-rule="evenodd"><g><mask id="b" fill="#fff"><use xlink:href="#a"/></mask><path d="M16.002 18.546H3.989a1.56 1.56 0 01-1.52-1.198L.044 7.29c-.14-.581.058-1.18.515-1.565A1.555 1.555 0 012.19 5.49l3.156 1.378 2.036-2.444a2.957 2.957 0 01-.355-1.129c-.09-.87.202-1.728.803-2.355A2.955 2.955 0 019.981.025a2.946 2.946 0 012.153.937c.593.63.877 1.49.78 2.356a2.941 2.941 0 01-.352 1.107l2.036 2.445 3.21-1.389a1.554 1.554 0 011.627.24c.456.383.653.982.513 1.562l-2.426 10.065a1.56 1.56 0 01-1.52 1.198zM1.575 6.9l-.036.03 2.425 10.058 12.038.02 2.451-10.085-.34-.736.305.706L14.68 8.51a.768.768 0 01-.896-.214l-2.782-3.34a.77.77 0 01.021-1.008c.203-.224.328-.5.362-.8a1.42 1.42 0 00-1.408-1.585 1.417 1.417 0 00-1.421 1.573c.032.307.154.58.363.812a.769.769 0 01.02 1.007L6.16 8.295a.768.768 0 01-.899.213L1.575 6.9z" fill="#565656" mask="url(#b)"/></g><path d="M6.595 15.821H5.287L3.94 10.44h1.307c.34 0 .702.344.808.769l.963 3.844c.106.425-.083.77-.422.77z" fill="#4B16FF"/></g></svg>
