<svg width="18" height="20" xmlns="http://www.w3.org/2000/svg" xmlns:xlink="http://www.w3.org/1999/xlink"><defs><path id="a" d="M.002.007h17.977V20H.002z"/></defs><g fill="none" fill-rule="evenodd"><g><mask id="b" fill="#fff"><use xlink:href="#a"/></mask><path d="M16.408 20H1.571C.705 20 0 19.31 0 18.462v-3.154c0-.44.192-.86.528-1.152l4.33-3.764C3.819 9.215 3.295 7.594 3.204 6.707c-.098-.958-.162-3.369 1.376-5.042C5.59.565 7.07.007 8.977.007c2.017 0 3.564.59 4.598 1.753 1.58 1.777 1.382 4.255 1.284 4.972-.196 1.433-.812 2.763-1.695 3.716l4.284 3.707c.338.292.531.713.531 1.155v3.152c0 .848-.704 1.538-1.57 1.538zM8.977 1.545c-1.447 0-2.536.387-3.238 1.15-1.117 1.217-1.057 3.103-.979 3.857.087.843.697 2.463 1.731 3.261a.762.762 0 01.035 1.181l-4.963 4.314v3.154h14.845l.008-3.153-4.934-4.268a.763.763 0 01.042-1.19c1.093-.817 1.639-2.253 1.785-3.324.054-.395.264-2.432-.91-3.755-.725-.814-1.876-1.227-3.422-1.227z" fill="#565656" mask="url(#b)"/></g><path d="M9.967 17.309H8.013v-3.845c0-.425.35-.769.781-.769h.391c.432 0 .782.344.782.769v3.845z" fill="#4B16FF"/></g></svg>