<?xml version="1.0" encoding="UTF-8"?>
<svg width="20px" height="19px" viewBox="0 0 20 19" version="1.1" xmlns="http://www.w3.org/2000/svg" xmlns:xlink="http://www.w3.org/1999/xlink">
    <!-- Generator: Sketch 54.1 (76490) - https://sketchapp.com -->
    <title>Fill 1</title>
    <desc>Created with Sketch.</desc>
    <g id="页面1" stroke="none" stroke-width="1" fill="none" fill-rule="evenodd">
        <g id="iPhone-XS复制-2" transform="translate(-31.000000, -1220.000000)" fill="#4B16FF">
            <g id="编组-18" transform="translate(0.000000, 1197.000000)">
                <g id="编组-4" transform="translate(27.000000, 23.000000)">
                    <g id="huangguan-(3)" transform="translate(4.000000, -0.000000)">
                        <g id="编组">
                            <path d="M16.0018462,18.5455105 L3.9893986,18.5455105 C3.264,18.5455105 2.63876923,18.0528112 2.46909091,17.3477203 L0.0442517483,7.28959441 C-0.0957202797,6.70875524 0.101734266,6.10931469 0.559440559,5.72511888 C1.01748252,5.34083916 1.64193007,5.2507972 2.19012587,5.48987413 L5.34637762,6.86794406 L7.38176224,4.424 C7.1899021,4.07795804 7.06937063,3.69616783 7.02732867,3.29496503 C6.93641958,2.42497902 7.22934266,1.56668531 7.8300979,0.939944056 C8.3951049,0.350461538 9.15918881,0.0255104895 9.98109091,0.024951049 C10.8056224,0.0286713287 11.5686154,0.361594406 12.1337343,0.962125874 C12.7265175,1.5926993 13.0108252,2.45118881 12.9139021,3.31823776 C12.8704056,3.71146853 12.7505455,4.08581818 12.5620699,4.42531469 L14.5982378,6.86979021 L17.8074685,5.48148252 C18.3544615,5.24413986 18.9781538,5.33602797 19.4351049,5.72011189 C19.8912727,6.10416783 20.0880559,6.70304895 19.9483077,7.28316084 L17.5220699,17.3480559 C17.3523916,18.0528112 16.7271608,18.5455105 16.0018462,18.5455105 Z M1.57507692,6.89952448 L1.53944056,6.92911888 L3.96416783,16.9875804 L16.0017343,17.0074685 L18.4532308,6.92268531 L18.1126434,6.18721678 L18.4179301,6.89286713 L14.680951,8.50965035 C14.3681119,8.6459021 14.0031608,8.55806993 13.7846434,8.29616783 L11.0027413,4.95655944 C10.7576503,4.66187413 10.7666014,4.23158042 11.0241399,3.94769231 C11.2273846,3.72391608 11.3523916,3.44716084 11.3858182,3.14777622 C11.4323636,2.72951049 11.2967552,2.31703497 11.0136503,2.01566434 C10.7406993,1.72567832 10.3726993,1.56483916 9.97815385,1.56288112 C9.57714685,1.56307692 9.21667133,1.71574825 8.93991608,2.00453147 C8.65275524,2.30391608 8.51342657,2.71616783 8.55692308,3.13541259 C8.58925874,3.44344056 8.71132867,3.71683916 8.92002797,3.94769231 C9.1768951,4.2318042 9.18553846,4.66131469 8.94067133,4.95546853 L6.15888112,8.29560839 C5.93958042,8.55829371 5.57387413,8.64581818 5.26039161,8.50833566 L1.57507692,6.89952448 Z" id="Fill-1"></path>
                        </g>
                    </g>
                </g>
            </g>
        </g>
    </g>
</svg>