<?xml version="1.0" standalone="no"?><!DOCTYPE svg PUBLIC "-//W3C//DTD SVG 1.1//EN" "http://www.w3.org/Graphics/SVG/1.1/DTD/svg11.dtd"><svg t="1578365796155" class="icon" viewBox="0 0 1024 1024" version="1.1" xmlns="http://www.w3.org/2000/svg" p-id="22800" xmlns:xlink="http://www.w3.org/1999/xlink" width="200" height="200"><defs><style type="text/css"></style></defs><path d="M513.363515 24.543276l491.547271 491.54727-491.547271 491.54727L21.816245 516.090546 513.363515 24.543276z" fill="#EF4747" p-id="22801"></path><path d="M513.363515 1018.545939c-2.727031 0-6.135819-1.363515-8.181092-3.408789L13.635153 524.271638c-4.772304-4.772304-4.772304-11.58988 0-16.362184L505.182423 16.362184c4.772304-4.772304 11.58988-4.772304 16.362184 0l491.54727 491.54727c4.772304 4.772304 4.772304 11.58988 0 16.362184L521.544607 1015.818908c-2.727031 2.045273-5.454061 2.727031-8.181092 2.727031zM38.178429 516.090546l475.185086 475.185086L988.548602 516.090546 513.363515 40.905459 38.178429 516.090546z" fill="" p-id="22802"></path><path d="M513.363515 931.280959c-2.727031 0-6.135819-1.363515-8.181092-3.408789L101.581891 524.271638c-2.045273-2.045273-3.408788-4.772304-3.408788-8.181092 0-2.727031 1.363515-6.135819 3.408788-8.181092l403.600532-403.600533c4.090546-4.090546 12.271638-4.090546 16.362184 0l403.600533 403.600533c4.772304 4.772304 4.772304 11.58988 0 16.362184l-403.600533 403.600532c-2.727031 2.045273-5.454061 3.408788-8.181092 3.408789zM126.125166 516.090546l387.238349 387.238349 387.238349-387.238349-387.238349-387.238349-387.238349 387.238349z" fill="#F6D86A" p-id="22803"></path><path d="M379.057257 424.73502c9.544607 0 19.089214 0 29.315579-0.681758s19.089214 2.045273 25.906791 8.181092c4.772304-0.681758 6.817577 1.363515 7.499334 5.454061 0.681758 4.090546 1.363515 8.181092 2.727031 11.589881-3.408788 2.045273-6.135819 5.454061-7.499334 8.862849-1.363515 3.408788-2.727031 6.135819-4.772304 8.181092-5.454061 12.271638-12.271638 23.861518-20.452729 34.76964-8.181092 10.908123-14.316911 23.17976-19.089215 36.133156 9.544607 7.499334 14.316911 16.362184 14.998669 26.588549 0.681758 10.226365 1.363515 21.134487 2.72703 32.04261 0.681758 4.090546 0 8.181092-0.681757 12.953395-1.363515 4.090546-0.681758 8.181092 0.681757 11.58988-1.363515 4.090546-2.045273 8.86285-2.72703 13.635154 0 4.772304-1.363515 9.544607-2.045273 14.31691 0.681758 5.454061 0 10.908123-2.045273 16.362184-2.045273 5.454061-2.045273 10.226365 0 14.998668-2.045273 6.817577-4.090546 12.953395-4.772304 20.45273-0.681758 6.817577-3.408788 12.953395-7.499334 18.407457-4.772304 0-8.181092-0.681758-12.271638-2.045273-3.408788-1.363515-6.135819-3.408788-7.499334-7.499334-4.772304-6.135819-7.499334-13.635153-8.86285-21.816245-1.363515-8.181092-4.090546-15.680426-7.499334-22.498003 4.772304-2.045273 8.181092-6.135819 9.544607-11.58988 1.363515-5.454061 3.408788-10.226365 5.454061-14.998669-0.681758-9.544607 0.681758-17.725699 3.408789-26.588548 2.727031-8.181092 3.408788-15.680426 1.363515-22.498003 6.817577-6.817577 7.499334-13.635153 2.045273-21.816245-6.817577 12.953395-13.635153 25.906791-19.770972 39.541944-6.135819 13.635153-14.316911 25.906791-25.906791 36.133156-8.86285 3.408788-14.998668 1.363515-19.770972-7.499334-4.772304-8.181092-6.135819-16.362184-4.772304-24.543276-3.408788-4.772304-4.090546-8.86285-2.72703-11.58988 1.363515-3.408788 4.090546-6.817577 6.817576-10.226365 8.181092-5.454061 13.635153-12.953395 17.043942-22.498002 2.727031-9.544607 7.499334-18.407457 12.953395-26.588549 2.045273-4.772304 3.408788-8.86285 5.454061-13.635153 2.045273-4.772304 4.772304-8.86285 8.86285-12.953396 1.363515-4.772304 4.090546-10.226365 6.817577-15.680426 3.408788-5.454061 3.408788-10.908123 0-15.680426-8.181092 2.045273-17.043941 2.727031-25.225034 2.045273-8.86285-0.681758-16.362184-3.408788-23.17976-6.817576-2.045273 0-5.454061-2.045273-8.86285-4.772304s-5.454061-6.135819-6.817576-9.544607c-1.363515-3.408788 0-4.772304 3.408788-4.772304 6.817577 3.408788 13.635153 4.090546 19.770972 2.045273 6.135819-2.045273 12.271638-5.454061 18.407457-9.544607 6.135819-4.090546 11.58988-6.817577 18.407457-8.86285 2.045273-4.090546 5.454061-6.817577 9.544607-8.181091 2.727031-4.772304 7.499334-6.817577 11.58988-8.86285z m-14.998668-112.490013c4.090546 3.408788 8.181092 5.454061 12.953395 6.817576 4.772304 1.363515 8.86285 4.090546 11.58988 7.499334 5.454061 1.363515 10.908123 2.727031 16.362184 5.454062 4.772304 2.045273 10.226365 4.772304 16.362184 6.817576 9.544607 4.772304 19.089214 11.58988 28.633821 19.770972s14.998668 17.725699 17.043942 29.31558c4.772304 9.544607 3.408788 16.362184-2.727031 20.452729-6.135819 3.408788-14.316911 4.772304-23.17976 3.408789-8.86285-1.363515-14.998668-6.135819-18.407457-13.635154-4.772304-2.045273-9.544607-5.454061-12.271638-10.226364-3.408788-4.772304-6.817577-9.544607-9.544607-13.635154-3.408788-4.090546-8.181092-6.817577-14.316911-8.181091 1.363515-10.226365-2.045273-19.089214-10.226365-26.588549 0-2.727031-2.045273-6.135819-6.135819-9.544607s-6.135819-6.817577-8.181091-9.544607c-2.727031-3.408788-2.045273-6.135819 2.045273-8.181092z m60.676431 212.026631c5.454061-1.363515 9.544607 0 13.635153 4.090546 3.408788 4.090546 7.499334 6.817577 11.58988 8.862849v45.677763c-0.681758 4.772304-0.681758 10.226365 0.681758 14.998669 1.363515 4.772304 0 8.181092-4.090546 10.226365-7.499334-3.408788-12.271638-9.544607-14.316911-17.043942-2.045273-8.181092-4.090546-14.998668-7.499334-21.816245 0-1.363515 1.363515-3.408788 4.772304-6.817576 3.408788-3.408788 4.090546-8.181092 3.408788-13.635154 1.363515-4.772304 0.681758-9.544607-2.727031-12.953395-2.727031-3.408788-4.772304-7.499334-5.454061-11.58988z m94.764314-200.436751c4.090546 0 7.499334 2.727031 9.544607 6.817576s4.772304 7.499334 8.181092 10.908123c7.499334-0.681758 14.316911-2.045273 21.816245-4.090546 6.817577-2.045273 14.316911-2.727031 22.498003-2.727031 8.86285 0 18.407457 1.363515 27.952064 3.408789 9.544607 2.045273 17.043941 6.817577 23.17976 13.635153 4.090546 5.454061 4.772304 9.544607 2.045273 12.953395-2.727031 3.408788-6.135819 7.499334-8.862849 11.58988-5.454061 8.181092-12.271638 14.316911-20.45273 19.089215-8.181092 4.772304-15.680426 10.908123-23.861518 17.043941-3.408788 2.727031-8.181092 6.135819-13.635153 10.226365-5.454061 3.408788-7.499334 7.499334-6.135819 11.58988 9.544607-3.408788 20.45273-5.454061 32.04261-6.817576 11.58988-1.363515 21.134487 2.727031 27.952064 11.58988 3.408788 10.226365 2.727031 19.770972-2.045273 29.997337s-10.908123 17.725699-19.089215 23.861518c-4.772304 6.817577-10.908123 11.58988-18.407456 13.635153-6.817577 2.045273-12.953395 6.135819-18.407457 10.908122-4.090546-1.363515-7.499334 0-11.58988 3.408789-3.408788 3.408788-3.408788 5.454061 1.363515 6.817576 14.316911-2.727031 28.633822-4.772304 42.268975-7.499334 13.635153-2.045273 27.952064-3.408788 43.63249-2.727031 4.090546-2.045273 8.86285-3.408788 14.316911-2.72703 5.454061 0.681758 9.544607 0.681758 13.635153 0 10.226365 0.681758 19.770972 2.727031 28.633821 6.817576 8.181092 0 14.998668 2.727031 20.45273 8.181092 5.454061 5.454061 9.544607 11.58988 12.271638 18.407457 2.045273 3.408788 2.045273 6.817577 1.363515 10.226365-0.681758 3.408788-2.045273 6.817577-4.090546 10.226364-3.408788 5.454061-6.135819 11.58988-7.499334 18.407457-1.363515 6.817577-4.090546 12.953395-7.499334 18.407457-0.681758 9.544607-3.408788 19.089214-7.499335 27.270306-4.090546 8.181092-6.817577 17.043941-7.499334 26.588549-10.908123 14.316911-20.45273 29.315579-28.633821 43.63249-2.727031 4.090546-6.135819 6.817577-10.908123 9.544607-4.772304 2.727031-9.544607 4.090546-13.635153 4.772304-8.181092-0.681758-16.362184-4.090546-24.543276-10.908123-8.181092-6.817577-13.635153-14.316911-17.043941-23.17976-23.17976 6.135819-45.677763 11.58988-68.857523 17.043941-6.135819-2.727031-9.544607-1.363515-10.226365 3.408788-0.681758 4.772304-2.045273 9.544607-4.772304 13.635154-6.817577 4.090546-13.635153 3.408788-18.407456-2.727031s-10.226365-10.226365-15.680427-14.316911c0-2.727031-1.363515-6.135819-3.408788-8.862849s-2.727031-5.454061-1.363515-8.181092c-2.727031-4.772304-4.772304-8.86285-6.817577-13.635153s-4.090546-8.86285-8.181092-12.953396c-2.045273-6.135819-2.045273-12.953395 0-19.770972s3.408788-14.316911 2.727031-21.816245c0.681758-3.408788 1.363515-6.135819 0.681758-7.499334-0.681758-2.045273 0-4.090546 1.363515-6.817577-0.681758-9.544607 0-19.089214 2.045273-27.952064 2.045273-8.86285 4.090546-17.725699 5.454061-25.906791 2.045273-5.454061 5.454061-6.817577 9.544607-4.090545 4.090546 2.727031 6.817577 6.817577 8.181092 10.908122 6.135819-2.045273 10.908123-6.135819 14.998669-11.58988 4.090546-5.454061 6.817577-11.58988 8.862849-18.407457 4.772304-3.408788 9.544607-7.499334 15.680426-12.271638 6.135819-4.772304 10.908123-10.226365 14.316911-16.362183 15.680426-10.908123 27.952064-24.543276 36.133156-40.90546 2.727031-3.408788 2.727031-6.135819 0.681758-6.817576-2.045273-1.363515-4.772304-0.681758-8.181092 0s-4.772304 3.408788-4.772304 6.817576c-7.499334 5.454061-15.680426 10.226365-23.861518 14.998669-8.181092 4.772304-15.680426 10.226365-22.498003 16.362183-5.454061 2.727031-8.86285 1.363515-10.226364-4.772303-1.363515-6.135819-2.727031-10.908123-4.772304-14.316911 0-10.908123 3.408788-20.45273 9.544607-28.633822 6.135819-8.181092 13.635153-15.680426 22.498003-23.17976-0.681758-4.772304 0.681758-8.86285 4.090546-12.271638 3.408788-4.090546 4.090546-7.499334 1.363515-11.58988-10.908123-4.772304-18.407457-12.953395-22.498003-23.17976s-5.454061-21.134487-4.772303-32.724368c2.727031-2.045273 3.408788-3.408788 1.363515-4.090546s-3.408788-1.363515-4.090546-2.045273c-1.363515-1.363515-0.681758-2.727031 2.045273-4.772303z m24.543276 232.479361c-6.135819 0-11.58988 1.363515-16.362184 4.772303-5.454061 3.408788-10.908123 4.772304-16.362184 4.772304-6.135819-2.045273-10.908123-1.363515-14.998668 2.045273-4.090546 2.727031-4.090546 7.499334-0.681758 12.953395-0.681758 6.135819 0 11.58988 1.363516 17.043942s5.454061 9.544607 11.58988 11.58988c12.953395-4.772304 24.543276-10.226365 35.451398-17.043942 6.135819-1.363515 10.226365-4.090546 13.635153-8.181091s4.090546-8.86285 2.045273-14.316911c1.363515-5.454061 0.681758-10.226365-2.045273-14.316911-3.408788-3.408788-8.181092-3.408788-13.635153 0.681758z m-41.587217 78.40213l3.408788 19.089215c2.045273 4.772304 3.408788 9.544607 4.772304 16.362183 1.363515 6.135819 5.454061 7.499334 12.271638 3.408789 3.408788 1.363515 7.499334 1.363515 12.271637-0.681758 4.772304-2.045273 7.499334-4.772304 8.86285-9.544607 5.454061-2.045273 8.181092-6.135819 7.499334-11.58988 0-6.135819 0.681758-10.908123 2.727031-14.998669-4.090546-1.363515-8.86285-1.363515-14.316911 1.363515-5.454061 2.045273-10.226365 3.408788-14.998669 4.090546-4.772304 0.681758-8.181092-0.681758-12.271637-4.090546-3.408788-3.408788-6.817577-4.772304-10.226365-3.408788z m29.997337-104.990679l2.045273 2.045273c5.454061 0 7.499334-0.681758 5.454061-4.090546-2.045273-2.045273-4.772304-2.045273-7.499334 2.045273z m102.263648 19.089214h-12.271638c-5.454061 3.408788-12.271638 4.090546-19.089214 2.727031-6.817577-2.045273-13.635153-1.363515-19.770972 0.681758 0.681758 7.499334 4.090546 14.316911 8.862849 20.452729 4.772304 6.135819 12.271638 8.181092 21.134488 6.817577 6.817577-1.363515 12.271638-0.681758 17.725699 1.363515 5.454061 2.045273 9.544607 6.817577 11.58988 12.953396-2.045273 5.454061-6.135819 9.544607-11.58988 10.908122-5.454061 1.363515-11.58988 3.408788-17.043942 4.772304-6.135819 1.363515-10.908123 4.772304-14.998668 9.544607 0.681758 3.408788 0.681758 7.499334 0 11.58988-0.681758 4.090546-0.681758 7.499334 0 9.544607-4.090546 2.727031-5.454061 6.817577-4.772304 12.271638 0.681758 4.772304 4.090546 6.817577 9.544608 5.454061 10.908123 2.045273 18.407457-0.681758 23.861518-8.181091 5.454061-7.499334 8.86285-15.680426 10.226364-23.861518 2.727031-4.090546 4.772304-8.86285 6.135819-13.635154 1.363515-4.772304 3.408788-8.86285 6.135819-13.635153-0.681758-5.454061 0-10.908123 2.045273-16.362183 2.045273-4.772304 3.408788-10.226365 4.772304-15.680426 2.045273-8.181092 0.681758-13.635153-4.090546-17.7257-5.454061-4.090546-11.58988-4.090546-18.407457 0z" fill="#600017" p-id="22804"></path></svg>