<?xml version="1.0" encoding="UTF-8"?>
<svg width="49px" height="47px" viewBox="0 0 49 47" version="1.1" xmlns="http://www.w3.org/2000/svg" xmlns:xlink="http://www.w3.org/1999/xlink">
    <!-- Generator: Sketch 54.1 (76490) - https://sketchapp.com -->
    <title>download</title>
    <desc>Created with Sketch.</desc>
    <defs>
        <polygon id="path-1" points="0 50 50 50 50 0 0 0"></polygon>
        <polygon id="path-3" points="0 50 50 50 50 0 0 0"></polygon>
        <polygon id="path-5" points="0 50 50 50 50 0 0 0"></polygon>
        <polygon id="path-7" points="0 50 50 50 50 0 0 0"></polygon>
        <polygon id="path-9" points="0 50 50 50 50 0 0 0"></polygon>
        <polygon id="path-11" points="0 50 50 50 50 0 0 0"></polygon>
        <polygon id="path-13" points="0 50 50 50 50 0 0 0"></polygon>
        <polygon id="path-15" points="0 50 50 50 50 0 0 0"></polygon>
        <polygon id="path-17" points="0 50 50 50 50 0 0 0"></polygon>
        <polygon id="path-19" points="0 50 50 50 50 0 0 0"></polygon>
        <polygon id="path-21" points="0 50 50 50 50 0 0 0"></polygon>
        <polygon id="path-23" points="0 50 50 50 50 0 0 0"></polygon>
    </defs>
    <g id="页面1" stroke="none" stroke-width="1" fill="none" fill-rule="evenodd">
        <g id="iPhone-8复制" transform="translate(-44.000000, -814.000000)">
            <g id="download" transform="translate(43.000000, 814.000000)">
                <g id="Fill-9-Clipped">
                    <mask id="mask-2" fill="white">
                        <use xlink:href="#path-1"></use>
                    </mask>
                    <g id="path-1"></g>
                    <path d="M7.20075666,44.5204611 L32.03125,42.2535448 L31.5596318,38.28125 L6.72888383,40.5481663 C5.48311918,40.6620369 4.56993193,41.6486914 4.69980519,42.7411785 C4.82942379,43.8336656 5.95473736,44.6343316 7.20075666,44.5204611" id="Fill-9" fill="#C1384F" fill-rule="nonzero" mask="url(#mask-2)"></path>
                </g>
                <g id="Fill-10-Clipped">
                    <mask id="mask-4" fill="white">
                        <use xlink:href="#path-3"></use>
                    </mask>
                    <g id="path-1"></g>
                    <path d="M6.54342238,42.9627127 L30.46875,41.2980317 L30.1203277,39.0625 L6.19524541,40.7271809 C5.27609747,40.7911188 4.60084516,41.3472148 4.69653862,41.9613466 C4.79223209,42.5753145 5.62427444,43.0266505 6.54342238,42.9627127" id="Fill-10" fill="#FFFFFF" fill-rule="nonzero" mask="url(#mask-4)"></path>
                </g>
                <g id="Fill-11-Clipped">
                    <mask id="mask-6" fill="white">
                        <use xlink:href="#path-5"></use>
                    </mask>
                    <g id="path-1"></g>
                    <path d="M1.57415439,9.09839023 L4.93472859,43.75 C4.81150915,42.4782167 5.6796131,41.3296351 6.86387539,41.1973363 L30.46875,38.5581197 C29.2358294,25.8454856 28.3408544,16.619144 27.1079338,3.90625 L3.50330119,6.54546665 C2.3190389,6.67776537 1.45093495,7.82660695 1.57415439,9.09839023 Z" id="Fill-11" fill="#DA465F" fill-rule="nonzero" mask="url(#mask-6)"></path>
                </g>
                <g id="Fill-12-Clipped">
                    <mask id="mask-8" fill="white">
                        <use xlink:href="#path-7"></use>
                    </mask>
                    <g id="path-1"></g>
                    <polygon id="Fill-12" fill="#C1384F" fill-rule="nonzero" mask="url(#mask-8)" points="3.90625 4.01734608 4.80593712 3.90625 7.8125 38.1701539 6.91281288 38.28125"></polygon>
                </g>
                <g id="Fill-13-Clipped">
                    <mask id="mask-10" fill="white">
                        <use xlink:href="#path-9"></use>
                    </mask>
                    <g id="path-1"></g>
                    <path d="M29.1732505,46.5425657 L50,33.5527966 L47.6699678,29.6875 L26.8429691,42.6772691 C25.7980681,43.3289628 25.467378,44.7319674 26.1080745,45.7948036 L26.1080745,45.795057 C26.7487711,46.8578932 28.1281002,47.1942595 29.1732505,46.5425657" id="Fill-13" fill="#60C4C7" fill-rule="nonzero" mask="url(#mask-10)"></path>
                </g>
                <g id="Fill-14-Clipped">
                    <mask id="mask-12" fill="white">
                        <use xlink:href="#path-11"></use>
                    </mask>
                    <g id="path-1"></g>
                    <path d="M28.4683722,45.0672224 L50,32.543598 L48.1537841,29.6875 L26.6221563,42.2111245 C25.7948887,42.6920691 25.5326159,43.7302059 26.0399001,44.5146737 C26.5469267,45.2993858 27.6413623,45.5484116 28.4683722,45.0672224" id="Fill-14" fill="#FFFFFF" fill-rule="nonzero" mask="url(#mask-12)"></path>
                </g>
                <g id="Fill-15-Clipped">
                    <mask id="mask-14" fill="white">
                        <use xlink:href="#path-13"></use>
                    </mask>
                    <g id="path-1"></g>
                    <path d="M8.92468375,16.4726078 L26.6045046,46.09375 C25.9557525,45.0065501 26.2906005,43.5719855 27.3488916,42.9055117 L48.4375,29.6211422 C41.9512402,18.7540685 37.243939,10.8670736 30.7574268,0 L9.66881836,13.2841103 C8.61077961,13.9505841 8.27593164,15.3856672 8.92468375,16.4723486 L8.92468375,16.4726078 Z" id="Fill-15" fill="#73D7DA" fill-rule="nonzero" mask="url(#mask-14)"></path>
                </g>
                <g id="Fill-16-Clipped">
                    <mask id="mask-16" fill="white">
                        <use xlink:href="#path-15"></use>
                    </mask>
                    <g id="path-1"></g>
                    <polygon id="Fill-16" fill="#60C4C7" fill-rule="nonzero" mask="url(#mask-16)" points="7.8125 13.8231276 8.75701281 13.28125 27.34375 41.6456224 26.3992372 42.1875"></polygon>
                </g>
                <g id="Fill-17-Clipped">
                    <mask id="mask-18" fill="white">
                        <use xlink:href="#path-17"></use>
                    </mask>
                    <g id="path-1"></g>
                    <polygon id="Fill-17" fill="#9EE9EC" fill-rule="nonzero" mask="url(#mask-18)" points="19.53125 19.9986197 34.8793104 11.71875 36.71875 14.3761492 21.3709505 22.65625"></polygon>
                </g>
                <g id="Fill-18-Clipped">
                    <mask id="mask-20" fill="white">
                        <use xlink:href="#path-19"></use>
                    </mask>
                    <g id="path-1"></g>
                    <polygon id="Fill-18" fill="#9EE9EC" fill-rule="nonzero" mask="url(#mask-20)" points="21.09375 23.1238508 36.4418104 14.84375 38.28125 17.5013803 22.9337115 25.78125"></polygon>
                </g>
                <g id="Fill-19-Clipped">
                    <mask id="mask-22" fill="white">
                        <use xlink:href="#path-21"></use>
                    </mask>
                    <g id="path-1"></g>
                    <polygon id="Fill-19" fill="#9EE9EC" fill-rule="nonzero" mask="url(#mask-22)" points="25 30.3150213 40.0040715 21.875 40.625 22.8099788 25.6209285 31.25"></polygon>
                </g>
                <g id="Fill-20-Clipped">
                    <mask id="mask-24" fill="white">
                        <use xlink:href="#path-23"></use>
                    </mask>
                    <g id="path-1"></g>
                    <polygon id="Fill-20" fill="#9EE9EC" fill-rule="nonzero" mask="url(#mask-24)" points="25 31.8775213 40.0043266 23.4375 40.625 24.3724788 25.6209285 32.8125"></polygon>
                </g>
            </g>
        </g>
    </g>
</svg>