<?xml version="1.0" encoding="UTF-8"?>
<svg width="16px" height="19px" viewBox="0 0 16 19" version="1.1" xmlns="http://www.w3.org/2000/svg" xmlns:xlink="http://www.w3.org/1999/xlink">
    <!-- Generator: Sketch 60.1 (88133) - https://sketch.com -->
    <title>search (1)</title>
    <desc>Created with Sketch.</desc>
    <g id="页面1" stroke="none" stroke-width="1" fill="none" fill-rule="evenodd">
        <g id="iPhone-XS复制-2" transform="translate(-32.000000, -55.000000)" fill="#A7ACBE">
            <g id="编组-17" transform="translate(18.000000, 46.000000)">
                <path d="M29.847271,26.8433247 L26.6271848,22.6635958 C26.7939405,22.5216527 26.9556215,22.372623 27.1112232,22.2158143 C27.8164133,21.5050331 28.370125,20.6770849 28.7569752,19.7551474 C29.1575961,18.800255 29.3607744,17.7863262 29.3607744,16.7413873 C29.3607744,15.6965816 29.1575961,14.6826528 28.7569752,13.7278403 C28.370125,12.806036 27.8164133,11.9781678 27.1112232,11.2674132 C26.4061389,10.5566321 25.5848091,9.99853032 24.6701236,9.60858639 C23.7229275,9.2048158 22.7170008,9 21.6804929,9 C20.6438793,9 19.6380583,9.2048158 18.6906507,9.60858639 C17.776071,9.99853032 16.9547413,10.5566321 16.2495511,11.2674132 C15.5443875,11.9781678 14.9907551,12.8059294 14.6037992,13.7278403 C14.2032047,14.6827594 14,15.6965816 14,16.7413873 C14,17.7863262 14.2032047,18.800255 14.6037992,19.7551474 C14.9906494,20.6770849 15.5443875,21.5050331 16.2495511,22.2158143 C16.9546355,22.9265688 17.7759653,23.4846706 18.6906507,23.8746145 C19.6379526,24.2784916 20.6438793,24.4832009 21.6804929,24.4832009 C22.7170008,24.4832009 23.7229275,24.2784916 24.6701236,23.8746145 C24.9433187,23.7581668 25.2080558,23.6263206 25.4640176,23.4803014 L28.7291165,27.7185073 C28.9688494,28.0297805 29.4054963,28.09244 29.704277,27.8585856 L29.7404352,27.8303994 C30.0392159,27.5964384 30.087136,27.1545712 29.847271,26.8433247 Z M21.6804929,23.1746762 C18.1613088,23.1746762 15.2982317,20.2887128 15.2982317,16.7413873 C15.2982317,13.1943016 18.1613088,10.3085247 21.6804929,10.3085247 C25.1995977,10.3085247 28.0624369,13.1943016 28.0624369,16.7413873 C28.0624369,20.2887128 25.1995977,23.1746762 21.6804929,23.1746762 Z" id="search-(1)"></path>
            </g>
        </g>
    </g>
</svg>