<svg width="32" height="35" xmlns="http://www.w3.org/2000/svg" xmlns:xlink="http://www.w3.org/1999/xlink"><defs><path id="a" d="M.273.306h31.052V32.27H.273z"/><path id="c" d="M0 .306h29.87v31.285H0z"/></defs><g fill="none" fill-rule="evenodd"><g transform="translate(.421 .11)"><mask id="b" fill="#fff"><use xlink:href="#a"/></mask><path d="M13.75 32.27c1.737 0 3.195-1.767 3.89-1.835 7.364-1.02 13.685-7.074 13.685-15.303 0-9.317-7.502-14.826-15.908-14.826C7.012.306.273 6.903.273 15.132c0 7.346 5.072 13.194 12.227 14.418.834.068-.486 2.72 1.25 2.72" fill="#DAE9FF" mask="url(#b)"/></g><g transform="translate(0 .11)"><mask id="d" fill="#fff"><use xlink:href="#c"/></mask><path d="M13.754 31.59c.695 0 2.57-2.175 3.265-2.244 7.294-1.02 12.851-7.073 12.851-14.418C29.87 6.835 23.202.306 14.935.306 6.67.306 0 6.835 0 14.928c0 7.21 5.349 13.194 12.434 14.418.834.069.487 2.245 1.32 2.245" fill="#3889FF" mask="url(#d)"/></g><path d="M15.283 22.724c-.348 0-1.112-.272-1.39-.476-.278-.272 0-.408 0-.816 0-.748.278-1.633 1.042-1.633.14 0 .695.137.834.205.556.204.972.68.972 1.292-.07.748-.694 1.428-1.458 1.428m1.32-4.488c0 .68-.556 1.224-1.251 1.224-.694 0-1.806-.408-1.806-1.156 0-1.769.903-2.653 2.223-3.13h.139c1.25-.271 2.223-1.427 2.223-2.855 0-1.633-1.25-2.925-2.78-2.925-1.944 0-3.125.884-3.264 2.108-.07.68-.764 1.292-1.459 1.225-.694-.068-1.667-.34-1.598-1.02.279-2.38 2.918-5.101 6.253-5.101 2.987 0 5.626 2.448 5.626 5.508 0 2.517-1.875 5.101-4.237 5.713 0 0-.07.068-.07.409" fill="#DAE9FF"/><path d="M14.727 22.588c-.764 0-1.39-.612-1.39-1.36 0-.748.626-1.36 1.39-1.36.764 0 1.39.612 1.39 1.36 0 .748-.626 1.36-1.39 1.36m1.39-4.556c0 .68-.626 1.292-1.32 1.292-.695 0-1.32-.613-1.32-1.293 0-1.768.347-2.652 1.736-3.06h.139c1.25-.272 2.223-1.428 2.223-2.857 0-1.632-1.25-2.924-2.779-2.924-1.945 0-2.987 1.157-3.126 2.313-.069.68-.764 1.223-1.458 1.156-.695-.068-1.25-.748-1.182-1.428.278-2.381 2.363-4.557 5.766-4.557 2.987 0 5.418 2.448 5.418 5.508 0 2.517-1.666 4.693-4.029 5.305-.069 0-.069.205-.069.545" fill="#FFF"/><path d="M2.779 33.198c0 .826 5.225 1.496 11.67 1.496s11.67-.67 11.67-1.496c0-.827-5.225-1.497-11.67-1.497s-11.67.67-11.67 1.497" fill="#DAE9FF"/></g></svg>