<svg width="20" height="21" xmlns="http://www.w3.org/2000/svg"><path d="M18.374 8.535a8.502 8.502 0 00-16.748 0A2 2 0 012 8.5h3a2 2 0 012 2v5a2 2 0 01-2 2H2a2 2 0 01-2-2V10C0 4.477 4.477 0 10 0s10 4.477 10 10v5.5a2 2 0 01-2 2h-3a2 2 0 01-2-2v-5a2 2 0 012-2h3a2 2 0 01.374.035zM18.5 11a1 1 0 00-1-1h-2a1 1 0 00-1 1v4a1 1 0 001 1h2a1 1 0 001-1v-4zm-17 0v4a1 1 0 001 1h2a1 1 0 001-1v-4a1 1 0 00-1-1h-2a1 1 0 00-1 1zm9.75 8h8a.75.75 0 110 1.5h-8a1.25 1.25 0 110-1.5z" fill="#FFF" fill-rule="evenodd"/></svg>