<svg width="36" height="35" xmlns="http://www.w3.org/2000/svg" xmlns:xlink="http://www.w3.org/1999/xlink"><defs><path id="a" d="M0 .322h35.682v8.737H0z"/><path id="c" d="M.117.31h12.764v4.705H.117z"/></defs><g fill="none" fill-rule="evenodd"><g transform="translate(0 25.63)"><mask id="b" fill="#fff"><use xlink:href="#a"/></mask><path d="M4.342.322h27.25l3.446 5.175c1.34 1.949.51 3.562-1.787 3.562H2.364C.066 9.059-.7 7.513.704 5.564L4.343.322z" fill="#DAE9FF" mask="url(#b)"/></g><path d="M7.214 2.428H24.7c2.234 0 4.02 1.882 4.02 4.234v20.432c0 2.353-1.786 4.235-4.02 4.235H7.214c-2.233 0-4.02-1.882-4.02-4.235V6.662c0-2.352 1.787-4.234 4.02-4.234" fill="#DAE9FF"/><path d="M5.938 2.428h17.486c2.233 0 4.02 1.882 4.02 4.234v20.432c0 2.353-1.787 4.235-4.02 4.235H5.938c-2.234 0-4.02-1.882-4.02-4.235V6.662c0-2.352 1.786-4.234 4.02-4.234" fill="#3988FF"/><path d="M13.404 13.854h2.553c.383 0 .638.268.638.672v8.738c0 .403-.255.671-.638.671h-2.553c-.383 0-.638-.268-.638-.671v-8.738c0-.404.255-.672.638-.672m-7.02 3.36h2.553c.383 0 .638.269.638.673v5.377c0 .403-.255.671-.638.671H6.384c-.383 0-.638-.268-.638-.671v-5.377c0-.404.255-.673.638-.673" fill="#DAE9FF"/><path d="M3.832 23.263c0-.403.319-.672.638-.672h19.145c.32 0 .638.27.638.672a.656.656 0 01-.638.672H4.47c-.383 0-.638-.268-.638-.672" fill="#DAE9FF"/><path d="M20.424 9.15h2.553c.383 0 .638.268.638.671v13.442c0 .404-.255.672-.638.672h-2.553c-.383 0-.638-.268-.638-.672V9.821c0-.403.255-.672.638-.672" fill="#DAE9FF"/><path d="M19.786 9.15h2.553c.383 0 .638.268.638.671v13.442c0 .404-.255.672-.638.672h-2.553c-.383 0-.638-.268-.638-.672V9.821c0-.403.255-.672.638-.672m-7.02 4.705h2.553c.383 0 .638.269.638.672v8.737c0 .404-.255.672-.638.672h-2.553c-.382 0-.638-.268-.638-.672v-8.737c0-.403.256-.672.638-.672m-7.02 3.36H8.3c.383 0 .638.269.638.673v5.376c0 .404-.255.672-.638.672H5.746c-.382 0-.638-.268-.638-.672v-5.376c0-.404.256-.673.638-.673" fill="#FFF"/><path d="M4.47 23.263h19.145c.383 0 .638.27.638.672 0 .404-.255.673-.638.673H4.47c-.383 0-.638-.27-.638-.673s.255-.672.638-.672" fill="#FFF"/><path d="M11.107 5.789c-1.213 0-2.17-.74-2.17-1.68 0-.942.957-1.68 2.17-1.68h11.806c.128 1.41-.574 2.351-1.085 2.754-.51.404-1.212.606-1.786.606h-8.935z" fill="#093475"/><g transform="translate(8.182 .1)"><mask id="d" fill="#fff"><use xlink:href="#c"/></mask><path d="M10.775 5.016H2.223C1.075 5.016.117 4.008.117 2.73v-.134c0-1.277.958-2.285 2.106-2.285h8.552c1.148 0 2.106 1.008 2.106 2.285v.067c0 .605-.192 1.21-.639 1.613-.382.471-.893.74-1.467.74" fill="#DAE9FF" mask="url(#d)"/></g><path d="M16.595 22.39c0-1.008.766-1.815 1.723-1.815h12.764c.957 0 1.85.807 1.978 1.815 0 0 .128.873.128 1.411v6.452c0 1.008-.766 1.815-1.723 1.815H18.318c-.957 0-1.723-.807-1.723-1.815V22.39z" fill="#FFD3D7"/><path d="M17.68 20.575h12.508c.958 0 1.723.806 1.723 1.815v7.796c0 1.008-.765 1.815-1.723 1.815H17.68c-.957 0-1.723-.807-1.723-1.815V22.39c0-1.009.766-1.815 1.723-1.815" fill="#FB560A"/><path d="M19.148 30.992a.8.8 0 01-.638-.268 1.01 1.01 0 010-1.412l3.254-3.562a.93.93 0 011.213-.134l1.723 1.277 3.382-3.63c.383-.403.958-.403 1.34 0a1.01 1.01 0 010 1.412l-3.956 4.234a.93.93 0 01-1.213.135l-1.723-1.278-2.68 2.89c-.192.202-.447.336-.702.336" fill="#FFF"/><path d="M29.678 24.876c-.064.336-.32.47-.574.202l-1.532-1.546c-.255-.269-.192-.537.128-.605l1.659-.336c.319-.067.574.135.51.538l-.191 1.747z" fill="#FFF"/></g></svg>