<?xml version="1.0" encoding="UTF-8"?>
<svg width="36px" height="36px" viewBox="0 0 36 36" version="1.1" xmlns="http://www.w3.org/2000/svg" xmlns:xlink="http://www.w3.org/1999/xlink">
    <!-- Generator: Sketch 54.1 (76490) - https://sketchapp.com -->
    <title>download-6</title>
    <desc>Created with Sketch.</desc>
    <defs>
        <circle id="path-1" cx="18" cy="18" r="18"></circle>
        <path d="M2.3607745,0.708480343 C3.4252064,0.708480343 4.61001024,-0.265577747 4.8996194,0.161762853 C5.18922856,0.589103453 4.49164449,2.61769153 2.61126278,2.61769153 C0.730881075,2.61769153 -0.18609519,0.645959341 0.0314341071,0.161762853 C0.248963404,-0.322433636 1.29634261,0.708480343 2.3607745,0.708480343 Z" id="path-3"></path>
        <path d="M2.3607745,0.708480343 C3.4252064,0.708480343 4.61001024,-0.265577747 4.8996194,0.161762853 C5.18922856,0.589103453 4.49164449,2.61769153 2.61126278,2.61769153 C0.730881075,2.61769153 -0.18609519,0.645959341 0.0314341071,0.161762853 C0.248963404,-0.322433636 1.29634261,0.708480343 2.3607745,0.708480343 Z" id="path-5"></path>
    </defs>
    <g id="页面1" stroke="none" stroke-width="1" fill="none" fill-rule="evenodd">
        <g id="iPhone-XS复制-6" transform="translate(-15.000000, -46.000000)">
            <g id="download-6" transform="translate(15.000000, 46.000000)">
                <g id="Mask" fill="#D8D8D8" fill-rule="nonzero">
                    <circle id="path-1" cx="18" cy="18" r="18"></circle>
                </g>
                <g id="人-Clipped">
                    <mask id="mask-2" fill="white">
                        <use xlink:href="#path-1"></use>
                    </mask>
                    <g id="path-1"></g>
                    <g id="人" mask="url(#mask-2)">
                        <g transform="translate(4.000000, 2.000000)" id="编组-6">
                            <g transform="translate(0.261689, 0.890625)">
                                <g id="编组">
                                    <path d="M9.81919794,27.0336442 C8.1539572,27.3140331 6.85608972,27.7340705 5.92559549,28.2937563 C4.99510127,28.8534421 3.06179412,35.5412326 0.12567404,48.3571279 L3.70817234,48.6081674 L5.92559549,38.6908077 C5.413346,43.4020882 5.09562617,46.3116354 4.97243599,47.4194493 C4.78765073,49.0811702 4.97243599,50.5508233 4.97243599,50.7660975 C4.97243599,50.9813718 7.45732846,51.8512055 12.8133067,51.8512055 C16.3839589,51.8512055 17.1577308,51.8512055 15.1346223,51.8512055 L13.6334122,29.3952453 C13.1649648,29.5531404 12.582976,29.4654563 11.8874459,29.132193 C10.8441507,28.632298 10.7823168,28.5337387 10.45373,28.2937563 C10.2346722,28.1337681 10.0231615,27.7137307 9.81919794,27.0336442 Z" id="路径-37" fill="#F6E4DF" fill-rule="nonzero"></path>
                                    <path d="M20.2333768,27.0336442 C18.5681361,27.3140331 17.2702686,27.7340705 16.3397744,28.2937563 C15.4092801,28.8534421 13.475973,35.5412326 10.5398529,48.3571279 L14.1223512,48.6081674 L16.3397744,38.6908077 C15.8275249,43.4020882 15.509805,46.3116354 15.3866149,47.4194493 C15.2018296,49.0811702 15.3866149,50.5508233 15.3866149,50.7660975 C15.3866149,50.9813718 17.8715073,51.8512055 23.2274856,51.8512055 C26.7981378,51.8512055 27.5719096,51.8512055 25.5488012,51.8512055 L24.0475911,29.3952453 C23.5791436,29.5531404 22.9971548,29.4654563 22.3016247,29.132193 C21.2583296,28.632298 21.1964957,28.5337387 20.8679089,28.2937563 C20.6488511,28.1337681 20.4373404,27.7137307 20.2333768,27.0336442 Z" id="路径-37" fill="#F6E4DF" fill-rule="nonzero" transform="translate(18.593104, 39.442425) scale(-1, 1) translate(-18.593104, -39.442425) "></path>
                                    <rect id="矩形" fill="#F3B989" fill-rule="nonzero" x="10.8586957" y="26.5591398" width="5.57608696" height="2.51612903"></rect>
                                    <path d="M11.8416683,29.6367293 C11.8416683,29.6367293 12.1597942,30.788863 12.759791,31.0961442 C13.1597889,31.3009983 12.4466806,36.0213339 10.6204663,45.257151 L13.3597878,47.8579154 L15.8798604,44.6989667 L14.0944865,31.0961442 L15.1858588,29.8786227 C14.6157162,29.2840817 14.1001708,28.9868112 13.6392227,28.9868112 C12.9478005,28.9868112 11.8416683,29.6367293 11.8416683,29.6367293 Z" id="路径-40" fill="#A29194" fill-rule="nonzero"></path>
                                    <path d="M11.1804824,27.2325374 C11.1704514,27.6255005 11.3748449,27.9788306 11.7936628,28.2925277 C12.2124808,28.6062248 12.6979809,28.8449331 13.2501633,29.0086526 L10.528611,32.1558615 C9.97900803,30.9873467 9.70420653,29.938277 9.70420653,29.0086526 C9.70420653,28.0790281 9.70420653,27.3588535 9.70420653,26.8481288 L11.1804824,27.2325374 Z" id="路径-36" fill="#D9C4B6" fill-rule="nonzero"></path>
                                    <path d="M14.9552102,27.2325374 C14.9451792,27.6255005 15.1495727,27.9788306 15.5683906,28.2925277 C15.9872086,28.6062248 16.4727087,28.8449331 17.0248911,29.0086526 L14.3033388,32.1558615 C13.7537358,30.9873467 13.4789343,29.938277 13.4789343,29.0086526 C13.4789343,28.0790281 13.4789343,27.3588535 13.4789343,26.8481288 L14.9552102,27.2325374 Z" id="路径-36" fill="#D9C4B6" fill-rule="nonzero" transform="translate(15.251913, 29.501995) scale(-1, 1) translate(-15.251913, -29.501995) "></path>
                                    <path d="M23.336912,20.5884165 C24.2001552,20.7819859 24.8308421,20.5702154 25.2289726,19.9531049 C25.8261684,19.0274391 25.8261684,18.4143785 25.8261684,17.5927323 C25.8261684,16.7710861 25.5379989,15.9363353 24.8043033,15.9363353 C24.0706076,15.9363353 23.8692712,16.686053 23.6030916,17.2984195 C23.4256385,17.7066638 23.1591962,18.0395374 22.8037646,18.2970404 L23.336912,20.5884165 Z" id="路径-33" fill="#FDCC9B" fill-rule="nonzero"></path>
                                    <path d="M3.75718092,17.2354074 C3.48032545,16.6109848 3.03485373,16.2394377 2.42076575,16.1207661 C1.49963379,15.9427587 0.438067892,16.6394102 0.438067892,17.2354074 C0.438067892,17.8314047 0.682824176,19.8507784 1.88683021,20.2481553 C3.09083623,20.6455323 3.41913638,20.6662816 3.75718092,20.6559069 C4.09522546,20.6455323 4.56395954,19.7157713 4.56395954,19.7157713 C4.56395954,19.7157713 4.29503333,18.8889833 3.75718092,17.2354074 Z" id="路径-32" fill="#FDCB9C" fill-rule="nonzero"></path>
                                    <path d="M4.73134742,9.71805696 C3.56622344,15.4723552 3.35901174,19.3942512 4.10971231,21.483745 C5.23576318,24.6179856 8.06049144,27.5720346 13.9486856,27.5720346 C19.8368799,27.5720346 23.1367907,23.4085181 23.6999594,19.3826025 C24.0754052,16.6986587 24.0754052,13.4771435 23.6999594,9.71805696 C22.8544898,6.31462114 19.7666629,4.61290323 14.4364786,4.61290323 C9.10629435,4.61290323 5.87125061,6.31462114 4.73134742,9.71805696 Z" id="路径-28" fill="#FDCC9B" fill-rule="nonzero"></path>
                                    <g id="编组-4" transform="translate(5.754359, 12.279325)" fill-rule="nonzero">
                                        <ellipse id="椭圆形" fill="#53301B" cx="1.40887507" cy="4.45558384" rx="1" ry="1.25806452"></ellipse>
                                        <ellipse id="椭圆形复制" fill="#53301B" cx="14.1974626" cy="4.45558384" rx="1" ry="1.25806452"></ellipse>
                                        <path d="M2.8256815,0.847248408 C2.63770781,1.07388704 1.86342246,0.875369208 1.36574179,1.11357695 C0.868061127,1.3517847 0.594931457,2.07610005 0.365651565,2.07610005 C0.136371674,2.07610005 -0.327633506,1.31874958 0.365651565,0.46993826 C1.05893664,-0.378873064 2.37679446,0.159380884 2.53277644,0.269918834 C2.68875841,0.380456783 3.01365518,0.620609778 2.8256815,0.847248408 Z" id="路径-30" fill="#53301A"></path>
                                        <path d="M13.2214467,1.51313802 C13.3839488,1.69496766 14.1214419,1.33130839 14.5926121,1.51313802 C15.0637823,1.69496766 15.4971213,2.31546812 15.7837212,2.31546812 C16.070321,2.31546812 15.9749549,1.36283497 15.6336861,1.03805003 C15.2924173,0.713265083 15.1102831,0.571842032 14.4634989,0.642553557 C13.8167146,0.713265083 13.0589446,1.33130839 13.2214467,1.51313802 Z" id="路径-31" fill="#53301B"></path>
                                    </g>
                                    <path d="M3.84983409,18.7826466 C4.4511206,18.7826466 4.34421886,9.06486265 5.22035464,9.06486265 C6.09649042,9.06486265 9.97074739,10.8367461 16.0415057,10.8367461 C20.0886779,10.8367461 22.5991017,10.2461183 23.5727769,9.06486265 C23.9307402,11.1791555 23.9909978,12.8889501 23.7535498,14.1942467 C23.3973778,16.1521915 23.2672615,18.7743878 23.5727769,18.9947812 C23.8782924,19.2151745 23.6706673,16.4499853 24.3149665,16.0924689 C24.7444993,15.8541247 25.1405401,15.8999233 25.5030889,16.229865 C25.7184752,13.2982943 25.8261684,10.9856543 25.8261684,9.29194493 C25.8261684,7.59823554 24.9268896,6.00121983 23.1283322,4.50089781 C23.1845535,2.92504095 22.9726368,1.86377653 22.4925821,1.31710454 C21.7724999,0.497096564 20.629253,-0.398673765 16.7844442,0.45921539 C12.9396354,1.31710454 7.08576151,1.80348517 4.65919211,3.97684077 C3.04147917,5.4257445 2.63228622,6.80696265 3.43161324,8.12049521 C2.76092179,8.54538585 2.35497697,9.02624537 2.21377877,9.56307375 C2.00198147,10.3683163 1.54929698,15.1107663 2.05335449,16.2885637 C2.557412,17.4663611 3.24854757,18.7826466 3.84983409,18.7826466 Z" id="路径-29" fill="#533018" fill-rule="nonzero"></path>
                                    <g id="椭圆形" transform="translate(11.330446, 21.405341)">
                                        <g id="蒙版" fill="#4E0A01" fill-rule="nonzero">
                                            <path d="M2.3607745,0.708480343 C3.4252064,0.708480343 4.61001024,-0.265577747 4.8996194,0.161762853 C5.18922856,0.589103453 4.49164449,2.61769153 2.61126278,2.61769153 C0.730881075,2.61769153 -0.18609519,0.645959341 0.0314341071,0.161762853 C0.248963404,-0.322433636 1.29634261,0.708480343 2.3607745,0.708480343 Z" id="path-3"></path>
                                        </g>
                                        <g id="Clipped">
                                            <mask id="mask-4" fill="white">
                                                <use xlink:href="#path-3"></use>
                                            </mask>
                                            <g id="path-3"></g>
                                            <ellipse id="椭圆形" fill="#FFFFFF" fill-rule="nonzero" mask="url(#mask-4)" cx="2.48136815" cy="-0.105200716" rx="1.85114852" ry="1.29264875"></ellipse>
                                        </g>
                                        <g id="Clipped">
                                            <mask id="mask-6" fill="white">
                                                <use xlink:href="#path-5"></use>
                                            </mask>
                                            <g id="path-3"></g>
                                            <ellipse id="椭圆形" fill="#EB877A" fill-rule="nonzero" mask="url(#mask-6)" cx="2.48136815" cy="2.61769153" rx="2.06316077" ry="1.29264875"></ellipse>
                                        </g>
                                    </g>
                                    <path d="M12.7478903,17.9895962 C12.7478903,17.9895962 12.3730177,18.7687198 12.3730177,19.0216705 C12.3730177,19.1903043 12.7416568,19.524728 13.4789349,20.0249415 C12.788898,19.7678955 12.357183,19.5364222 12.1837901,19.3305215 C11.9237007,19.0216705 12.7478903,17.9895962 12.7478903,17.9895962 Z" id="路径-34" fill="#F0BF8F" fill-rule="nonzero"></path>
                                </g>
                            </g>
                        </g>
                    </g>
                </g>
            </g>
        </g>
    </g>
</svg>