<?xml version="1.0" encoding="utf-8"?>
<!-- Generator: Adobe Illustrator 21.0.0, SVG Export Plug-In . SVG Version: 6.00 Build 0)  -->
<svg version="1.1" id="图层_1" xmlns="http://www.w3.org/2000/svg" xmlns:xlink="http://www.w3.org/1999/xlink" x="0px" y="0px"
	 viewBox="0 0 32 32" style="enable-background:new 0 0 32 32;" xml:space="preserve">
<style type="text/css">
</style>
<g>
	<g>E72E16
		<defs>
			<rect id="SVGID_1_" x="1.855" y="0" width="27.09" height="32"/>
		</defs>
		<clipPath id="SVGID_2_">
			<use xlink:href="#SVGID_1_"  style="overflow:visible;"/>
		</clipPath>
		<path style="fill:#E72E16;"    d="M16.127,9.769c0.023-0.095,0.095-0.171,0.189-0.198c2.862-1.056,6.059-0.654,8.571,1.077
			c2.512,1.731,4.025,4.576,4.058,7.626v0.039c0.049,6.509-4.54,12.133-10.927,13.391c-6.387,1.258-12.765-2.206-15.188-8.247
			C0.407,17.415,2.624,10.504,8.111,7c0.044-0.024,0.077-0.065,0.09-0.113c0.013-0.048,0.006-0.1-0.021-0.143
			C5.189,5.811,2.906,3.379,2.164,0.335c-0.03-0.118,0-0.414,0.358-0.227c1.12,0.674,2.353,1.139,3.64,1.37
			c2.037,0.379,4.104,0.574,6.176,0.581c0.288,0,0.577-0.01,0.865-0.01c2.863-0.091,5.692-0.65,8.374-1.656
			c0.2-0.102,0.41-0.185,0.626-0.246l0.149-0.059v0.019c1.015-0.235,2.082,0.003,2.901,0.646c0.819,0.643,1.303,1.624,1.315,2.665
			c0,0.108-0.01,0.217-0.02,0.315c-2.172,0.204-4.312,0.667-6.374,1.38L19.269,5.44C8.83,9.895,6.898,14.704,6.898,18.311
			c0.033,4.669,3.843,8.428,8.512,8.397c0.073,0.002,0.146-0.002,0.219-0.01h0.03c4.44-0.084,8.044-3.615,8.221-8.051
			c0.177-4.437-3.136-8.243-7.554-8.68c-0.054,0.005-0.107-0.014-0.145-0.052C16.142,9.876,16.122,9.823,16.127,9.769L16.127,9.769z
			 M15.532,14.262c-0.107-0.098-0.271-0.098-0.378,0l-3.898,3.873c-0.099,0.105-0.099,0.269,0,0.375l3.898,3.873
			c0.107,0.099,0.271,0.099,0.378,0l3.898-3.873c0.099-0.105,0.099-0.269,0-0.375L15.532,14.262z M15.532,14.262"/>
	</g>
</g>
</svg>
