<svg width="48" height="48" xmlns="http://www.w3.org/2000/svg" xmlns:xlink="http://www.w3.org/1999/xlink"><defs><linearGradient x1="50%" y1="0%" x2="50%" y2="100%" id="c"><stop stop-color="#8231FF" offset="0%"/><stop stop-color="#4B16FF" offset="100%"/></linearGradient><filter x="-20%" y="-20%" width="140%" height="140%" filterUnits="objectBoundingBox" id="a"><feOffset in="SourceAlpha" result="shadowOffsetOuter1"/><feGaussianBlur stdDeviation="2" in="shadowOffsetOuter1" result="shadowBlurOuter1"/><feColorMatrix values="0 0 0 0 0.294117647 0 0 0 0 0.0862745098 0 0 0 0 1 0 0 0 0.429878715 0" in="shadowBlurOuter1" result="shadowMatrixOuter1"/><feMerge><feMergeNode in="shadowMatrixOuter1"/><feMergeNode in="SourceGraphic"/></feMerge></filter><path id="b" d="M0 0h40v40H0z"/></defs><g filter="url(#a)" transform="translate(4 4)" fill="none" fill-rule="evenodd"><mask id="d" fill="#fff"><use xlink:href="#b"/></mask><path d="M29.339 25.16l-4.56 5.07a1.35 1.35 0 01-.998.44 1.32 1.32 0 01-1-.38 1.43 1.43 0 01-.061-2l2.421-2.7H11.717a1.421 1.421 0 010-2.83h16.611a1.419 1.419 0 011 2.37M10.6 14.77l4.55-5.069a1.36 1.36 0 011-.453c.37-.02.732.116 1 .373a1.43 1.43 0 01.1 2L14.82 14.32H28.21c.77.016 1.386.648 1.378 1.419a1.39 1.39 0 01-1.378 1.402h-16.6a1.411 1.411 0 01-1-2.36M20 0C8.953 0 0 8.954 0 20s8.954 20 20 20 20-8.954 20-20S31.046 0 20 0" fill="url(#c)" mask="url(#d)"/></g></svg>