<svg width="22" height="19" xmlns="http://www.w3.org/2000/svg" xmlns:xlink="http://www.w3.org/1999/xlink"><defs><path id="a" d="M0 .029h21.992v11.557H0z"/></defs><g fill="none" fill-rule="evenodd"><g><mask id="b" fill="#fff"><use xlink:href="#a"/></mask><path d="M11.001 11.586c-.254 0-.506-.052-.739-.152L1.022 7.45C.4 7.181.009 6.618 0 5.98c-.009-.639.365-1.211.977-1.495L10.217.2a1.885 1.885 0 011.569 0l9.23 4.285c.61.283.985.856.976 1.493-.01.64-.4 1.203-1.02 1.471l-9.231 3.985a1.87 1.87 0 01-.74.152zm0-9.964c-.03 0-.06.006-.086.018l-9.24 4.285c-.034.015-.045.03-.046.032 0 .002.01.017.05.033l9.24 3.985c.05.022.115.022.165 0l9.23-3.985c.038-.016.048-.031.05-.034a.114.114 0 00-.046-.03l-9.23-4.286A.204.204 0 0011 1.622z" fill="#565656" mask="url(#b)"/></g><path d="M10.996 18.97a.83.83 0 01-.352-.078L4.45 15.988a1.633 1.633 0 01-.945-1.468V8.191c0-.44.365-.797.815-.797.45 0 .814.357.814.797v6.33l5.864 2.768 5.842-2.739.02-6.359c0-.44.364-.797.814-.797.45 0 .814.357.814.797v6.33c0 .622-.37 1.199-.945 1.467l-6.194 2.904a.83.83 0 01-.352.078z" fill="#565656"/><path d="M20.996 14.416c-.573.233-1.203-.179-1.203-.785V9.007l1.955-.797v5.102c0 .483-.297.918-.752 1.104z" fill="#4B16FF"/></g></svg>