<?xml version="1.0" encoding="UTF-8"?>
<svg width="22px" height="19px" viewBox="0 0 22 19" version="1.1" xmlns="http://www.w3.org/2000/svg" xmlns:xlink="http://www.w3.org/1999/xlink">
    <!-- Generator: Sketch 54.1 (76490) - https://sketchapp.com -->
    <title>zhishi</title>
    <desc>Created with Sketch.</desc>
    <defs>
        <polygon id="path-1" points="0 0.028981775 21.9918561 0.028981775 21.9918561 11.5860557 0 11.5860557"></polygon>
    </defs>
    <g id="页面1" stroke="none" stroke-width="1" fill="none" fill-rule="evenodd">
        <g id="iPhone-XS复制-2" transform="translate(-252.000000, -1220.000000)">
            <g id="编组-18" transform="translate(0.000000, 1197.000000)">
                <g id="zhishi" transform="translate(252.000000, 23.000000)">
                    <g id="编组">
                        <mask id="mask-2" fill="white">
                            <use xlink:href="#path-1"></use>
                        </mask>
                        <g id="Clip-2"></g>
                        <path d="M11.0013231,11.5860555 C10.7468615,11.5861759 10.4952,11.5344152 10.2623692,11.4340856 L1.02150769,7.44920444 C0.400615385,7.18148811 0.00913846154,6.61787163 0.000123076923,5.97846593 C-0.00876923077,5.3403851 0.365261538,4.76779556 0.976553846,4.48445166 L10.2174154,0.199515055 C10.7081846,-0.0277020602 11.294,-0.0281838352 11.7855692,0.19999683 L21.0160923,4.48469255 C21.6269231,4.76839778 22.0008308,5.34050555 21.9916923,5.97825515 C21.9829231,6.6175103 21.5916,7.18115689 20.9711385,7.44908399 L11.7409846,11.4339651 C11.5079385,11.5342948 11.256,11.5861759 11.0013231,11.5860555 Z M11.0013231,1.62204596 C10.9710462,1.62204596 10.9412308,1.62815848 10.9150154,1.64038352 L1.67415385,5.92507924 C1.64073846,5.94049604 1.62993846,5.95413629 1.62873846,5.95705705 C1.62956923,5.95859271 1.63990769,5.97400951 1.67849231,5.99048019 L10.9193538,9.97536133 C10.9686154,9.99677021 11.0335385,9.99698098 11.0836615,9.97524089 L20.3133538,5.99048019 C20.3519385,5.97400951 20.3622462,5.95859271 20.3631077,5.95624406 C20.3619077,5.95437718 20.3510769,5.94049604 20.3177846,5.92519968 L11.0871385,1.64038352 C11.0609231,1.62815848 11.0311385,1.62204596 11.0013231,1.62204596 Z" id="Fill-1" fill="#4B16FF" mask="url(#mask-2)"></path>
                    </g>
                    <path d="M10.9961538,18.9699192 C10.8742769,18.9698288 10.7540923,18.9431204 10.6441231,18.8916006 L4.44892308,15.9882441 C3.87501538,15.719233 3.50433846,15.1430301 3.50433846,14.5204564 L3.50433846,8.19104754 C3.50433846,7.75091601 3.86910769,7.3940412 4.31886154,7.3940412 C4.76873846,7.3940412 5.13341538,7.75091601 5.13341538,8.19104754 L5.13341538,14.5204564 L10.9973538,17.2885547 L16.8389538,14.5504469 L16.8584,8.19104754 C16.8584,7.75091601 17.2230769,7.3940412 17.6729538,7.3940412 C18.1227077,7.3940412 18.4873846,7.75091601 18.4873846,8.19104754 L18.4873846,14.5204564 C18.4873846,15.1434818 18.1163385,15.7195943 17.5424308,15.9882441 L11.3480615,18.8916006 C11.2382154,18.9431204 11.1179077,18.9698288 10.9961538,18.9699192 Z" id="Fill-3" fill="#4B16FF"></path>
                </g>
            </g>
        </g>
    </g>
</svg>