<svg width="34" height="34" xmlns="http://www.w3.org/2000/svg" xmlns:xlink="http://www.w3.org/1999/xlink"><defs><path id="a" d="M0 .36h34v3.513H0z"/><path id="c" d="M0 33.686h34V0H0z"/></defs><g fill="none" fill-rule="evenodd"><g transform="translate(0 29.812)"><mask id="b" fill="#fff"><use xlink:href="#a"/></mask><path d="M0 2.117c0 .97 7.611 1.757 17 1.757s17-.787 17-1.757c0-.97-7.611-1.756-17-1.756S0 1.147 0 2.117" fill="#DAE9FF" mask="url(#b)"/></g><path d="M21.692 32.28H8.364c-2.924 0-4.284-1.404-4.284-3.793V13.735c-.952-.211-1.292-.773-1.292-1.616V8.96c0-1.054.476-1.546 2.788-1.546H20.4v5.128-5.128h10.88c1.496 0 1.972.632 1.972 1.685v3.021c0 1.054-.34 1.616-1.564 1.686.135.773 0 12.224 0 14.542 0 2.388-1.292 3.934-4.216 3.934h-5.78z" fill="#DAE9FF"/><path d="M20.196 31.508H6.868c-2.924 0-4.284-1.405-4.284-3.793V12.962c-.952-.28-1.224-.772-1.224-1.615V8.185c0-1.054.476-1.545 2.788-1.545h25.636c1.564 0 2.04.632 2.04 1.686v3.02c0 1.055-.34 1.616-1.564 1.687.136.772 0 12.223 0 14.541 0 2.389-1.292 3.934-4.216 3.934h-5.848z" fill="#3889FF"/><path d="M25.228 2.846c.136 1.054.136 2.46-1.224 2.46h-4.828c-1.292 0-1.292-1.125-.34-1.757.748-.492 3.128-1.756 4.624-2.6 1.224-.772 1.632.773 1.768 1.897M12.104.95c1.428.843 3.876 2.107 4.624 2.599 1.02.632 1.02 1.756-.34 1.756H11.56c-1.292 0-1.292-1.405-1.224-2.459.136-1.053.476-2.599 1.768-1.896" fill="#FFD3D7"/><path d="M24.208 2.074c-.136-1.054-.476-2.6-1.768-1.897-1.428.843-3.876 2.108-4.624 2.6-1.02.632-1.02 1.756.34 1.756h4.828c1.292 0 1.292-1.405 1.224-2.46M11.016.178c-1.224-.703-1.632.843-1.768 1.897-.136 1.054-.136 2.459 1.224 2.459H15.3c1.292 0 1.292-1.124.34-1.757-.748-.421-3.128-1.756-4.624-2.599" fill="#FB560A"/><mask id="d" fill="#fff"><use xlink:href="#c"/></mask><path fill="#DAE9FF" mask="url(#d)" d="M15.504 31.438h4.692V13.033h-4.692z"/><path fill="#FFF" mask="url(#d)" d="M14.144 31.508h4.692V13.103h-4.692z"/><path fill="#0646DE" mask="url(#d)" d="M2.652 17.669h27.744v-4.636H2.652z"/></g></svg>