<svg width="37" height="36" xmlns="http://www.w3.org/2000/svg" xmlns:xlink="http://www.w3.org/1999/xlink"><defs><path id="a" d="M.12.254h26.87v28.08H.12z"/><path id="c" d="M0 .256h36.88V9H0z"/></defs><g fill="none" fill-rule="evenodd"><g transform="translate(7.23 .175)"><mask id="b" fill="#fff"><use xlink:href="#a"/></mask><path d="M12.218 1.025l13.99 14.22c1.014 1.029 1.046 2.777.07 3.847L18.54 27.51a2.51 2.51 0 01-3.649.075L.903 13.364C-.112 12.337-.144 10.588.83 9.519L8.571 1.1c.974-1.07 2.592-1.16 3.647-.076" fill="#FFD3D7" mask="url(#b)"/></g><path d="M11.224 4.365l17.893 8.009c1.284.573 1.941 2.16 1.372 3.577L26.16 26.705c-.545 1.352-2.05 2.046-3.393 1.445L4.873 20.142c-1.282-.574-1.94-2.161-1.37-3.578L7.83 5.811c.545-1.353 2.11-2.02 3.393-1.446" fill="#FB560A"/><g transform="translate(0 26.746)"><mask id="d" fill="#fff"><use xlink:href="#c"/></mask><path d="M4.509.256h28.13l3.582 5.246C37.548 7.461 36.818 9 34.496 9H2.32C.064 9-.666 7.461.66 5.502L4.509.256z" fill="#DAE9FF" mask="url(#d)"/></g><path d="M7.428 12.312h23.22c2.323 0 4.18 1.958 4.18 4.407V28.26c0 2.448-1.857 4.407-4.18 4.407H7.429c-2.322 0-4.18-1.959-4.18-4.407V16.719c0-2.449 1.858-4.407 4.18-4.407" fill="#DAE9FF"/><path d="M6.765 12.312H28.46c2.321 0 4.179 1.958 4.179 4.407V28.26c0 2.448-1.858 4.407-4.18 4.407H6.766c-2.322 0-4.18-1.959-4.18-4.407V16.719c0-2.449 1.858-4.407 4.18-4.407" fill="#3889FF"/><path d="M21.228 29.1c0 .58.445 1.05.995 1.05s.995-.47.995-1.05c0-.579-.445-1.049-.995-1.049s-.995.47-.995 1.05M24.545 29.1c0 .58.445 1.05.995 1.05s.995-.47.995-1.05c0-.579-.445-1.049-.995-1.049s-.995.47-.995 1.05M27.862 29.1c0 .58.445 1.05.995 1.05s.996-.47.996-1.05c0-.579-.446-1.049-.996-1.049s-.995.47-.995 1.05" fill="#FFF"/><path d="M7.76 16.858c-.597 0-1.128.49-1.128 1.12 0 .63.464 1.119 1.128 1.119h20.5c.597 0 1.128-.49 1.128-1.12 0-.629-.464-1.119-1.128-1.119H7.76z" fill="#DAE9FF"/><path d="M7.096 16.159c-.597 0-1.127.49-1.127 1.12 0 .629.464 1.119 1.127 1.119h20.501c.597 0 1.128-.63 1.128-1.12 0-.49-.53-1.12-1.128-1.12h-20.5z" fill="#FFF"/></g></svg>