<svg width="23" height="18" xmlns="http://www.w3.org/2000/svg"><path d="M20.456 0H2.544C1.141 0 0 1.161 0 2.588v12.824C0 16.84 1.141 18 2.544 18h17.912C21.859 18 23 16.839 23 15.412V2.588C23 1.16 21.859 0 20.456 0zM2.544 1.544h17.912c.566 0 1.027.468 1.027 1.044v.048l-8.985 6.638c-.532.393-1.465.393-1.996 0L1.517 2.634v-.047c0-.576.461-1.044 1.027-1.044zm17.912 14.912H2.544a1.037 1.037 0 01-1.027-1.044V4.543l8.092 5.979c.53.392 1.21.588 1.89.588.681 0 1.362-.196 1.892-.588l8.092-5.978v10.868c0 .576-.461 1.044-1.027 1.044z" fill="#FFF" fill-rule="evenodd"/></svg>