<svg width="20" height="11" xmlns="http://www.w3.org/2000/svg" xmlns:xlink="http://www.w3.org/1999/xlink"><defs><linearGradient x1="50%" y1="69.7%" x2="61.246%" y2="35.673%" id="c"><stop stop-color="#EF2D23" offset="0%"/><stop stop-color="#FF5A00" offset="100%"/></linearGradient><path id="a" d="M.002 0h19.98v10.695H.002z"/></defs><g fill="none" fill-rule="evenodd"><mask id="b" fill="#fff"><use xlink:href="#a"/></mask><path d="M10.25 3.314c-.49 0-.884.169-1.183.506-.298.336-.45.844-.45 1.524 0 .668.154 1.174.462 1.52.307.345.697.517 1.172.517.472 0 .862-.172 1.165-.513.303-.343.455-.856.455-1.54 0-.677-.147-1.181-.444-1.513-.294-.334-.686-.501-1.176-.501z" fill="#FD7363" mask="url(#b)"/><path d="M18.208 0H1.776C.8 0 0 .802 0 1.783v7.13c0 .981.8 1.783 1.776 1.783h16.43c.976 0 1.776-.802 1.776-1.782V1.783A1.782 1.782 0 0018.208 0zm-11.8 8.299H5.222v-2.58H2.895v2.58H1.707V2.396h1.188v2.322H5.22V2.396H6.41v5.903zm5.917-.707c-.517.54-1.205.807-2.07.807-.873 0-1.569-.267-2.086-.802-.517-.535-.773-1.273-.773-2.213 0-.602.09-1.105.27-1.513.133-.301.316-.57.548-.81.232-.238.486-.416.76-.53.365-.155.789-.234 1.268-.234.867 0 1.56.27 2.079.81.52.539.78 1.29.78 2.25-.002.952-.26 1.696-.776 2.235zm5.952-4.198h-1.74v4.902h-1.188V3.394h-1.745v-.998h4.673v.998z" fill="url(#c)" mask="url(#b)"/></g></svg>