<?xml version="1.0" encoding="utf-8"?>
<!-- Generator: Adobe Illustrator 21.0.0, SVG Export Plug-In . SVG Version: 6.00 Build 0)  -->
<svg version="1.1" id="图层_1" xmlns="http://www.w3.org/2000/svg" xmlns:xlink="http://www.w3.org/1999/xlink" x="0px" y="0px"
	 viewBox="0 0 32 32" style="enable-background:new 0 0 32 32;" xml:space="preserve">
<path style="fill:#FFFFFF;" d="M13.079,4.336c0.58-0.124,1.165,0.172,1.513,0.629c0.681,0.876,0.788,2.143,0.324,3.142
	c-0.255,0.554-0.783,1.057-1.427,1.047c-0.509,0.022-0.971-0.287-1.273-0.676c-0.563-0.729-0.699-1.726-0.49-2.608
	C11.893,5.189,12.355,4.492,13.079,4.336 M13.833,5.986c-0.383,0.148-0.561,0.594-0.528,0.981c-0.014,0.418,0.285,0.936,0.755,0.898
	c0.575-0.112,0.757-0.851,0.58-1.341C14.546,6.186,14.204,5.862,13.833,5.986z M18.473,4.322c0.706-0.11,1.332,0.412,1.612,1.021
	c0.463,0.993,0.369,2.256-0.299,3.136c-0.357,0.48-0.975,0.792-1.577,0.643c-0.536-0.139-0.936-0.585-1.151-1.078
	c-0.393-0.898-0.326-1.986,0.177-2.828C17.504,4.772,17.939,4.381,18.473,4.322 M18.437,6.286c-0.385,0.082-0.768,0.273-1.008,0.595
	c-0.069,0.095-0.148,0.257-0.024,0.344c0.139,0.044,0.267-0.06,0.375-0.133c0.335-0.245,0.765-0.363,1.177-0.288
	c0.146,0.019,0.202,0.214,0.359,0.202c0.205,0.033,0.336-0.238,0.21-0.391C19.275,6.286,18.82,6.231,18.437,6.286z M8.623,17.697
	c0.43,0.088,0.859,0.182,1.293,0.245c0.038,1.482-0.024,2.967,0.031,4.448c1.407,0.304,2.863,0.214,4.29,0.15
	c0.031-1.35,0-2.7,0.016-4.05c3.063,0.183,6.133-0.165,9.129-0.793c0.175,0.961,0.224,1.942,0.22,2.918
	c0.026,1.717-0.234,3.466-0.957,5.035c-0.589,1.276-1.523,2.408-2.727,3.145c-1.179,0.732-2.579,1.088-3.964,1.056
	c-1.714,0.024-3.445-0.567-4.741-1.699c-1.111-0.96-1.874-2.275-2.301-3.67c-0.371-1.22-0.526-2.5-0.509-3.773
	C8.398,19.702,8.434,18.688,8.623,17.697z"/>
<path style="fill:#121214;" d="M12.747,0.966c1.46-0.528,3.047-0.641,4.583-0.462c1.556,0.2,3.072,0.795,4.297,1.783
	c1.276,1.011,2.213,2.399,2.832,3.894c0.95,2.256,1.193,4.723,1.274,7.145c-6.286,1.975-13.177,1.975-19.463,0
	c0.073-1.944,0.223-3.905,0.789-5.776c0.424-1.426,1.065-2.804,2.009-3.962C10.022,2.399,11.308,1.477,12.747,0.966 M13.079,4.336
	c-0.724,0.156-1.186,0.854-1.353,1.534c-0.209,0.882-0.073,1.879,0.49,2.608c0.302,0.389,0.764,0.698,1.273,0.676
	c0.643,0.009,1.171-0.493,1.427-1.047c0.465-0.998,0.357-2.266-0.324-3.142C14.244,4.508,13.658,4.212,13.079,4.336 M18.473,4.322
	c-0.534,0.058-0.969,0.45-1.239,0.893c-0.503,0.842-0.57,1.93-0.177,2.828c0.215,0.493,0.615,0.94,1.151,1.078
	c0.602,0.149,1.22-0.163,1.577-0.643c0.669-0.88,0.763-2.143,0.299-3.136C19.805,4.734,19.178,4.212,18.473,4.322 M15.026,9.984
	c-1.297,0.067-2.605,0.153-3.866,0.479c-0.332,0.105-0.716,0.194-0.937,0.486c-0.153,0.215,0.1,0.42,0.26,0.537
	c0.718,0.474,1.546,0.747,2.362,1.001c1.441,0.428,2.972,0.723,4.469,0.432c1.349-0.242,2.693-0.614,3.913-1.25
	c0.227-0.138,0.497-0.274,0.599-0.536c0.01-0.254-0.257-0.393-0.456-0.486c-0.637-0.272-1.331-0.362-2.01-0.469
	C17.923,10.008,16.473,9.921,15.026,9.984z"/>
<path style="fill:#121214;" d="M13.833,5.986c0.371-0.124,0.714,0.201,0.807,0.539c0.177,0.49-0.005,1.229-0.58,1.341
	c-0.471,0.038-0.77-0.48-0.755-0.898C13.272,6.579,13.45,6.133,13.833,5.986z M18.437,6.286c0.383-0.055,0.838,0,1.09,0.328
	c0.126,0.153-0.006,0.425-0.21,0.391c-0.157,0.012-0.213-0.183-0.359-0.202c-0.412-0.075-0.842,0.044-1.177,0.288
	c-0.109,0.073-0.236,0.177-0.375,0.133c-0.124-0.087-0.045-0.249,0.024-0.344C17.669,6.559,18.052,6.368,18.437,6.286z
	 M4.831,16.731c1.25,0.372,2.515,0.696,3.792,0.966c-0.189,0.991-0.225,2.005-0.222,3.012c-0.017,1.273,0.137,2.554,0.509,3.773
	c0.428,1.395,1.191,2.709,2.301,3.67c1.296,1.133,3.027,1.723,4.741,1.699c1.385,0.032,2.785-0.324,3.964-1.056
	c1.205-0.738,2.138-1.87,2.727-3.145c0.724-1.569,0.983-3.318,0.957-5.035c0.004-0.976-0.045-1.957-0.22-2.918
	c1.276-0.27,2.539-0.594,3.789-0.965c0.58,1.53,1.042,3.102,1.416,4.694c0.204,0.887,0.37,1.786,0.41,2.696
	c0.003,0.451,0.044,0.94-0.18,1.349c-0.16,0.234-0.433,0.003-0.593-0.11c-1.058-0.756-1.661-1.936-2.25-3.057
	c-0.196,2.386-1.284,4.736-3.156,6.264c-2.175,1.813-5.131,2.461-7.909,2.222c-2.066-0.171-4.122-0.884-5.725-2.222
	c-1.872-1.53-2.963-3.88-3.154-6.269c-0.588,1.124-1.192,2.304-2.25,3.062c-0.161,0.114-0.435,0.347-0.595,0.11
	c-0.223-0.41-0.181-0.898-0.179-1.35c0.061-1.272,0.351-2.519,0.672-3.748C3.998,19.14,4.38,17.923,4.831,16.731z"/>
<path style="fill:#F9B618;" d="M15.026,9.984c1.447-0.063,2.897,0.024,4.334,0.194c0.679,0.108,1.372,0.198,2.01,0.469
	c0.199,0.092,0.466,0.232,0.456,0.486c-0.102,0.262-0.372,0.398-0.599,0.536c-1.22,0.636-2.564,1.008-3.913,1.25
	c-1.498,0.29-3.029-0.004-4.469-0.432c-0.815-0.254-1.644-0.527-2.362-1.001c-0.16-0.117-0.413-0.322-0.26-0.537
	c0.221-0.292,0.605-0.381,0.937-0.486C12.421,10.137,13.729,10.052,15.026,9.984z M7.356,29.265
	c0.591-0.276,1.202-0.511,1.827-0.698c1.603,1.339,3.659,2.052,5.725,2.222c2.778,0.239,5.734-0.409,7.909-2.222
	c0.734,0.226,1.46,0.496,2.139,0.859c0.339,0.203,0.73,0.51,0.699,0.951c0.017,0.232-0.203,0.369-0.39,0.446
	c-0.636,0.263-1.337,0.253-2.013,0.286c-1.787,0.054-3.577,0.037-5.361-0.081c-1.256-0.167-2.528-0.167-3.783,0
	c-1.843,0.121-3.693,0.137-5.539,0.074c-0.681-0.034-1.407-0.032-2.018-0.376c-0.262-0.139-0.25-0.502-0.122-0.73
	C6.631,29.644,7.001,29.435,7.356,29.265z"/>
<path style="fill:#E32B10;" d="M4.831,16.731c0.435-1.152,0.884-2.303,1.437-3.404c6.287,1.975,13.177,1.975,19.463,0
	c0.554,1.1,1.003,2.252,1.438,3.404c-1.25,0.371-2.513,0.695-3.789,0.965c-2.996,0.628-6.066,0.976-9.129,0.793
	c-0.016,1.35,0.015,2.7-0.016,4.05c-1.427,0.064-2.882,0.154-4.29-0.15c-0.054-1.48,0.007-2.966-0.031-4.448
	c-0.434-0.062-0.863-0.156-1.293-0.245C7.347,17.427,6.082,17.103,4.831,16.731z"/>
</svg>
