<?xml version="1.0" encoding="utf-8"?>
<!-- Generator: Adobe Illustrator 21.0.0, SVG Export Plug-In . SVG Version: 6.00 Build 0)  -->
<svg version="1.1" id="图层_1" xmlns="http://www.w3.org/2000/svg" xmlns:xlink="http://www.w3.org/1999/xlink" x="0px" y="0px"
	 viewBox="0 0 32 32" style="enable-background:new 0 0 32 32;" xml:space="preserve">
<style type="text/css">
	.st0{display:none;fill:#FFFFFF;}
	.st1{fill:#2F8AD0;}
	.st2{clip-path:url(#SVGID_2_);fill:#1AC0D0;}
	.st3{clip-path:url(#SVGID_2_);fill:#FE5656;}
</style>
<g>
	<rect x="-0.016" class="st0" width="32" height="32"/>
	<path class="st1" d="M11.935,3.414L6.289,28.118h11.999l5.647-24.704H11.935z M11.935,3.414"/>
	<g>
		<defs>
			<rect id="SVGID_1_" x="1" y="3.384" width="30" height="24.77"/>
		</defs>
		<clipPath id="SVGID_2_">
			<use xlink:href="#SVGID_1_"  style="overflow:visible;"/>
		</clipPath>
		<path class="st2" d="M28.434,3.414h-2.735l-5.647,24.704h8.382c1.412,0,2.559-1.147,2.559-2.559V5.973
			C30.993,4.561,29.846,3.414,28.434,3.414L28.434,3.414z M28.434,3.414"/>
		<path class="st3" d="M3.554,3.414c-1.412,0-2.559,1.147-2.559,2.559v19.586c0,1.412,1.147,2.559,2.559,2.559h1.059l5.647-24.704
			H3.554z M3.554,3.414"/>
	</g>
</g>
</svg>
