<?xml version="1.0" encoding="utf-8"?>
<!-- Generator: Adobe Illustrator 21.0.0, SVG Export Plug-In . SVG Version: 6.00 Build 0)  -->
<svg version="1.1" id="图层_1" xmlns="http://www.w3.org/2000/svg" xmlns:xlink="http://www.w3.org/1999/xlink" x="0px" y="0px"
	 viewBox="0 0 32 32" style="enable-background:new 0 0 32 32;" xml:space="preserve">
<g>
	<g>
		<g>
			<defs>
				<rect id="SVGID_1_" x="1" y="3.762" width="30" height="24.476"/>
			</defs>
			<clipPath id="SVGID_2_">
				<use xlink:href="#SVGID_1_"  style="overflow:visible;"/>
			</clipPath>
			<path style="clip-path:url(#SVGID_2_);fill:#13CE66;" d="M30.972,19.51c0-4.197-4.197-7.644-8.993-7.644
				c-4.946,0-8.993,3.447-8.993,7.644s3.897,7.644,8.993,7.644c1.049,0,2.098-0.3,3.148-0.599l2.848,1.649l-0.749-2.698
				C29.324,23.856,30.972,21.758,30.972,19.51L30.972,19.51z M19.131,18.161c-0.6,0-1.049-0.45-1.049-1.049
				c0-0.45,0.599-1.049,1.049-1.049c0.749,0,1.349,0.45,1.349,1.049C20.48,17.561,19.881,18.161,19.131,18.161L19.131,18.161z
				 M24.827,18.161c-0.45,0-1.049-0.45-1.049-1.049c0-0.45,0.599-1.049,1.049-1.049c0.749,0,1.349,0.45,1.349,1.049
				C26.176,17.561,25.726,18.161,24.827,18.161L24.827,18.161z"/>
		</g>
		<g>
			<defs>
				<rect id="SVGID_3_" x="1" y="3.762" width="30" height="24.476"/>
			</defs>
			<clipPath id="SVGID_4_">
				<use xlink:href="#SVGID_3_"  style="overflow:visible;"/>
			</clipPath>
			<path style="clip-path:url(#SVGID_4_);fill:#13CE66;" d="M11.487,3.772c-5.845,0-10.492,3.897-10.492,8.993
				c0,2.848,1.649,5.246,4.197,7.044l-1.049,3.148l3.747-1.799c1.349,0.3,2.398,0.599,3.747,0.599h1.049
				c-0.15-0.749-0.3-1.499-0.3-2.248c0-4.646,3.897-8.393,8.993-8.393h1.049C21.23,6.919,16.733,3.772,11.487,3.772L11.487,3.772z
				 M8.19,10.816c-0.749,0-1.649-0.45-1.649-1.349c0-0.749,0.749-1.349,1.649-1.349c0.749,0,1.349,0.45,1.349,1.349
				C9.389,10.367,8.939,10.816,8.19,10.816L8.19,10.816z M15.534,10.816c-0.749,0-1.649-0.45-1.649-1.349
				c0-0.749,0.749-1.349,1.649-1.349c0.749,0,1.349,0.45,1.349,1.349C16.883,10.367,16.284,10.816,15.534,10.816L15.534,10.816z"/>
		</g>
	</g>
</g>
</svg>
