<?xml version="1.0" encoding="UTF-8"?>
<svg width="293px" height="121px" viewBox="0 0 293 121" version="1.1" xmlns="http://www.w3.org/2000/svg" xmlns:xlink="http://www.w3.org/1999/xlink">
    <!-- Generator: Sketch 53.2 (72643) - https://sketchapp.com -->
    <title>Group 2</title>
    <desc>Created with Sketch.</desc>
    <defs>
        <linearGradient x1="-1.26857384%" y1="42.3079324%" x2="134.750118%" y2="61.0559408%" id="linearGradient-1">
            <stop stop-color="#FF4545" offset="0%"></stop>
            <stop stop-color="#F72525" offset="100%"></stop>
        </linearGradient>
        <rect id="path-2" x="0" y="0" width="283" height="111" rx="4"></rect>
        <filter x="-3.0%" y="-5.9%" width="106.0%" height="115.3%" filterUnits="objectBoundingBox" id="filter-4">
            <feMorphology radius="0.5" operator="dilate" in="SourceAlpha" result="shadowSpreadOuter1"></feMorphology>
            <feOffset dx="0" dy="2" in="shadowSpreadOuter1" result="shadowOffsetOuter1"></feOffset>
            <feGaussianBlur stdDeviation="2" in="shadowOffsetOuter1" result="shadowBlurOuter1"></feGaussianBlur>
            <feColorMatrix values="0 0 0 0 0   0 0 0 0 0   0 0 0 0 0  0 0 0 0.0757755888 0" type="matrix" in="shadowBlurOuter1"></feColorMatrix>
        </filter>
    </defs>
    <g id="Page-1" stroke="none" stroke-width="1" fill="none" fill-rule="evenodd">
        <g id="Group-2" transform="translate(5.000000, 3.000000)">
            <g id="Fill-7">
                <g id="Fill-1">
                    <mask id="mask-3" fill="white">
                        <use xlink:href="#path-2"></use>
                    </mask>
                    <g id="Mask">
                        <use fill="black" fill-opacity="1" filter="url(#filter-4)" xlink:href="#path-2"></use>
                        <use fill="url(#linearGradient-1)" fill-rule="evenodd" xlink:href="#path-2"></use>
                    </g>
                    <path d="M214.748789,105.895417 L214.748789,88.7556119 C214.748789,86.6986911 213.605069,83.0416479 216.350338,82.8132487 C219.781686,82.5850391 223.441475,83.2706162 226.873203,82.3560708 C234.19335,80.5281183 237.396448,73.9003677 237.396448,67.0445972 L237.396448,50.3619695 C237.396448,46.0197287 237.854278,41.9064561 235.566459,38.0212033 C231.905911,32.07884 225.729104,30.9362749 219.324237,30.9362749 C218.408577,30.9362749 215.892508,31.3936424 215.206429,30.7080654 C214.291149,30.022678 214.977229,28.193777 214.977229,27.2801801 L214.977229,7.62627595 C238.768608,11.511339 256.612569,32.9933854 256.612569,56.9889614 C256.384319,80.9854858 238.540168,102.010354 214.748789,105.895417 M192.558959,68.8725497 C190.27152,68.8725497 190.95741,63.6165223 190.95741,62.0167793 L190.95741,48.9904361 C190.95741,47.8476812 190.49996,46.0197287 191.18585,45.1051833 C192.329569,43.5052506 197.591667,44.4199857 199.421656,44.4199857 L215.664068,44.4199857 C217.264858,44.4199857 222.984595,43.2772308 223.441475,45.5625508 C224.128504,48.0766495 223.441475,51.2757561 223.441475,54.0180643 L223.441475,65.2166447 C223.441475,67.0445972 223.670675,68.8725497 221.383236,68.8725497 L192.558959,68.8725497 M157.328676,56.9889614 C157.328676,32.9933854 175.172637,11.511339 198.964016,7.62627595 L198.964016,24.7658918 C198.964016,26.3658245 199.650096,29.1083224 198.735576,30.2508875 C198.048927,31.3936424 193.016789,30.7080654 191.64349,30.7080654 C184.780793,30.7080654 178.146346,34.8213379 176.544987,41.9064561 C175.858717,44.8771635 176.316357,48.5332582 176.316357,51.7329339 C176.316357,57.2179297 176.087917,63.1595342 176.316357,68.8725497 C176.316357,73.9003677 179.061625,78.4711975 183.408443,80.9854858 C186.382152,82.5850391 189.81369,82.8132487 193.245229,82.8132487 C194.846398,82.8132487 198.506376,81.8990827 198.964016,83.9561932 C199.421656,85.5557465 198.964016,88.0692761 198.964016,89.441189 L198.964016,105.895417 C175.401077,102.010354 157.328676,80.9854858 157.328676,56.9889614 M206.970623,-7 C173.571088,-7 145.204641,19.7380738 143.145642,52.8754991 C140.857823,86.2415133 165.792922,116.179263 198.964016,120.521693 C232.135111,124.634776 263.704656,101.781955 269.881273,68.8725497 C272.854982,52.8754991 269.881273,35.5067253 261.188017,21.7949947 C252.494951,8.54044191 238.997807,-1.05801611 223.670675,-4.94307917 C218.180137,-6.31480236 212.46116,-7 206.970623,-7" fill="#FFFFFF" opacity="0.200000003" mask="url(#mask-3)"></path>
                </g>
            </g>
            <circle id="Oval" fill="#FFFFFF" cx="34.5" cy="31.5" r="13.5"></circle>
            <path d="M35.7712857,39.5219044 L35.7712857,36.7099051 C35.7712857,36.3724415 35.5836442,35.7724579 36.0340398,35.7349861 C36.5969954,35.6975455 37.1974295,35.810023 37.7604474,35.6599804 C38.961409,35.3600819 39.4869173,34.2727166 39.4869173,33.1479417 L39.4869173,30.4109481 C39.4869173,29.6985492 39.56203,29.0237155 39.1866847,28.3862912 C38.586126,27.4113722 37.5727436,27.2239201 36.5219451,27.2239201 C36.3717197,27.2239201 35.9589271,27.298957 35.8463672,27.1864795 C35.6962041,27.0740331 35.8087641,26.773979 35.8087641,26.6240921 L35.8087641,23.3996234 C39.7120372,24.0370166 42.6395622,27.5614148 42.6395622,31.498189 C42.6021149,35.4351188 39.6745588,38.8845113 35.7712857,39.5219044 M32.1307667,33.4478402 C31.7554837,33.4478402 31.8680126,32.5855232 31.8680126,32.3230654 L31.8680126,30.1859309 C31.8680126,29.9984477 31.7929622,29.6985492 31.905491,29.5485066 C32.0931325,29.2860177 32.9564453,29.4360914 33.2566779,29.4360914 L35.9214487,29.4360914 C36.1840782,29.4360914 37.1224726,29.2486082 37.1974295,29.6235435 C37.3101452,30.0360128 37.1974295,30.5608662 37.1974295,31.0107762 L37.1974295,32.8480433 C37.1974295,33.1479417 37.2350326,33.4478402 36.8597496,33.4478402 L32.1307667,33.4478402 M26.3507984,31.498189 C26.3507984,27.5614148 29.2783233,24.0370166 33.1815964,23.3996234 L33.1815964,26.2115916 C33.1815964,26.4740806 33.2941564,26.9240216 33.144118,27.1114737 C33.0314645,27.298957 32.2058794,27.1864795 31.9805725,27.1864795 C30.8546613,27.1864795 29.7661974,27.8613133 29.5034744,29.0237155 C29.3908833,29.5110971 29.4659648,30.1109252 29.4659648,30.635872 C29.4659648,31.5357541 29.4284863,32.5105486 29.4659648,33.4478402 C29.4659648,34.2727166 29.9163604,35.0226183 30.6295102,35.4351188 C31.1173843,35.6975455 31.6803711,35.7349861 32.2433578,35.7349861 C32.5060497,35.7349861 33.1065149,35.5850058 33.1815964,35.9225005 C33.2566779,36.1849272 33.1815964,36.5973031 33.1815964,36.8223826 L33.1815964,39.5219044 C29.3158017,38.8845113 26.3507984,35.4351188 26.3507984,31.498189 M34.4951803,21 C29.0155691,21 24.3616989,25.3867152 24.0238944,30.8233241 C23.6485491,36.2974358 27.7394637,41.2090978 33.1815964,41.9215278 C38.6237291,42.5963305 43.8031076,38.8470395 44.8164588,33.4478402 C45.3043329,30.8233241 44.8164588,27.9737596 43.3902216,25.7241788 C41.9640154,23.5496038 39.7496403,21.9748567 37.2350326,21.3374636 C36.3342413,21.1124152 35.3959715,21 34.4951803,21" id="Fill-1" fill="#FE3F3F"></path>
            <text id="中国银行" font-family="PingFangSC-Regular, PingFang SC" font-size="18" font-weight="normal" letter-spacing="-0.4341177" fill="#FFFFFF">
                <tspan x="52" y="38">中国银行</tspan>
            </text>
        </g>
    </g>
</svg>