<?xml version="1.0" encoding="UTF-8"?>
<svg width="293px" height="121px" viewBox="0 0 293 121" version="1.1" xmlns="http://www.w3.org/2000/svg" xmlns:xlink="http://www.w3.org/1999/xlink">
    <!-- Generator: Sketch 53.2 (72643) - https://sketchapp.com -->
    <title>Group 13</title>
    <desc>Created with Sketch.</desc>
    <defs>
        <linearGradient x1="-1.26857384%" y1="42.3079324%" x2="134.750118%" y2="61.0559408%" id="linearGradient-1">
            <stop stop-color="#3F82F5" offset="0%"></stop>
            <stop stop-color="#2538F7" offset="100%"></stop>
        </linearGradient>
        <rect id="path-2" x="0" y="0" width="283" height="111" rx="4"></rect>
        <filter x="-3.0%" y="-5.9%" width="106.0%" height="115.3%" filterUnits="objectBoundingBox" id="filter-4">
            <feMorphology radius="0.5" operator="dilate" in="SourceAlpha" result="shadowSpreadOuter1"></feMorphology>
            <feOffset dx="0" dy="2" in="shadowSpreadOuter1" result="shadowOffsetOuter1"></feOffset>
            <feGaussianBlur stdDeviation="2" in="shadowOffsetOuter1" result="shadowBlurOuter1"></feGaussianBlur>
            <feColorMatrix values="0 0 0 0 0   0 0 0 0 0   0 0 0 0 0  0 0 0 0.0757755888 0" type="matrix" in="shadowBlurOuter1"></feColorMatrix>
        </filter>
    </defs>
    <g id="Page-1" stroke="none" stroke-width="1" fill="none" fill-rule="evenodd">
        <g id="Group-13" transform="translate(5.000000, 3.000000)">
            <g id="Fill-1-Copy-6">
                <mask id="mask-3" fill="white">
                    <use xlink:href="#path-2"></use>
                </mask>
                <g id="Mask">
                    <use fill="black" fill-opacity="1" filter="url(#filter-4)" xlink:href="#path-2"></use>
                    <use fill="url(#linearGradient-1)" fill-rule="evenodd" xlink:href="#path-2"></use>
                </g>
                <g id="Group-3" mask="url(#mask-3)" fill="#FFFFFF" opacity="0.200000003">
                    <g transform="translate(141.000000, -9.000000)" id="Fill-1">
                        <path d="M85.348009,13.0567207 L119.261247,46.9300192 L128.869343,37.8970735 C128.869343,37.8970735 130,36.2035822 130,35.0744226 C130,34.5097601 128.869343,33.3810968 128.869343,33.3810968 L107.956337,12.4920582 C88.1739879,-7.26699381 66.6956536,2.33028365 66.6956536,2.33028365 C66.6956536,2.33028365 75.1739217,1.76562117 85.348009,13.0567207 M126.043365,71.7702066 L101.17422,71.7702066 C101.17422,71.7702066 99.478235,71.7702066 98.3482408,72.3348691 C97.7829125,72.3348691 96.652256,73.4636979 96.652256,73.4636979 L65.5649971,103.949683 C65.0003312,104.514346 64.4350029,104.514346 63.8696747,103.949683 L31.0870933,71.2055441 C30.521765,70.6408816 30.521765,70.0762191 31.0870933,69.5123836 L63.8696747,36.7675831 C63.8696747,36.7675831 64.4350029,36.2035822 65.0003312,36.2035822 C65.5649971,36.2035822 65.5649971,36.2035822 66.1303253,36.7675831 L94.956768,65.5600771 C94.956768,65.5600771 96.0869277,66.6895674 97.7829125,67.2537337 C98.9129067,67.8183962 101.17422,66.1249049 101.17422,66.1249049 L114.739117,52.5753209 L75.7392499,14.1858802 C67.2611475,5.71792776 58.7828794,6.84642574 54.8262439,7.41108822 C22.6089908,11.9280573 0,39.0263984 0,70.6408816 C0,106.207506 29.9564368,135 65.0003312,135 C99.478235,135 127.739349,107.336831 129.434672,72.8995316 C129.434672,72.3348691 129.434672,72.3348691 128.869343,71.7702066 C127.739349,71.2055441 126.043365,71.7702066 126.043365,71.7702066"></path>
                    </g>
                </g>
            </g>
            <circle id="Oval-Copy-6" fill="#FFFFFF" cx="34.5" cy="31.5" r="13.5"></circle>
            <path d="M36.6518116,23.9475177 L41.4732679,29 L42.8392542,27.6526615 C42.8392542,27.6526615 43,27.4000633 43,27.2316398 C43,27.1474158 42.8392542,26.9790663 42.8392542,26.9790663 L39.8660452,23.8632937 C37.0535819,20.9160678 34,22.3475811 34,22.3475811 C34,22.3475811 35.2053582,22.263357 36.6518116,23.9475177 M42.5283835,32.1065772 L39.0699237,32.1065772 C39.0699237,32.1065772 38.8340694,32.1065772 38.6769253,32.1859983 C38.5983072,32.1859983 38.441071,32.3447708 38.441071,32.3447708 L34.1178811,36.6326981 C34.0393551,36.7121192 33.960737,36.7121192 33.8821189,36.6326981 L29.3231668,32.027156 C29.2445487,31.9477349 29.2445487,31.8683138 29.3231668,31.7890089 L33.8821189,27.1833738 C33.8821189,27.1833738 33.960737,27.1040457 34.0393551,27.1040457 C34.1178811,27.1040457 34.1178811,27.1040457 34.1964992,27.1833738 L38.2052857,31.2331075 C38.2052857,31.2331075 38.3624529,31.391973 38.5983072,31.4713244 C38.7554513,31.5507455 39.0699237,31.3125519 39.0699237,31.3125519 L40.9563437,29.4067702 L35.5327767,24.0072029 C34.3537585,22.816165 33.1747171,22.9748909 32.6244825,23.0543121 C28.1441485,23.6896347 25,27.5010816 25,31.9477349 C25,36.9502663 29.1659306,41 34.0393551,41 C38.8340694,41 42.7642378,37.1091086 43,32.2654195 C43,32.1859983 43,32.1859983 42.9213819,32.1065772 C42.7642378,32.027156 42.5283835,32.1065772 42.5283835,32.1065772" id="Fill-1" fill="#2D4DF7"></path>
            <text id="建设银行" font-family="PingFangSC-Regular, PingFang SC" font-size="18" font-weight="normal" letter-spacing="-0.4341177" fill="#FFFFFF">
                <tspan x="52" y="38">建设银行</tspan>
            </text>
        </g>
    </g>
</svg>