<?xml version="1.0" encoding="UTF-8"?>
<svg width="293px" height="121px" viewBox="0 0 293 121" version="1.1" xmlns="http://www.w3.org/2000/svg" xmlns:xlink="http://www.w3.org/1999/xlink">
    <!-- Generator: Sketch 53.2 (72643) - https://sketchapp.com -->
    <title>Fill 1 Copy 13</title>
    <desc>Created with Sketch.</desc>
    <defs>
        <linearGradient x1="-1.26857384%" y1="42.3079324%" x2="134.750118%" y2="61.0559408%" id="linearGradient-1">
            <stop stop-color="#6B1685" offset="0%"></stop>
            <stop stop-color="#6B1685" offset="100%"></stop>
        </linearGradient>
        <rect id="path-2" x="0" y="0" width="283" height="111" rx="4"></rect>
        <filter x="-3.0%" y="-5.9%" width="106.0%" height="115.3%" filterUnits="objectBoundingBox" id="filter-4">
            <feMorphology radius="0.5" operator="dilate" in="SourceAlpha" result="shadowSpreadOuter1"></feMorphology>
            <feOffset dx="0" dy="2" in="shadowSpreadOuter1" result="shadowOffsetOuter1"></feOffset>
            <feGaussianBlur stdDeviation="2" in="shadowOffsetOuter1" result="shadowBlurOuter1"></feGaussianBlur>
            <feColorMatrix values="0 0 0 0 0   0 0 0 0 0   0 0 0 0 0  0 0 0 0.0757755888 0" type="matrix" in="shadowBlurOuter1"></feColorMatrix>
        </filter>
        <polygon id="path-5" points="0.0243130841 0.138885906 46.2076281 0.138885906 46.2076281 59.6056305 0.0243130841 59.6056305"></polygon>
    </defs>
    <g id="Page-1" stroke="none" stroke-width="1" fill="none" fill-rule="evenodd">
        <g id="Fill-1-Copy-13" transform="translate(5.000000, 3.000000)">
            <mask id="mask-3" fill="white">
                <use xlink:href="#path-2"></use>
            </mask>
            <g id="Mask">
                <use fill="black" fill-opacity="1" filter="url(#filter-4)" xlink:href="#path-2"></use>
                <use fill="url(#linearGradient-1)" fill-rule="evenodd" xlink:href="#path-2"></use>
            </g>
            <g id="Group-6" mask="url(#mask-3)">
                <g transform="translate(143.000000, 39.000000)">
                    <g id="Group-3" stroke-width="1" fill="none" transform="translate(0.000000, 0.177181)">
                        <mask id="mask-6" fill="white">
                            <use xlink:href="#path-5"></use>
                        </mask>
                        <g id="Clip-2"></g>
                        <path d="M2.00934579e-05,0.138885906 L29.0232117,0.138885906 C29.0232117,0.138885906 34.4140855,0.138885906 35.6572678,1.8007651 L30.2673986,1.8007651 L30.2673986,3.4626443 L38.5597678,3.4626443 C38.5597678,3.4626443 39.8039547,4.29318121 39.8039547,5.12452349 L29.8528706,5.12452349 L29.8528706,6.78640268 L40.6328098,6.78640268 C40.6328098,6.78640268 41.8767958,7.6169396 41.4624687,8.86344966 L9.12144533,8.86344966 L9.12144533,10.5253289 L42.7064547,10.5253289 C42.7064547,10.5253289 43.1209827,11.7718389 43.1209827,12.1872081 L9.12144533,12.1872081 L9.12144533,13.8490872 L43.1209827,13.8490872 C43.1209827,13.8490872 43.5353098,15.0955973 42.7064547,15.5109664 L9.12144533,15.9261342 L9.12144533,17.5880134 L42.2913238,17.1728456 C42.2913238,17.1728456 42.2913238,18.4193557 41.4624687,18.8347248 L9.12144533,19.2498926 L9.12144533,21.7431141 L40.6328098,21.327745 C40.6328098,21.327745 40.6328098,22.9896242 39.3894266,23.4049933 L9.12144533,23.4049933 L9.12144533,25.0668725 L36.4869266,24.6515034 C36.4869266,24.6515034 35.6572678,26.7287517 31.9259126,26.7287517 L26.9503706,26.7287517 L26.9503706,28.3904295 L35.2429407,28.3904295 C35.2429407,28.3904295 38.9742958,28.3904295 38.9742958,30.0523087 L26.5358425,30.4676779 L26.5358425,32.129557 L41.0479407,32.129557 C41.0479407,32.129557 42.2913238,33.3762685 42.2913238,33.7914362 L8.70691729,34.2068054 L8.70691729,36.2844564 L42.7064547,35.8686846 C42.7064547,35.8686846 43.9498379,36.6998255 43.9498379,37.9463356 L9.53657617,38.3617047 L9.53657617,40.0235839 L45.6081509,40.0235839 C45.6081509,40.0235839 46.0234827,40.4387517 46.0234827,41.6854631 L9.53657617,42.1008322 L9.53657617,43.7627114 L46.0234827,43.7627114 C46.0234827,43.7627114 46.4378098,44.5938523 46.0234827,45.4243893 L9.53657617,45.8397584 L9.53657617,47.5014362 L45.6081509,47.5014362 C45.6081509,47.5014362 46.0234827,48.7481477 45.1936229,49.5794899 L9.53657617,49.5794899 L9.53657617,50.825396 L44.3647678,50.825396 C44.3647678,50.825396 44.3647678,52.4872752 43.5353098,52.4872752 L31.5113846,52.4872752 L31.5113846,54.148953 L42.2913238,54.148953 C42.2913238,54.148953 41.4624687,55.8108322 40.6328098,56.2268054 L31.0970575,56.2268054 L31.0970575,57.8886846 L37.3157818,57.8886846 C37.3157818,57.8886846 36.4869266,59.9659329 28.1943565,59.5507651 L0.828875234,59.5507651 L0.828875234,0.138885906 L2.00934579e-05,0.138885906 Z" id="Fill-1" fill="#FFFFFF" opacity="0.300000012" mask="url(#mask-6)"></path>
                    </g>
                    <path d="M63.8515841,46.8480604 C63.8515841,46.8480604 63.022729,50.1720201 60.120229,50.5871879 C60.120229,50.5871879 55.1446869,53.9109463 53.4863738,49.756651 C53.4863738,49.756651 52.6573178,47.2634295 55.1446869,46.4328926 C55.559215,46.4328926 63.4370561,44.3550403 63.8515841,43.1093356 L63.8515841,46.8480604 Z M71.7296262,53.9109463 L71.3152991,35.2153087 C70.900771,25.2440336 54.7303598,28.5677919 54.7303598,28.5677919 C46.0234626,29.814302 46.8523178,37.7077248 46.8523178,37.7077248 L55.1446869,38.1234966 C55.559215,33.5534295 62.193271,34.7999396 62.193271,34.7999396 C66.754285,38.5388658 61.3644159,39.3694027 61.3644159,39.3694027 C58.876243,39.3694027 50.5836729,41.8626242 50.5836729,41.8626242 C45.6081308,43.9398725 46.0234626,48.9253087 46.0234626,48.9253087 C46.0234626,57.2345034 53.0718458,57.6498725 53.0718458,57.6498725 C59.7059019,59.3117517 63.8515841,54.7420872 63.8515841,54.7420872 L64.2669159,57.6498725 L72.559285,57.2345034 L71.7296262,53.9109463 Z M102.412336,16.9346376 L109.46072,16.9346376 L109.875047,38.5388658 L118.581944,27.3210805 L127.704173,27.3210805 L119.411603,38.5388658 L128.948159,56.8193356 L120.240458,56.8193356 L113.606603,45.1863826 L109.875047,50.1720201 L109.875047,56.8193356 L101.997005,56.8193356 L102.412336,16.9346376 Z M74.2177991,28.1526242 L82.0950374,28.1526242 L82.0950374,31.4761812 C82.0950374,31.4761812 86.2417243,27.3210805 89.9730794,27.7364497 C89.9730794,27.7364497 98.2656495,26.0745705 100.338491,36.0458456 L100.753822,57.2345034 L92.8757804,57.2345034 L92.8757804,38.1234966 C92.8757804,38.1234966 90.3874065,32.7220872 84.9977383,36.0458456 C84.9977383,36.0458456 82.5103692,36.8771879 82.9246963,43.5245034 L82.9246963,57.2345034 L75.0466542,57.2345034 L74.2177991,28.1526242 Z" id="Fill-4" fill="#FFFFFF" opacity="0.300000012"></path>
                </g>
            </g>
            <circle id="Oval-Copy-10" fill="#FFFFFF" mask="url(#mask-3)" cx="34.5" cy="31.5" r="13.5"></circle>
            <path d="M28.0007057,22.000609 L38.3278524,22.000609 C38.3278524,22.000609 40.27597,22.000609 40.6431597,22.5479937 L38.7317364,22.5479937 L38.7317364,23.1317977 L41.6718306,23.1673643 C41.6718306,23.1673643 42.1494103,23.4955332 42.1494103,23.7511682 L38.7317364,23.7874352 L38.7317364,24.3342414 L42.517459,24.3342414 C42.517459,24.3342414 42.959234,24.5534876 42.8494575,25.0276075 L31.0526319,25.0276075 L31.0526319,25.6476785 L43.0317331,25.6106807 C43.0317331,25.6106807 43.1055514,26.0848311 43.1055514,26.2306602 L31.0526319,26.2306602 L31.0526319,26.8500308 L43.1421231,26.8144642 C43.1421231,26.8144642 43.2160642,27.1789001 43.0324387,27.4338043 L31.0532148,27.5440669 L31.0532148,28.1278708 L42.8501632,28.054606 C42.8501632,28.054606 42.8501632,28.528726 42.5547363,28.6745552 L31.0532148,28.7479722 L31.0532148,29.2946565 L42.1881296,29.2213918 C42.1881296,29.2213918 42.1501466,29.8051653 41.7463853,29.9147275 L31.0532148,29.9504159 L31.0532148,30.534098 L40.8647682,30.4615336 C40.8647682,30.4615336 40.6446017,31.1911668 39.1369397,31.1171712 L37.3006235,31.0816046 L37.3006235,31.6282889 L40.2766757,31.6652867 C40.2766757,31.6652867 41.5268017,31.6652867 41.7104272,32.1757041 L37.3006235,32.2860885 L37.3006235,32.8327728 L42.4822372,32.8327728 C42.4822372,32.8327728 42.9599396,33.197361 42.9599396,33.4165768 L31.0526319,33.4891412 L31.0526319,34.1462099 L43.2160642,34.0372567 C43.2160642,34.0372567 43.6937666,34.3648471 43.6937666,34.693016 L31.0526319,34.7655804 L31.0526319,35.3129652 L43.8773921,35.3129652 C43.8773921,35.3129652 44.0237096,35.4952136 43.9512105,35.8241134 L31.0518956,35.9330665 L31.0518956,36.4798727 L43.9512105,36.4798727 C43.9512105,36.4798727 44.0609869,36.8080416 43.9512105,37.0635548 L31.0518956,37.1369414 L31.0518956,37.7206236 L43.8408204,37.7206236 C43.8408204,37.7206236 43.9505969,38.0850899 43.6572256,38.3763829 L31.0518956,38.3763829 L31.0518956,38.9600651 L43.3989534,38.9230673 C43.3989534,38.9230673 43.363118,39.5074498 43.1049685,39.5431382 L38.7310001,39.5431382 L38.7310001,40.1632396 L42.5167533,40.1268203 C42.5167533,40.1268203 42.2593094,40.7106243 42.0024792,40.7838891 L38.7310001,40.8208869 L38.7310001,41.4402574 L40.9366843,41.4046908 C40.9366843,41.4046908 40.6045937,42.0973261 37.7031882,41.988373 L28,41.952106 L28,22 L28.0007057,22.000609 Z" id="Fill-1" fill="#6B1685" mask="url(#mask-3)"></path>
            <text id="光大银行" mask="url(#mask-3)" font-family="PingFangSC-Regular, PingFang SC" font-size="18" font-weight="normal" letter-spacing="-0.4341177" fill="#FFFFFF">
                <tspan x="52" y="38">光大银行</tspan>
            </text>
        </g>
    </g>
</svg>