<?xml version="1.0" encoding="UTF-8"?>
<svg width="293px" height="121px" viewBox="0 0 293 121" version="1.1" xmlns="http://www.w3.org/2000/svg" xmlns:xlink="http://www.w3.org/1999/xlink">
    <!-- Generator: Sketch 53.2 (72643) - https://sketchapp.com -->
    <title>Group 19</title>
    <desc>Created with Sketch.</desc>
    <defs>
        <linearGradient x1="-1.26857384%" y1="42.3079324%" x2="134.750118%" y2="61.0559408%" id="linearGradient-1">
            <stop stop-color="#3F82F5" offset="0%"></stop>
            <stop stop-color="#2538F7" offset="100%"></stop>
        </linearGradient>
        <rect id="path-2" x="0" y="0" width="283" height="111" rx="4"></rect>
        <filter x="-3.0%" y="-5.9%" width="106.0%" height="115.3%" filterUnits="objectBoundingBox" id="filter-3">
            <feMorphology radius="0.5" operator="dilate" in="SourceAlpha" result="shadowSpreadOuter1"></feMorphology>
            <feOffset dx="0" dy="2" in="shadowSpreadOuter1" result="shadowOffsetOuter1"></feOffset>
            <feGaussianBlur stdDeviation="2" in="shadowOffsetOuter1" result="shadowBlurOuter1"></feGaussianBlur>
            <feColorMatrix values="0 0 0 0 0   0 0 0 0 0   0 0 0 0 0  0 0 0 0.0757755888 0" type="matrix" in="shadowBlurOuter1"></feColorMatrix>
        </filter>
    </defs>
    <g id="Page-1" stroke="none" stroke-width="1" fill="none" fill-rule="evenodd">
        <g id="Group-19" transform="translate(5.000000, 3.000000)">
            <g id="Fill-1-Copy-11">
                <g id="Mask">
                    <use fill="black" fill-opacity="1" filter="url(#filter-3)" xlink:href="#path-2"></use>
                    <use fill="url(#linearGradient-1)" fill-rule="evenodd" xlink:href="#path-2"></use>
                </g>
                <g id="Group-3" transform="translate(141.000000, 14.000000)" fill="#FFFFFF" opacity="0.300000012">
                    <path d="M131.999244,40.8086647 C131.999244,24.2085785 109.072835,10.548085 80.7625267,10.548085 C58.009987,10.548085 38.9051026,19.3664322 32.1314007,31.2977621 C31.610513,32.5084781 31.0890487,33.5460911 31.0890487,34.9293359 C31.0890487,37.8690721 32.9998831,40.6354182 35.9524929,42.3645818 L62.0045162,57.2355043 C63.394463,57.9274855 64.9572701,58.4460767 66.6939467,58.4460767 C68.4307675,58.4460767 69.9941513,58.1001579 71.3835214,57.2355043 L95.8727377,43.2290919 C97.4361215,42.1919095 98.6519104,40.8086647 98.6519104,39.2521733 C98.6519104,37.6958256 97.6095585,36.3125807 96.0467513,35.2752548 L86.8413273,30.0873331 L66.5205098,41.6731747 L51.0628481,32.8542534 C56.9682117,27.4935159 68.0838936,24.035332 80.7625267,24.035332 C99.6938299,24.035332 115.151636,31.9897433 115.151636,41.8459906 C114.630604,57.0628319 92.2256591,68.6482429 64.783689,67.9564052 C37.341863,67.2644239 15.6312428,54.1232393 16.1527072,39.0789268 C16.3261442,19.0210875 42.8996318,2.9395926 75.3786273,3.45818382 C78.3312371,3.45818382 81.1101215,3.63085618 83.8885734,3.80410267 C77.1154481,1.38310129 68.952376,0 59.7468078,0 C52.452074,0 45.6783721,0.864510071 39.7735851,2.59367375 C16.4995811,8.81892134 0,23.8625161 0,41.1540094 C0,64.152159 29.5262416,83 65.9996221,83 C102.473003,82.6540811 132.172681,63.9794866 131.999244,40.8086647" id="Fill-1"></path>
                </g>
            </g>
            <circle id="Oval-Copy-11" fill="#FFFFFF" cx="34.5" cy="31.5" r="13.5"></circle>
            <path d="M45.999874,31.8833892 C45.999874,29.0833747 42.1788059,26.7791951 37.4604211,26.7791951 C33.6683312,26.7791951 30.4841838,28.2666271 29.3552334,30.2791406 C29.2684188,30.4833577 29.1815081,30.6583768 29.1815081,30.8916952 C29.1815081,31.3875543 29.4999805,31.8541669 29.9920821,32.1458331 L34.334086,34.6541814 C34.5657438,34.7709012 34.8262117,34.8583744 35.1156578,34.8583744 C35.4051279,34.8583744 35.6656919,34.8000266 35.8972536,34.6541814 L39.9787896,32.2916541 C40.2393536,32.1167076 40.4419851,31.8833892 40.4419851,31.6208485 C40.4419851,31.358332 40.2682597,31.1250136 40.0077919,30.950043 L38.4735545,30.0749719 L35.0867516,32.0292102 L32.5104747,30.5416813 C33.494702,29.6374605 35.3473156,29.0541524 37.4604211,29.0541524 C40.6156383,29.0541524 43.1919393,30.3958603 43.1919393,32.0583599 C43.1051007,34.625056 39.3709432,36.5792217 34.7972815,36.4625262 C30.2236438,36.3458064 26.6052071,34.1292211 26.6921179,31.5916262 C26.721024,28.2083762 31.1499386,25.4958349 36.5631046,25.5833081 C37.0552062,25.5833081 37.5183536,25.6124336 37.9814289,25.6416559 C36.8525747,25.2332942 35.4920627,25 33.9578013,25 C32.7420123,25 31.613062,25.145821 30.6289309,25.4374871 C26.7499302,26.4875289 24,29.0250027 24,31.9416401 C24,35.8208461 28.9210403,39 34.999937,39 C41.0788338,38.9416522 46.0287802,35.7917206 45.999874,31.8833892" id="Fill-1" fill="#2D4EF7"></path>
            <text id="兴业银行" font-family="PingFangSC-Regular, PingFang SC" font-size="18" font-weight="normal" letter-spacing="-0.4341177" fill="#FFFFFF">
                <tspan x="52" y="38">兴业银行</tspan>
            </text>
        </g>
    </g>
</svg>