<?xml version="1.0" encoding="UTF-8"?>
<svg width="293px" height="121px" viewBox="0 0 293 121" version="1.1" xmlns="http://www.w3.org/2000/svg" xmlns:xlink="http://www.w3.org/1999/xlink">
    <!-- Generator: Sketch 53.2 (72643) - https://sketchapp.com -->
    <title>Group 17</title>
    <desc>Created with Sketch.</desc>
    <defs>
        <linearGradient x1="-1.26857384%" y1="42.3079324%" x2="134.750118%" y2="61.0559408%" id="linearGradient-1">
            <stop stop-color="#3FF5A0" offset="0%"></stop>
            <stop stop-color="#051CFA" offset="100%"></stop>
        </linearGradient>
        <rect id="path-2" x="0" y="0" width="283" height="111" rx="4"></rect>
        <filter x="-3.0%" y="-5.9%" width="106.0%" height="115.3%" filterUnits="objectBoundingBox" id="filter-4">
            <feMorphology radius="0.5" operator="dilate" in="SourceAlpha" result="shadowSpreadOuter1"></feMorphology>
            <feOffset dx="0" dy="2" in="shadowSpreadOuter1" result="shadowOffsetOuter1"></feOffset>
            <feGaussianBlur stdDeviation="2" in="shadowOffsetOuter1" result="shadowBlurOuter1"></feGaussianBlur>
            <feColorMatrix values="0 0 0 0 0   0 0 0 0 0   0 0 0 0 0  0 0 0 0.0757755888 0" type="matrix" in="shadowBlurOuter1"></feColorMatrix>
        </filter>
    </defs>
    <g id="Page-1" stroke="none" stroke-width="1" fill="none" fill-rule="evenodd">
        <g id="Group-17" transform="translate(5.000000, 3.000000)">
            <g id="Fill-1-Copy-8">
                <mask id="mask-3" fill="white">
                    <use xlink:href="#path-2"></use>
                </mask>
                <g id="Mask">
                    <use fill="black" fill-opacity="1" filter="url(#filter-4)" xlink:href="#path-2"></use>
                    <use fill="url(#linearGradient-1)" fill-rule="evenodd" xlink:href="#path-2"></use>
                </g>
            </g>
            <path d="M206.353097,41.7650756 L193.375245,35.3005663 L205.425655,26.5268528 L218.403508,33.4528873 L206.353097,41.7650756 Z M266.143692,60.2346512 C254.55655,44.9973302 222.575413,41.7650756 222.575413,41.7650756 L235.553039,33.9153143 L206.816366,18.2155663 L178.079466,32.5298369 L201.253976,45.4588554 C238.797503,44.5349032 249.457429,64.8521578 249.457429,64.8521578 C258.72755,94.4039748 204.962387,96.2516538 204.962387,96.2516538 C173.907787,99.9454337 159.540129,72.7021446 159.540129,72.7021446 L140.999887,73.6258714 C163.247861,117.953484 242.968503,98.5599562 242.968503,98.5599562 C283.756718,85.1696379 266.143692,60.2346512 266.143692,60.2346512 L266.143692,60.2346512 Z" id="Fill-1" fill="#FFFFFF" opacity="0.200000003"></path>
            <path d="M205.483329,64.4253888 L218.470646,71.3064448 L205.019723,78.1875008 L192.960524,71.3064448 L205.483329,64.4253888 Z M208.266552,4.3286528 C187.394078,2.9523968 146.577023,5.2466048 141.475089,30.0187648 C137.300141,49.7455488 167.449497,61.2143488 188.785577,63.5076608 C184.610855,66.2603968 179.972301,68.5537088 175.798486,71.3064448 C186.002354,76.8119168 195.279235,82.7750208 204.556117,87.8212928 L230.530751,72.6829248 L204.556117,59.3793408 C199.454183,58.4613888 194.351343,60.2963968 191.5688,60.2963968 C177.189984,60.2963968 156.31751,44.6986048 161.883051,30.4772928 C172.55143,-0.2588672 243.981448,4.3286528 250.939618,34.6062848 L270.8842,34.6062848 C262.070699,10.2926528 228.211134,5.7051328 208.266552,4.3286528 L208.266552,4.3286528 Z" id="Fill-4" fill="#FFFFFF" opacity="0.200000003"></path>
            <circle id="Oval-Copy-8" fill="#FFFFFF" cx="34.5" cy="31.5" r="13.5"></circle>
            <g id="Group-6" transform="translate(26.000000, 24.000000)">
                <g id="Group-11">
                    <path d="M9.04890607,5.78242639 L7.25197263,4.81275 L8.92049101,3.49669297 L10.7174245,4.53559814 L9.04890607,5.78242639 Z M17.3276038,8.55286273 C15.7232303,6.26726459 11.2950729,5.78242639 11.2950729,5.78242639 L13.091975,4.6049622 L9.11305093,2.25 L5.13409555,4.39714058 L8.34287393,6.33649337 C13.5412083,6.19790053 15.0171981,9.24548873 15.0171981,9.24548873 C16.3007534,13.6782613 8.85634615,13.9554131 8.85634615,13.9554131 C4.55647846,14.5094801 2.56711045,10.4229867 2.56711045,10.4229867 L-4.40536496e-13,10.5615458 C3.08048866,17.2106877 14.1187314,14.3016585 14.1187314,14.3016585 C19.7663305,12.2931107 17.3276038,8.55286273 17.3276038,8.55286273 L17.3276038,8.55286273 Z" id="Fill-1" fill="#385FF2"></path>
                    <path d="M8.91684045,9.0611071 L10.7150844,10.0932655 L8.85264881,11.1254239 L7.18291362,10.0932655 L8.91684045,9.0611071 Z M9.30220979,0.0465966959 C6.41217494,-0.159841704 0.76058261,0.184289496 0.0541610076,3.9001135 C-0.523908679,6.8591311 3.65061745,8.5794511 6.60484393,8.9234479 C6.02680561,9.3363583 5.38454428,9.6803551 4.80663139,10.0932655 C6.2194746,10.9190863 7.50396589,11.8135519 8.78845717,12.5704927 L12.384945,10.2997375 L8.78845717,8.3041999 C8.08203557,8.1665071 7.37548853,8.4417583 6.99021327,8.4417583 C4.99930038,8.4417583 2.10926554,6.1020895 2.87987878,3.9688927 C4.35703906,-0.641531304 14.2473492,0.0465966959 15.2107882,4.5882415 L17.9723457,4.5882415 C16.7520147,0.941196696 12.0637673,0.253068696 9.30220979,0.0465966959 L9.30220979,0.0465966959 Z" id="Fill-4" fill="#27BF61"></path>
                </g>
            </g>
            <text id="民生银行" font-family="PingFangSC-Regular, PingFang SC" font-size="18" font-weight="normal" letter-spacing="-0.4341177" fill="#FFFFFF">
                <tspan x="52" y="38">民生银行</tspan>
            </text>
        </g>
    </g>
</svg>