<?xml version="1.0" encoding="UTF-8"?>
<svg width="293px" height="121px" viewBox="0 0 293 121" version="1.1" xmlns="http://www.w3.org/2000/svg" xmlns:xlink="http://www.w3.org/1999/xlink">
    <!-- Generator: Sketch 53.2 (72643) - https://sketchapp.com -->
    <title>Group 9</title>
    <desc>Created with Sketch.</desc>
    <defs>
        <linearGradient x1="-1.26857384%" y1="42.3079324%" x2="134.750118%" y2="61.0559408%" id="linearGradient-1">
            <stop stop-color="#1AAFA3" offset="0%"></stop>
            <stop stop-color="#00AB8D" offset="100%"></stop>
        </linearGradient>
        <rect id="path-2" x="0" y="0" width="283" height="111" rx="4"></rect>
        <filter x="-3.0%" y="-5.9%" width="106.0%" height="115.3%" filterUnits="objectBoundingBox" id="filter-4">
            <feMorphology radius="0.5" operator="dilate" in="SourceAlpha" result="shadowSpreadOuter1"></feMorphology>
            <feOffset dx="0" dy="2" in="shadowSpreadOuter1" result="shadowOffsetOuter1"></feOffset>
            <feGaussianBlur stdDeviation="2" in="shadowOffsetOuter1" result="shadowBlurOuter1"></feGaussianBlur>
            <feColorMatrix values="0 0 0 0 0   0 0 0 0 0   0 0 0 0 0  0 0 0 0.0757755888 0" type="matrix" in="shadowBlurOuter1"></feColorMatrix>
        </filter>
    </defs>
    <g id="Page-1" stroke="none" stroke-width="1" fill="none" fill-rule="evenodd">
        <g id="Group-9" transform="translate(5.000000, 3.000000)">
            <g id="Fill-1-Copy-14">
                <mask id="mask-3" fill="white">
                    <use xlink:href="#path-2"></use>
                </mask>
                <g id="Mask">
                    <use fill="black" fill-opacity="1" filter="url(#filter-4)" xlink:href="#path-2"></use>
                    <use fill="url(#linearGradient-1)" fill-rule="evenodd" xlink:href="#path-2"></use>
                </g>
                <path d="M216.953503,-10 L213.182815,7.91016393 L183.45382,7.91016393 L175.912626,43.3123115 L148.907459,43.3123115 L145.767969,57.6808361 L145.139853,61.2295082 L142,75.5980328 L169.218889,75.5980328 L161.677513,111 L226.573733,111 L229.713587,96.6316557 L234.109308,75.591 L253.9971,75.591 L256.927943,61.2224754 L228.878637,61.2224754 L225.942899,75.5994754 L221.337261,96.6316557 L172.981601,96.6316557 L173.609716,93.2919836 L216.729629,93.2919836 L224.271005,57.6808361 L257.556059,57.6808361 L260.695731,43.3123115 L219.037433,43.3123115 L216.106589,57.6808361 L211.500408,78.9205738 L176.746669,78.9205738 L177.374785,75.5895574 L207.103598,75.5895574 L210.034623,61.2210328 L210.873017,57.6808361 L213.803861,43.3123115 L213.806762,43.3123115 L184.077585,43.3123115 L184.915436,39.9796721 L228.035892,39.9796721 L231.805855,22.2786885 L265.092541,22.2786885 L268.232212,7.91016393 L226.573733,7.91016393 L223.432611,22.2786885 L222.805221,25.6113279 L187.84066,25.6113279 L188.677604,22.2786885 L218.406417,22.2786885 L221.337261,7.91016393 L221.968277,4.36852459 L268.860147,4.36852459 L272,-10 L216.953503,-10 Z M181.146923,57.6808361 L202.499048,57.6808361 L201.871476,61.2210328 L180.309979,61.2210328 L181.146923,57.6808361 Z M153.932385,57.6808361 L172.981601,57.6808361 L172.145382,61.2210328 L153.304269,61.2210328 L153.932385,57.6808361 Z" id="Fill-1" fill="#FFFFFF" opacity="0.200000003" mask="url(#mask-3)"></path>
            </g>
            <circle id="Oval-Copy-12" fill="#FFFFFF" cx="34.5" cy="31.5" r="13.5"></circle>
            <path d="M34.8016119,23 L34.308522,25.3682861 L30.4208842,25.3682861 L29.434728,30.0495618 L25.9032832,30.0495618 L25.4927344,31.949532 L25.4105962,32.4187779 L25,34.3187481 L28.5593931,34.3187481 L27.5732132,39 L36.0596421,39 L36.4702382,37.1000537 L37.0450634,34.3178182 L39.6457746,34.3178182 L40.0290388,32.417848 L36.3610525,32.417848 L35.9771483,34.3189389 L35.3748726,37.1000537 L29.0514401,37.1000537 L29.1335783,36.6584441 L34.7723361,36.6584441 L35.7585161,31.949532 L40.111177,31.949532 L40.5217494,30.0495618 L35.0741259,30.0495618 L34.6908617,31.949532 L34.0885149,34.7580924 L29.5437952,34.7580924 L29.6259334,34.3176274 L33.5135475,34.3176274 L33.8968354,32.4176572 L34.0064715,31.949532 L34.3897357,30.0495618 L34.390115,30.0495618 L30.5024535,30.0495618 L30.6120185,29.6088823 L36.2508475,29.6088823 L36.7438426,27.2682563 L41.0967168,27.2682563 L41.5072893,25.3682861 L36.0596421,25.3682861 L35.6488799,27.2682563 L35.5668366,27.7089359 L30.9945478,27.7089359 L31.1039943,27.2682563 L34.9916084,27.2682563 L35.3748726,25.3682861 L35.4573901,24.8999702 L41.5894038,24.8999702 L42,23 L34.8016119,23 Z M30.119213,31.949532 L32.911414,31.949532 L32.8293469,32.4176572 L30.0097665,32.4176572 L30.119213,31.949532 Z M26.5603888,31.949532 L29.0514401,31.949532 L28.9420884,32.4176572 L26.4782506,32.4176572 L26.5603888,31.949532 Z" id="Fill-1" fill="#15AE9E"></path>
            <text id="邮政银行" font-family="PingFangSC-Regular, PingFang SC" font-size="18" font-weight="normal" letter-spacing="-0.4341177" fill="#FFFFFF">
                <tspan x="52" y="38">邮政银行</tspan>
            </text>
        </g>
    </g>
</svg>